<?xml version="1.0" encoding="UTF-8" standalone="no"?>
<!-- Created with matplotlib (https://matplotlib.org/) -->

<svg
   xmlns:dc="http://purl.org/dc/elements/1.1/"
   xmlns:cc="http://creativecommons.org/ns#"
   xmlns:rdf="http://www.w3.org/1999/02/22-rdf-syntax-ns#"
   xmlns:svg="http://www.w3.org/2000/svg"
   xmlns="http://www.w3.org/2000/svg"
   xmlns:xlink="http://www.w3.org/1999/xlink"
   xmlns:sodipodi="http://sodipodi.sourceforge.net/DTD/sodipodi-0.dtd"
   xmlns:inkscape="http://www.inkscape.org/namespaces/inkscape"
   height="345.6pt"
   version="1.1"
   viewBox="0 0 460.8 345.6"
   width="460.8pt"
   id="svg7530"
   sodipodi:docname="frequent_programs_submits.svg"
   inkscape:version="0.92.3 (unknown)">
  <metadata
     id="metadata7534">
    <rdf:RDF>
      <cc:Work
         rdf:about="">
        <dc:format>image/svg+xml</dc:format>
        <dc:type
           rdf:resource="http://purl.org/dc/dcmitype/StillImage" />
      </cc:Work>
    </rdf:RDF>
  </metadata>
  <sodipodi:namedview
     pagecolor="#ffffff"
     bordercolor="#666666"
     borderopacity="1"
     objecttolerance="10"
     gridtolerance="10"
     guidetolerance="10"
     inkscape:pageopacity="0"
     inkscape:pageshadow="2"
     inkscape:window-width="1920"
     inkscape:window-height="1052"
     id="namedview7532"
     showgrid="false"
     inkscape:zoom="1.4485868"
     inkscape:cx="311.91722"
     inkscape:cy="216.13796"
     inkscape:window-x="8"
     inkscape:window-y="0"
     inkscape:window-maximized="1"
     inkscape:current-layer="axis3d_2" />
  <defs
     id="defs6938">
    <style
       type="text/css"
       id="style6936">
*{stroke-linecap:butt;stroke-linejoin:round;}
  </style>
  </defs>
  <g
     id="figure_1">
    <g
       id="patch_1">
      <path
         d="M 0 345.6  L 460.8 345.6  L 460.8 0  L 0 0  z "
         style="fill:#ffffff;"
         id="path6940" />
    </g>
    <g
       id="patch_2">
      <path
         d="M 57.6 307.584  L 414.72 307.584  L 414.72 41.472  L 57.6 41.472  z "
         style="fill:#ffffff;"
         id="path6943" />
    </g>
    <g
       id="pane3d_1">
      <g
         id="patch_3">
        <path
           d="M 105.122913 249.133604  L 206.348911 183.620016  L 204.606691 58.939618  L 97.729218 117.803755  "
           style="fill:#f2f2f2;opacity:0.5;stroke:#f2f2f2;stroke-linejoin:miter;"
           id="path6946" />
      </g>
    </g>
    <g
       id="pane3d_2">
      <g
         id="patch_4">
        <path
           d="M 206.348911 183.620016  L 372.445966 219.685106  L 379.356014 91.28715  L 204.606691 58.939618  "
           style="fill:#e6e6e6;opacity:0.5;stroke:#e6e6e6;stroke-linejoin:miter;"
           id="path6950" />
      </g>
    </g>
    <g
       id="pane3d_3">
      <g
         id="patch_5">
        <path
           d="M 105.122913 249.133604  L 280.040676 291.160524  L 372.445966 219.685106  L 206.348911 183.620016  "
           style="fill:#ececec;opacity:0.5;stroke:#ececec;stroke-linejoin:miter;"
           id="path6954" />
      </g>
    </g>
    <g
       id="axis3d_1">
      <g
         id="line2d_1">
        <path
           d="M 105.122913 249.133604  L 280.040676 291.160524  "
           style="fill:none;stroke:#000000;stroke-linecap:square;stroke-width:0.8;"
           id="path6958" />
      </g>
      <g
         id="text_1">
        <!-- absolute count threshold -->
        <defs
           id="defs6975">
          <path
             d="M 34.28125 27.484375  Q 23.390625 27.484375 19.1875 25  Q 14.984375 22.515625 14.984375 16.5  Q 14.984375 11.71875 18.140625 8.90625  Q 21.296875 6.109375 26.703125 6.109375  Q 34.1875 6.109375 38.703125 11.40625  Q 43.21875 16.703125 43.21875 25.484375  L 43.21875 27.484375  z M 52.203125 31.203125  L 52.203125 0  L 43.21875 0  L 43.21875 8.296875  Q 40.140625 3.328125 35.546875 0.953125  Q 30.953125 -1.421875 24.3125 -1.421875  Q 15.921875 -1.421875 10.953125 3.296875  Q 6 8.015625 6 15.921875  Q 6 25.140625 12.171875 29.828125  Q 18.359375 34.515625 30.609375 34.515625  L 43.21875 34.515625  L 43.21875 35.40625  Q 43.21875 41.609375 39.140625 45  Q 35.0625 48.390625 27.6875 48.390625  Q 23 48.390625 18.546875 47.265625  Q 14.109375 46.140625 10.015625 43.890625  L 10.015625 52.203125  Q 14.9375 54.109375 19.578125 55.046875  Q 24.21875 56 28.609375 56  Q 40.484375 56 46.34375 49.84375  Q 52.203125 43.703125 52.203125 31.203125  z "
             id="DejaVuSans-97" />
          <path
             d="M 48.6875 27.296875  Q 48.6875 37.203125 44.609375 42.84375  Q 40.53125 48.484375 33.40625 48.484375  Q 26.265625 48.484375 22.1875 42.84375  Q 18.109375 37.203125 18.109375 27.296875  Q 18.109375 17.390625 22.1875 11.75  Q 26.265625 6.109375 33.40625 6.109375  Q 40.53125 6.109375 44.609375 11.75  Q 48.6875 17.390625 48.6875 27.296875  z M 18.109375 46.390625  Q 20.953125 51.265625 25.265625 53.625  Q 29.59375 56 35.59375 56  Q 45.5625 56 51.78125 48.09375  Q 58.015625 40.1875 58.015625 27.296875  Q 58.015625 14.40625 51.78125 6.484375  Q 45.5625 -1.421875 35.59375 -1.421875  Q 29.59375 -1.421875 25.265625 0.953125  Q 20.953125 3.328125 18.109375 8.203125  L 18.109375 0  L 9.078125 0  L 9.078125 75.984375  L 18.109375 75.984375  z "
             id="DejaVuSans-98" />
          <path
             d="M 44.28125 53.078125  L 44.28125 44.578125  Q 40.484375 46.53125 36.375 47.5  Q 32.28125 48.484375 27.875 48.484375  Q 21.1875 48.484375 17.84375 46.4375  Q 14.5 44.390625 14.5 40.28125  Q 14.5 37.15625 16.890625 35.375  Q 19.28125 33.59375 26.515625 31.984375  L 29.59375 31.296875  Q 39.15625 29.25 43.1875 25.515625  Q 47.21875 21.78125 47.21875 15.09375  Q 47.21875 7.46875 41.1875 3.015625  Q 35.15625 -1.421875 24.609375 -1.421875  Q 20.21875 -1.421875 15.453125 -0.5625  Q 10.6875 0.296875 5.421875 2  L 5.421875 11.28125  Q 10.40625 8.6875 15.234375 7.390625  Q 20.0625 6.109375 24.8125 6.109375  Q 31.15625 6.109375 34.5625 8.28125  Q 37.984375 10.453125 37.984375 14.40625  Q 37.984375 18.0625 35.515625 20.015625  Q 33.0625 21.96875 24.703125 23.78125  L 21.578125 24.515625  Q 13.234375 26.265625 9.515625 29.90625  Q 5.8125 33.546875 5.8125 39.890625  Q 5.8125 47.609375 11.28125 51.796875  Q 16.75 56 26.8125 56  Q 31.78125 56 36.171875 55.265625  Q 40.578125 54.546875 44.28125 53.078125  z "
             id="DejaVuSans-115" />
          <path
             d="M 30.609375 48.390625  Q 23.390625 48.390625 19.1875 42.75  Q 14.984375 37.109375 14.984375 27.296875  Q 14.984375 17.484375 19.15625 11.84375  Q 23.34375 6.203125 30.609375 6.203125  Q 37.796875 6.203125 41.984375 11.859375  Q 46.1875 17.53125 46.1875 27.296875  Q 46.1875 37.015625 41.984375 42.703125  Q 37.796875 48.390625 30.609375 48.390625  z M 30.609375 56  Q 42.328125 56 49.015625 48.375  Q 55.71875 40.765625 55.71875 27.296875  Q 55.71875 13.875 49.015625 6.21875  Q 42.328125 -1.421875 30.609375 -1.421875  Q 18.84375 -1.421875 12.171875 6.21875  Q 5.515625 13.875 5.515625 27.296875  Q 5.515625 40.765625 12.171875 48.375  Q 18.84375 56 30.609375 56  z "
             id="DejaVuSans-111" />
          <path
             d="M 9.421875 75.984375  L 18.40625 75.984375  L 18.40625 0  L 9.421875 0  z "
             id="DejaVuSans-108" />
          <path
             d="M 8.5 21.578125  L 8.5 54.6875  L 17.484375 54.6875  L 17.484375 21.921875  Q 17.484375 14.15625 20.5 10.265625  Q 23.53125 6.390625 29.59375 6.390625  Q 36.859375 6.390625 41.078125 11.03125  Q 45.3125 15.671875 45.3125 23.6875  L 45.3125 54.6875  L 54.296875 54.6875  L 54.296875 0  L 45.3125 0  L 45.3125 8.40625  Q 42.046875 3.421875 37.71875 1  Q 33.40625 -1.421875 27.6875 -1.421875  Q 18.265625 -1.421875 13.375 4.4375  Q 8.5 10.296875 8.5 21.578125  z M 31.109375 56  z "
             id="DejaVuSans-117" />
          <path
             d="M 18.3125 70.21875  L 18.3125 54.6875  L 36.8125 54.6875  L 36.8125 47.703125  L 18.3125 47.703125  L 18.3125 18.015625  Q 18.3125 11.328125 20.140625 9.421875  Q 21.96875 7.515625 27.59375 7.515625  L 36.8125 7.515625  L 36.8125 0  L 27.59375 0  Q 17.1875 0 13.234375 3.875  Q 9.28125 7.765625 9.28125 18.015625  L 9.28125 47.703125  L 2.6875 47.703125  L 2.6875 54.6875  L 9.28125 54.6875  L 9.28125 70.21875  z "
             id="DejaVuSans-116" />
          <path
             d="M 56.203125 29.59375  L 56.203125 25.203125  L 14.890625 25.203125  Q 15.484375 15.921875 20.484375 11.0625  Q 25.484375 6.203125 34.421875 6.203125  Q 39.59375 6.203125 44.453125 7.46875  Q 49.3125 8.734375 54.109375 11.28125  L 54.109375 2.78125  Q 49.265625 0.734375 44.1875 -0.34375  Q 39.109375 -1.421875 33.890625 -1.421875  Q 20.796875 -1.421875 13.15625 6.1875  Q 5.515625 13.8125 5.515625 26.8125  Q 5.515625 40.234375 12.765625 48.109375  Q 20.015625 56 32.328125 56  Q 43.359375 56 49.78125 48.890625  Q 56.203125 41.796875 56.203125 29.59375  z M 47.21875 32.234375  Q 47.125 39.59375 43.09375 43.984375  Q 39.0625 48.390625 32.421875 48.390625  Q 24.90625 48.390625 20.390625 44.140625  Q 15.875 39.890625 15.1875 32.171875  z "
             id="DejaVuSans-101" />
          <path
             id="DejaVuSans-32" />
          <path
             d="M 48.78125 52.59375  L 48.78125 44.1875  Q 44.96875 46.296875 41.140625 47.34375  Q 37.3125 48.390625 33.40625 48.390625  Q 24.65625 48.390625 19.8125 42.84375  Q 14.984375 37.3125 14.984375 27.296875  Q 14.984375 17.28125 19.8125 11.734375  Q 24.65625 6.203125 33.40625 6.203125  Q 37.3125 6.203125 41.140625 7.25  Q 44.96875 8.296875 48.78125 10.40625  L 48.78125 2.09375  Q 45.015625 0.34375 40.984375 -0.53125  Q 36.96875 -1.421875 32.421875 -1.421875  Q 20.0625 -1.421875 12.78125 6.34375  Q 5.515625 14.109375 5.515625 27.296875  Q 5.515625 40.671875 12.859375 48.328125  Q 20.21875 56 33.015625 56  Q 37.15625 56 41.109375 55.140625  Q 45.0625 54.296875 48.78125 52.59375  z "
             id="DejaVuSans-99" />
          <path
             d="M 54.890625 33.015625  L 54.890625 0  L 45.90625 0  L 45.90625 32.71875  Q 45.90625 40.484375 42.875 44.328125  Q 39.84375 48.1875 33.796875 48.1875  Q 26.515625 48.1875 22.3125 43.546875  Q 18.109375 38.921875 18.109375 30.90625  L 18.109375 0  L 9.078125 0  L 9.078125 54.6875  L 18.109375 54.6875  L 18.109375 46.1875  Q 21.34375 51.125 25.703125 53.5625  Q 30.078125 56 35.796875 56  Q 45.21875 56 50.046875 50.171875  Q 54.890625 44.34375 54.890625 33.015625  z "
             id="DejaVuSans-110" />
          <path
             d="M 54.890625 33.015625  L 54.890625 0  L 45.90625 0  L 45.90625 32.71875  Q 45.90625 40.484375 42.875 44.328125  Q 39.84375 48.1875 33.796875 48.1875  Q 26.515625 48.1875 22.3125 43.546875  Q 18.109375 38.921875 18.109375 30.90625  L 18.109375 0  L 9.078125 0  L 9.078125 75.984375  L 18.109375 75.984375  L 18.109375 46.1875  Q 21.34375 51.125 25.703125 53.5625  Q 30.078125 56 35.796875 56  Q 45.21875 56 50.046875 50.171875  Q 54.890625 44.34375 54.890625 33.015625  z "
             id="DejaVuSans-104" />
          <path
             d="M 41.109375 46.296875  Q 39.59375 47.171875 37.8125 47.578125  Q 36.03125 48 33.890625 48  Q 26.265625 48 22.1875 43.046875  Q 18.109375 38.09375 18.109375 28.8125  L 18.109375 0  L 9.078125 0  L 9.078125 54.6875  L 18.109375 54.6875  L 18.109375 46.1875  Q 20.953125 51.171875 25.484375 53.578125  Q 30.03125 56 36.53125 56  Q 37.453125 56 38.578125 55.875  Q 39.703125 55.765625 41.0625 55.515625  z "
             id="DejaVuSans-114" />
          <path
             d="M 45.40625 46.390625  L 45.40625 75.984375  L 54.390625 75.984375  L 54.390625 0  L 45.40625 0  L 45.40625 8.203125  Q 42.578125 3.328125 38.25 0.953125  Q 33.9375 -1.421875 27.875 -1.421875  Q 17.96875 -1.421875 11.734375 6.484375  Q 5.515625 14.40625 5.515625 27.296875  Q 5.515625 40.1875 11.734375 48.09375  Q 17.96875 56 27.875 56  Q 33.9375 56 38.25 53.625  Q 42.578125 51.265625 45.40625 46.390625  z M 14.796875 27.296875  Q 14.796875 17.390625 18.875 11.75  Q 22.953125 6.109375 30.078125 6.109375  Q 37.203125 6.109375 41.296875 11.75  Q 45.40625 17.390625 45.40625 27.296875  Q 45.40625 37.203125 41.296875 42.84375  Q 37.203125 48.484375 30.078125 48.484375  Q 22.953125 48.484375 18.875 42.84375  Q 14.796875 37.203125 14.796875 27.296875  z "
             id="DejaVuSans-100" />
        </defs>
        <g
           transform="translate(113.458529 288.720751)rotate(-346.489817)scale(0.1 -0.1)"
           id="g7025">
          <use
             xlink:href="#DejaVuSans-97"
             id="use6977" />
          <use
             x="61.279297"
             xlink:href="#DejaVuSans-98"
             id="use6979" />
          <use
             x="124.755859"
             xlink:href="#DejaVuSans-115"
             id="use6981" />
          <use
             x="176.855469"
             xlink:href="#DejaVuSans-111"
             id="use6983" />
          <use
             x="238.037109"
             xlink:href="#DejaVuSans-108"
             id="use6985" />
          <use
             x="265.820312"
             xlink:href="#DejaVuSans-117"
             id="use6987" />
          <use
             x="329.199219"
             xlink:href="#DejaVuSans-116"
             id="use6989" />
          <use
             x="368.408203"
             xlink:href="#DejaVuSans-101"
             id="use6991" />
          <use
             x="429.931641"
             xlink:href="#DejaVuSans-32"
             id="use6993" />
          <use
             x="461.71875"
             xlink:href="#DejaVuSans-99"
             id="use6995" />
          <use
             x="516.699219"
             xlink:href="#DejaVuSans-111"
             id="use6997" />
          <use
             x="577.880859"
             xlink:href="#DejaVuSans-117"
             id="use6999" />
          <use
             x="641.259766"
             xlink:href="#DejaVuSans-110"
             id="use7001" />
          <use
             x="704.638672"
             xlink:href="#DejaVuSans-116"
             id="use7003" />
          <use
             x="743.847656"
             xlink:href="#DejaVuSans-32"
             id="use7005" />
          <use
             x="775.634766"
             xlink:href="#DejaVuSans-116"
             id="use7007" />
          <use
             x="814.84375"
             xlink:href="#DejaVuSans-104"
             id="use7009" />
          <use
             x="878.222656"
             xlink:href="#DejaVuSans-114"
             id="use7011" />
          <use
             x="919.304688"
             xlink:href="#DejaVuSans-101"
             id="use7013" />
          <use
             x="980.828125"
             xlink:href="#DejaVuSans-115"
             id="use7015" />
          <use
             x="1032.927734"
             xlink:href="#DejaVuSans-104"
             id="use7017" />
          <use
             x="1096.306641"
             xlink:href="#DejaVuSans-111"
             id="use7019" />
          <use
             x="1157.488281"
             xlink:href="#DejaVuSans-108"
             id="use7021" />
          <use
             x="1185.271484"
             xlink:href="#DejaVuSans-100"
             id="use7023" />
        </g>
      </g>
      <g
         id="Line3DCollection_1">
        <path
           d="M 127.747437 254.569524  L 227.894876 188.298348  L 227.232566 63.127853  "
           style="fill:none;stroke:#b0b0b0;stroke-width:0.8;"
           id="path7028" />
        <path
           d="M 154.823973 261.075115  L 253.656208 193.891974  L 254.301673 68.138567  "
           style="fill:none;stroke:#b0b0b0;stroke-width:0.8;"
           id="path7030" />
        <path
           d="M 182.288666 267.673967  L 279.759713 199.559897  L 281.748769 73.219249  "
           style="fill:none;stroke:#b0b0b0;stroke-width:0.8;"
           id="path7032" />
        <path
           d="M 210.149922 274.3681  L 306.212255 205.303607  L 309.581825 78.371376  "
           style="fill:none;stroke:#b0b0b0;stroke-width:0.8;"
           id="path7034" />
        <path
           d="M 238.416392 281.159593  L 333.02088 211.124634  L 337.809041 83.596465  "
           style="fill:none;stroke:#b0b0b0;stroke-width:0.8;"
           id="path7036" />
        <path
           d="M 267.096983 288.050585  L 360.192829 217.024551  L 366.43885 88.896078  "
           style="fill:none;stroke:#b0b0b0;stroke-width:0.8;"
           id="path7038" />
      </g>
      <g
         id="xtick_1">
        <g
           id="line2d_2">
          <path
             d="M 128.6107 253.998272  L 126.017669 255.714175  "
             style="fill:none;stroke:#000000;stroke-linecap:square;stroke-width:0.8;"
             id="path7041" />
        </g>
        <g
           id="text_2">
          <!-- 50 -->
          <defs
             id="defs7046">
            <path
               d="M 10.796875 72.90625  L 49.515625 72.90625  L 49.515625 64.59375  L 19.828125 64.59375  L 19.828125 46.734375  Q 21.96875 47.46875 24.109375 47.828125  Q 26.265625 48.1875 28.421875 48.1875  Q 40.625 48.1875 47.75 41.5  Q 54.890625 34.8125 54.890625 23.390625  Q 54.890625 11.625 47.5625 5.09375  Q 40.234375 -1.421875 26.90625 -1.421875  Q 22.3125 -1.421875 17.546875 -0.640625  Q 12.796875 0.140625 7.71875 1.703125  L 7.71875 11.625  Q 12.109375 9.234375 16.796875 8.0625  Q 21.484375 6.890625 26.703125 6.890625  Q 35.15625 6.890625 40.078125 11.328125  Q 45.015625 15.765625 45.015625 23.390625  Q 45.015625 31 40.078125 35.4375  Q 35.15625 39.890625 26.703125 39.890625  Q 22.75 39.890625 18.8125 39.015625  Q 14.890625 38.140625 10.796875 36.28125  z "
               id="DejaVuSans-53" />
            <path
               d="M 31.78125 66.40625  Q 24.171875 66.40625 20.328125 58.90625  Q 16.5 51.421875 16.5 36.375  Q 16.5 21.390625 20.328125 13.890625  Q 24.171875 6.390625 31.78125 6.390625  Q 39.453125 6.390625 43.28125 13.890625  Q 47.125 21.390625 47.125 36.375  Q 47.125 51.421875 43.28125 58.90625  Q 39.453125 66.40625 31.78125 66.40625  z M 31.78125 74.21875  Q 44.046875 74.21875 50.515625 64.515625  Q 56.984375 54.828125 56.984375 36.375  Q 56.984375 17.96875 50.515625 8.265625  Q 44.046875 -1.421875 31.78125 -1.421875  Q 19.53125 -1.421875 13.0625 8.265625  Q 6.59375 17.96875 6.59375 36.375  Q 6.59375 54.828125 13.0625 64.515625  Q 19.53125 74.21875 31.78125 74.21875  z "
               id="DejaVuSans-48" />
          </defs>
          <g
             transform="translate(114.137305 276.114759)scale(0.1 -0.1)"
             id="g7052">
            <use
               xlink:href="#DejaVuSans-53"
               id="use7048" />
            <use
               x="63.623047"
               xlink:href="#DejaVuSans-48"
               id="use7050" />
          </g>
        </g>
      </g>
      <g
         id="xtick_2">
        <g
           id="line2d_3">
          <path
             d="M 155.676335 260.495706  L 153.116025 262.236126  "
             style="fill:none;stroke:#000000;stroke-linecap:square;stroke-width:0.8;"
             id="path7056" />
        </g>
        <g
           id="text_3">
          <!-- 100 -->
          <defs
             id="defs7060">
            <path
               d="M 12.40625 8.296875  L 28.515625 8.296875  L 28.515625 63.921875  L 10.984375 60.40625  L 10.984375 69.390625  L 28.421875 72.90625  L 38.28125 72.90625  L 38.28125 8.296875  L 54.390625 8.296875  L 54.390625 0  L 12.40625 0  z "
               id="DejaVuSans-49" />
          </defs>
          <g
             transform="translate(138.031717 282.731998)scale(0.1 -0.1)"
             id="g7068">
            <use
               xlink:href="#DejaVuSans-49"
               id="use7062" />
            <use
               x="63.623047"
               xlink:href="#DejaVuSans-48"
               id="use7064" />
            <use
               x="127.246094"
               xlink:href="#DejaVuSans-48"
               id="use7066" />
          </g>
        </g>
      </g>
      <g
         id="xtick_3">
        <g
           id="line2d_4">
          <path
             d="M 183.129724 267.086225  L 180.603345 268.851692  "
             style="fill:none;stroke:#000000;stroke-linecap:square;stroke-width:0.8;"
             id="path7072" />
        </g>
        <g
           id="text_4">
          <!-- 150 -->
          <g
             transform="translate(165.496256 289.444279)scale(0.1 -0.1)"
             id="g7081">
            <use
               xlink:href="#DejaVuSans-49"
               id="use7075" />
            <use
               x="63.623047"
               xlink:href="#DejaVuSans-53"
               id="use7077" />
            <use
               x="127.246094"
               xlink:href="#DejaVuSans-48"
               id="use7079" />
          </g>
        </g>
      </g>
      <g
         id="xtick_4">
        <g
           id="line2d_5">
          <path
             d="M 210.97926 273.771843  L 208.488062 275.562903  "
             style="fill:none;stroke:#000000;stroke-linecap:square;stroke-width:0.8;"
             id="path7085" />
        </g>
        <g
           id="text_5">
          <!-- 200 -->
          <defs
             id="defs7089">
            <path
               d="M 19.1875 8.296875  L 53.609375 8.296875  L 53.609375 0  L 7.328125 0  L 7.328125 8.296875  Q 12.9375 14.109375 22.625 23.890625  Q 32.328125 33.6875 34.8125 36.53125  Q 39.546875 41.84375 41.421875 45.53125  Q 43.3125 49.21875 43.3125 52.78125  Q 43.3125 58.59375 39.234375 62.25  Q 35.15625 65.921875 28.609375 65.921875  Q 23.96875 65.921875 18.8125 64.3125  Q 13.671875 62.703125 7.8125 59.421875  L 7.8125 69.390625  Q 13.765625 71.78125 18.9375 73  Q 24.125 74.21875 28.421875 74.21875  Q 39.75 74.21875 46.484375 68.546875  Q 53.21875 62.890625 53.21875 53.421875  Q 53.21875 48.921875 51.53125 44.890625  Q 49.859375 40.875 45.40625 35.40625  Q 44.1875 33.984375 37.640625 27.21875  Q 31.109375 20.453125 19.1875 8.296875  z "
               id="DejaVuSans-50" />
          </defs>
          <g
             transform="translate(193.358112 296.253662)scale(0.1 -0.1)"
             id="g7097">
            <use
               xlink:href="#DejaVuSans-50"
               id="use7091" />
            <use
               x="63.623047"
               xlink:href="#DejaVuSans-48"
               id="use7093" />
            <use
               x="127.246094"
               xlink:href="#DejaVuSans-48"
               id="use7095" />
          </g>
        </g>
      </g>
      <g
         id="xtick_5">
        <g
           id="line2d_6">
          <path
             d="M 239.23358 280.554635  L 236.778858 282.371847  "
             style="fill:none;stroke:#000000;stroke-linecap:square;stroke-width:0.8;"
             id="path7101" />
        </g>
        <g
           id="text_6">
          <!-- 250 -->
          <g
             transform="translate(221.625968 303.162271)scale(0.1 -0.1)"
             id="g7110">
            <use
               xlink:href="#DejaVuSans-50"
               id="use7104" />
            <use
               x="63.623047"
               xlink:href="#DejaVuSans-53"
               id="use7106" />
            <use
               x="127.246094"
               xlink:href="#DejaVuSans-48"
               id="use7108" />
          </g>
        </g>
      </g>
      <g
         id="xtick_6">
        <g
           id="line2d_7">
          <path
             d="M 267.901574 287.436735  L 265.484668 289.280676  "
             style="fill:none;stroke:#000000;stroke-linecap:square;stroke-width:0.8;"
             id="path7114" />
        </g>
        <g
           id="text_7">
          <!-- 300 -->
          <defs
             id="defs7118">
            <path
               d="M 40.578125 39.3125  Q 47.65625 37.796875 51.625 33  Q 55.609375 28.21875 55.609375 21.1875  Q 55.609375 10.40625 48.1875 4.484375  Q 40.765625 -1.421875 27.09375 -1.421875  Q 22.515625 -1.421875 17.65625 -0.515625  Q 12.796875 0.390625 7.625 2.203125  L 7.625 11.71875  Q 11.71875 9.328125 16.59375 8.109375  Q 21.484375 6.890625 26.8125 6.890625  Q 36.078125 6.890625 40.9375 10.546875  Q 45.796875 14.203125 45.796875 21.1875  Q 45.796875 27.640625 41.28125 31.265625  Q 36.765625 34.90625 28.71875 34.90625  L 20.21875 34.90625  L 20.21875 43.015625  L 29.109375 43.015625  Q 36.375 43.015625 40.234375 45.921875  Q 44.09375 48.828125 44.09375 54.296875  Q 44.09375 59.90625 40.109375 62.90625  Q 36.140625 65.921875 28.71875 65.921875  Q 24.65625 65.921875 20.015625 65.03125  Q 15.375 64.15625 9.8125 62.3125  L 9.8125 71.09375  Q 15.4375 72.65625 20.34375 73.4375  Q 25.25 74.21875 29.59375 74.21875  Q 40.828125 74.21875 47.359375 69.109375  Q 53.90625 64.015625 53.90625 55.328125  Q 53.90625 49.265625 50.4375 45.09375  Q 46.96875 40.921875 40.578125 39.3125  z "
               id="DejaVuSans-51" />
          </defs>
          <g
             transform="translate(250.308764 310.172291)scale(0.1 -0.1)"
             id="g7126">
            <use
               xlink:href="#DejaVuSans-51"
               id="use7120" />
            <use
               x="63.623047"
               xlink:href="#DejaVuSans-48"
               id="use7122" />
            <use
               x="127.246094"
               xlink:href="#DejaVuSans-48"
               id="use7124" />
          </g>
        </g>
      </g>
    </g>
    <g
       id="axis3d_2">
      <g
         id="line2d_8">
        <path
           d="M 372.445966 219.685106  L 280.040676 291.160524  "
           style="fill:none;stroke:#000000;stroke-linecap:square;stroke-width:0.8;"
           id="path7131" />
      </g>
      <g
         id="text_8"
         transform="rotate(-3.5534493,354.75408,278.67914)"
         style="stroke-linecap:butt;stroke-linejoin:round">
        <!-- relative count threshold -->
        <defs
           id="defs7136">
          <path
             d="M 9.421875,54.6875 H 18.40625 V 0 H 9.421875 Z m 0,21.296875 H 18.40625 V 64.59375 H 9.421875 Z"
             id="DejaVuSans-105"
             inkscape:connector-curvature="0"
             style="stroke-linecap:butt;stroke-linejoin:round" />
          <path
             d="M 2.984375,54.6875 H 12.5 L 29.59375,8.796875 46.6875,54.6875 h 9.515625 L 35.6875,0 H 23.484375 Z"
             id="DejaVuSans-118"
             inkscape:connector-curvature="0"
             style="stroke-linecap:butt;stroke-linejoin:round" />
        </defs>
        <g
           transform="matrix(0.07909895,-0.06118297,-0.06118297,-0.07909895,309.03998,318.33814)"
           id="g7186"
           style="stroke-linecap:butt;stroke-linejoin:round">
          <use
             xlink:href="#DejaVuSans-114"
             id="use7138"
             style="stroke-linecap:butt;stroke-linejoin:round"
             x="0"
             y="0"
             width="100%"
             height="100%" />
          <use
             x="41.082031"
             xlink:href="#DejaVuSans-101"
             id="use7140"
             style="stroke-linecap:butt;stroke-linejoin:round"
             y="0"
             width="100%"
             height="100%" />
          <use
             x="102.60547"
             xlink:href="#DejaVuSans-108"
             id="use7142"
             style="stroke-linecap:butt;stroke-linejoin:round"
             y="0"
             width="100%"
             height="100%" />
          <use
             x="130.38867"
             xlink:href="#DejaVuSans-97"
             id="use7144"
             style="stroke-linecap:butt;stroke-linejoin:round"
             y="0"
             width="100%"
             height="100%" />
          <use
             x="191.66797"
             xlink:href="#DejaVuSans-116"
             id="use7146"
             style="stroke-linecap:butt;stroke-linejoin:round"
             y="0"
             width="100%"
             height="100%" />
          <use
             x="230.87695"
             xlink:href="#DejaVuSans-105"
             id="use7148"
             style="stroke-linecap:butt;stroke-linejoin:round"
             y="0"
             width="100%"
             height="100%" />
          <use
             x="258.66016"
             xlink:href="#DejaVuSans-118"
             id="use7150"
             style="stroke-linecap:butt;stroke-linejoin:round"
             y="0"
             width="100%"
             height="100%" />
          <use
             x="317.83984"
             xlink:href="#DejaVuSans-101"
             id="use7152"
             style="stroke-linecap:butt;stroke-linejoin:round"
             y="0"
             width="100%"
             height="100%" />
          <use
             x="379.36328"
             xlink:href="#DejaVuSans-32"
             id="use7154"
             style="stroke-linecap:butt;stroke-linejoin:round"
             y="0"
             width="100%"
             height="100%" />
          <use
             x="411.15039"
             xlink:href="#DejaVuSans-99"
             id="use7156"
             style="stroke-linecap:butt;stroke-linejoin:round"
             y="0"
             width="100%"
             height="100%" />
          <use
             x="466.13086"
             xlink:href="#DejaVuSans-111"
             id="use7158"
             style="stroke-linecap:butt;stroke-linejoin:round"
             y="0"
             width="100%"
             height="100%" />
          <use
             x="527.3125"
             xlink:href="#DejaVuSans-117"
             id="use7160"
             style="stroke-linecap:butt;stroke-linejoin:round"
             y="0"
             width="100%"
             height="100%" />
          <use
             x="590.69141"
             xlink:href="#DejaVuSans-110"
             id="use7162"
             style="stroke-linecap:butt;stroke-linejoin:round"
             y="0"
             width="100%"
             height="100%" />
          <use
             x="654.07031"
             xlink:href="#DejaVuSans-116"
             id="use7164"
             style="stroke-linecap:butt;stroke-linejoin:round"
             y="0"
             width="100%"
             height="100%" />
          <use
             x="693.2793"
             xlink:href="#DejaVuSans-32"
             id="use7166"
             style="stroke-linecap:butt;stroke-linejoin:round"
             y="0"
             width="100%"
             height="100%" />
          <use
             x="725.06641"
             xlink:href="#DejaVuSans-116"
             id="use7168"
             style="stroke-linecap:butt;stroke-linejoin:round"
             y="0"
             width="100%"
             height="100%" />
          <use
             x="764.27539"
             xlink:href="#DejaVuSans-104"
             id="use7170"
             style="stroke-linecap:butt;stroke-linejoin:round"
             y="0"
             width="100%"
             height="100%" />
          <use
             x="827.6543"
             xlink:href="#DejaVuSans-114"
             id="use7172"
             style="stroke-linecap:butt;stroke-linejoin:round"
             y="0"
             width="100%"
             height="100%" />
          <use
             x="868.73633"
             xlink:href="#DejaVuSans-101"
             id="use7174"
             style="stroke-linecap:butt;stroke-linejoin:round"
             y="0"
             width="100%"
             height="100%" />
          <use
             x="930.25977"
             xlink:href="#DejaVuSans-115"
             id="use7176"
             style="stroke-linecap:butt;stroke-linejoin:round"
             y="0"
             width="100%"
             height="100%" />
          <use
             x="982.35938"
             xlink:href="#DejaVuSans-104"
             id="use7178"
             style="stroke-linecap:butt;stroke-linejoin:round"
             y="0"
             width="100%"
             height="100%" />
          <use
             x="1045.7383"
             xlink:href="#DejaVuSans-111"
             id="use7180"
             style="stroke-linecap:butt;stroke-linejoin:round"
             y="0"
             width="100%"
             height="100%" />
          <use
             x="1106.9199"
             xlink:href="#DejaVuSans-108"
             id="use7182"
             style="stroke-linecap:butt;stroke-linejoin:round"
             y="0"
             width="100%"
             height="100%" />
          <use
             x="1134.7031"
             xlink:href="#DejaVuSans-100"
             id="use7184"
             style="stroke-linecap:butt;stroke-linejoin:round"
             y="0"
             width="100%"
             height="100%" />
        </g>
      </g>
      <g
         id="Line3DCollection_2">
        <path
           d="M 116.70084 107.354891  L 123.033553 237.541816  L 296.435451 278.479178  "
           style="fill:none;stroke:#b0b0b0;stroke-width:0.8;"
           id="path7189" />
        <path
           d="M 137.83588 95.714497  L 143.015928 224.609199  L 314.703817 264.348612  "
           style="fill:none;stroke:#b0b0b0;stroke-width:0.8;"
           id="path7191" />
        <path
           d="M 158.338922 84.422184  L 162.430355 212.044159  L 332.429959 250.637455  "
           style="fill:none;stroke:#b0b0b0;stroke-width:0.8;"
           id="path7193" />
        <path
           d="M 178.237898 73.462569  L 181.300707 199.831244  L 349.637667 237.327308  "
           style="fill:none;stroke:#b0b0b0;stroke-width:0.8;"
           id="path7195" />
        <path
           d="M 197.559116 62.821161  L 199.649541 187.955856  L 366.349355 224.40083  "
           style="fill:none;stroke:#b0b0b0;stroke-width:0.8;"
           id="path7197" />
      </g>
      <g
         id="xtick_7">
        <g
           id="line2d_9">
          <path
             d="M 294.985463 278.136859  L 299.338608 279.164566  "
             style="fill:none;stroke:#000000;stroke-linecap:square;stroke-width:0.8;"
             id="path7200" />
        </g>
        <g
           id="text_9">
          <!-- 0.1 -->
          <defs
             id="defs7204">
            <path
               d="M 10.6875 12.40625  L 21 12.40625  L 21 0  L 10.6875 0  z "
               id="DejaVuSans-46" />
          </defs>
          <g
             transform="translate(301.115039 298.103661)scale(0.1 -0.1)"
             id="g7212">
            <use
               xlink:href="#DejaVuSans-48"
               id="use7206" />
            <use
               x="63.623047"
               xlink:href="#DejaVuSans-46"
               id="use7208" />
            <use
               x="95.410156"
               xlink:href="#DejaVuSans-49"
               id="use7210" />
          </g>
        </g>
      </g>
      <g
         id="xtick_8">
        <g
           id="line2d_10">
          <path
             d="M 313.269096 264.016527  L 317.576355 265.013499  "
             style="fill:none;stroke:#000000;stroke-linecap:square;stroke-width:0.8;"
             id="path7216" />
        </g>
        <g
           id="text_10">
          <!-- 0.2 -->
          <g
             transform="translate(319.183488 283.799566)scale(0.1 -0.1)"
             id="g7225">
            <use
               xlink:href="#DejaVuSans-48"
               id="use7219" />
            <use
               x="63.623047"
               xlink:href="#DejaVuSans-46"
               id="use7221" />
            <use
               x="95.410156"
               xlink:href="#DejaVuSans-50"
               id="use7223" />
          </g>
        </g>
      </g>
      <g
         id="xtick_9">
        <g
           id="line2d_11">
          <path
             d="M 331.010246 250.315152  L 335.272405 251.282747  "
             style="fill:none;stroke:#000000;stroke-linecap:square;stroke-width:0.8;"
             id="path7229" />
        </g>
        <g
           id="text_11">
          <!-- 0.3 -->
          <g
             transform="translate(336.715929 269.919807)scale(0.1 -0.1)"
             id="g7238">
            <use
               xlink:href="#DejaVuSans-48"
               id="use7232" />
            <use
               x="63.623047"
               xlink:href="#DejaVuSans-46"
               id="use7234" />
            <use
               x="95.410156"
               xlink:href="#DejaVuSans-51"
               id="use7236" />
          </g>
        </g>
      </g>
      <g
         id="xtick_10">
        <g
           id="line2d_12">
          <path
             d="M 348.232703 237.01436  L 352.450538 237.953858  "
             style="fill:none;stroke:#000000;stroke-linecap:square;stroke-width:0.8;"
             id="path7242" />
        </g>
        <g
           id="text_12">
          <!-- 0.4 -->
          <defs
             id="defs7246">
            <path
               d="M 37.796875 64.3125  L 12.890625 25.390625  L 37.796875 25.390625  z M 35.203125 72.90625  L 47.609375 72.90625  L 47.609375 25.390625  L 58.015625 25.390625  L 58.015625 17.1875  L 47.609375 17.1875  L 47.609375 0  L 37.796875 0  L 37.796875 17.1875  L 4.890625 17.1875  L 4.890625 26.703125  z "
               id="DejaVuSans-52" />
          </defs>
          <g
             transform="translate(353.735866 256.445779)scale(0.1 -0.1)"
             id="g7254">
            <use
               xlink:href="#DejaVuSans-48"
               id="use7248" />
            <use
               x="63.623047"
               xlink:href="#DejaVuSans-46"
               id="use7250" />
            <use
               x="95.410156"
               xlink:href="#DejaVuSans-52"
               id="use7252" />
          </g>
        </g>
      </g>
      <g
         id="xtick_11">
        <g
           id="line2d_13">
          <path
             d="M 364.958887 224.096837  L 369.133163 225.009444  "
             style="fill:none;stroke:#000000;stroke-linecap:square;stroke-width:0.8;"
             id="path7258" />
        </g>
        <g
           id="text_13">
          <!-- 0.5 -->
          <g
             transform="translate(370.265447 243.359947)scale(0.1 -0.1)"
             id="g7267">
            <use
               xlink:href="#DejaVuSans-48"
               id="use7261" />
            <use
               x="63.623047"
               xlink:href="#DejaVuSans-46"
               id="use7263" />
            <use
               x="95.410156"
               xlink:href="#DejaVuSans-53"
               id="use7265" />
          </g>
        </g>
      </g>
    </g>
    <g
       id="axis3d_3">
      <g
         id="line2d_14">
        <path
           d="M 372.445966 219.685106  L 379.356014 91.28715  "
           style="fill:none;stroke:#000000;stroke-linecap:square;stroke-width:0.8;"
           id="path7272" />
      </g>
      <g
         id="text_14">
        <!-- frequent wrong programs ratio -->
        <defs
           id="defs7281">
          <path
             d="M 37.109375 75.984375  L 37.109375 68.5  L 28.515625 68.5  Q 23.6875 68.5 21.796875 66.546875  Q 19.921875 64.59375 19.921875 59.515625  L 19.921875 54.6875  L 34.71875 54.6875  L 34.71875 47.703125  L 19.921875 47.703125  L 19.921875 0  L 10.890625 0  L 10.890625 47.703125  L 2.296875 47.703125  L 2.296875 54.6875  L 10.890625 54.6875  L 10.890625 58.5  Q 10.890625 67.625 15.140625 71.796875  Q 19.390625 75.984375 28.609375 75.984375  z "
             id="DejaVuSans-102" />
          <path
             d="M 14.796875 27.296875  Q 14.796875 17.390625 18.875 11.75  Q 22.953125 6.109375 30.078125 6.109375  Q 37.203125 6.109375 41.296875 11.75  Q 45.40625 17.390625 45.40625 27.296875  Q 45.40625 37.203125 41.296875 42.84375  Q 37.203125 48.484375 30.078125 48.484375  Q 22.953125 48.484375 18.875 42.84375  Q 14.796875 37.203125 14.796875 27.296875  z M 45.40625 8.203125  Q 42.578125 3.328125 38.25 0.953125  Q 33.9375 -1.421875 27.875 -1.421875  Q 17.96875 -1.421875 11.734375 6.484375  Q 5.515625 14.40625 5.515625 27.296875  Q 5.515625 40.1875 11.734375 48.09375  Q 17.96875 56 27.875 56  Q 33.9375 56 38.25 53.625  Q 42.578125 51.265625 45.40625 46.390625  L 45.40625 54.6875  L 54.390625 54.6875  L 54.390625 -20.796875  L 45.40625 -20.796875  z "
             id="DejaVuSans-113" />
          <path
             d="M 4.203125 54.6875  L 13.1875 54.6875  L 24.421875 12.015625  L 35.59375 54.6875  L 46.1875 54.6875  L 57.421875 12.015625  L 68.609375 54.6875  L 77.59375 54.6875  L 63.28125 0  L 52.6875 0  L 40.921875 44.828125  L 29.109375 0  L 18.5 0  z "
             id="DejaVuSans-119" />
          <path
             d="M 45.40625 27.984375  Q 45.40625 37.75 41.375 43.109375  Q 37.359375 48.484375 30.078125 48.484375  Q 22.859375 48.484375 18.828125 43.109375  Q 14.796875 37.75 14.796875 27.984375  Q 14.796875 18.265625 18.828125 12.890625  Q 22.859375 7.515625 30.078125 7.515625  Q 37.359375 7.515625 41.375 12.890625  Q 45.40625 18.265625 45.40625 27.984375  z M 54.390625 6.78125  Q 54.390625 -7.171875 48.1875 -13.984375  Q 42 -20.796875 29.203125 -20.796875  Q 24.46875 -20.796875 20.265625 -20.09375  Q 16.0625 -19.390625 12.109375 -17.921875  L 12.109375 -9.1875  Q 16.0625 -11.328125 19.921875 -12.34375  Q 23.78125 -13.375 27.78125 -13.375  Q 36.625 -13.375 41.015625 -8.765625  Q 45.40625 -4.15625 45.40625 5.171875  L 45.40625 9.625  Q 42.625 4.78125 38.28125 2.390625  Q 33.9375 0 27.875 0  Q 17.828125 0 11.671875 7.65625  Q 5.515625 15.328125 5.515625 27.984375  Q 5.515625 40.671875 11.671875 48.328125  Q 17.828125 56 27.875 56  Q 33.9375 56 38.28125 53.609375  Q 42.625 51.21875 45.40625 46.390625  L 45.40625 54.6875  L 54.390625 54.6875  z "
             id="DejaVuSans-103" />
          <path
             d="M 18.109375 8.203125  L 18.109375 -20.796875  L 9.078125 -20.796875  L 9.078125 54.6875  L 18.109375 54.6875  L 18.109375 46.390625  Q 20.953125 51.265625 25.265625 53.625  Q 29.59375 56 35.59375 56  Q 45.5625 56 51.78125 48.09375  Q 58.015625 40.1875 58.015625 27.296875  Q 58.015625 14.40625 51.78125 6.484375  Q 45.5625 -1.421875 35.59375 -1.421875  Q 29.59375 -1.421875 25.265625 0.953125  Q 20.953125 3.328125 18.109375 8.203125  z M 48.6875 27.296875  Q 48.6875 37.203125 44.609375 42.84375  Q 40.53125 48.484375 33.40625 48.484375  Q 26.265625 48.484375 22.1875 42.84375  Q 18.109375 37.203125 18.109375 27.296875  Q 18.109375 17.390625 22.1875 11.75  Q 26.265625 6.109375 33.40625 6.109375  Q 40.53125 6.109375 44.609375 11.75  Q 48.6875 17.390625 48.6875 27.296875  z "
             id="DejaVuSans-112" />
          <path
             d="M 52 44.1875  Q 55.375 50.25 60.0625 53.125  Q 64.75 56 71.09375 56  Q 79.640625 56 84.28125 50.015625  Q 88.921875 44.046875 88.921875 33.015625  L 88.921875 0  L 79.890625 0  L 79.890625 32.71875  Q 79.890625 40.578125 77.09375 44.375  Q 74.3125 48.1875 68.609375 48.1875  Q 61.625 48.1875 57.5625 43.546875  Q 53.515625 38.921875 53.515625 30.90625  L 53.515625 0  L 44.484375 0  L 44.484375 32.71875  Q 44.484375 40.625 41.703125 44.40625  Q 38.921875 48.1875 33.109375 48.1875  Q 26.21875 48.1875 22.15625 43.53125  Q 18.109375 38.875 18.109375 30.90625  L 18.109375 0  L 9.078125 0  L 9.078125 54.6875  L 18.109375 54.6875  L 18.109375 46.1875  Q 21.1875 51.21875 25.484375 53.609375  Q 29.78125 56 35.6875 56  Q 41.65625 56 45.828125 52.96875  Q 50 49.953125 52 44.1875  z "
             id="DejaVuSans-109" />
        </defs>
        <g
           transform="translate(415.049769 230.342716)rotate(-86.91946)scale(0.1 -0.1)"
           id="g7341">
          <use
             xlink:href="#DejaVuSans-102"
             id="use7283" />
          <use
             x="35.205078"
             xlink:href="#DejaVuSans-114"
             id="use7285" />
          <use
             x="76.287109"
             xlink:href="#DejaVuSans-101"
             id="use7287" />
          <use
             x="137.810547"
             xlink:href="#DejaVuSans-113"
             id="use7289" />
          <use
             x="201.287109"
             xlink:href="#DejaVuSans-117"
             id="use7291" />
          <use
             x="264.666016"
             xlink:href="#DejaVuSans-101"
             id="use7293" />
          <use
             x="326.189453"
             xlink:href="#DejaVuSans-110"
             id="use7295" />
          <use
             x="389.568359"
             xlink:href="#DejaVuSans-116"
             id="use7297" />
          <use
             x="428.777344"
             xlink:href="#DejaVuSans-32"
             id="use7299" />
          <use
             x="460.564453"
             xlink:href="#DejaVuSans-119"
             id="use7301" />
          <use
             x="542.351562"
             xlink:href="#DejaVuSans-114"
             id="use7303" />
          <use
             x="583.433594"
             xlink:href="#DejaVuSans-111"
             id="use7305" />
          <use
             x="644.615234"
             xlink:href="#DejaVuSans-110"
             id="use7307" />
          <use
             x="707.994141"
             xlink:href="#DejaVuSans-103"
             id="use7309" />
          <use
             x="771.470703"
             xlink:href="#DejaVuSans-32"
             id="use7311" />
          <use
             x="803.257812"
             xlink:href="#DejaVuSans-112"
             id="use7313" />
          <use
             x="866.734375"
             xlink:href="#DejaVuSans-114"
             id="use7315" />
          <use
             x="907.816406"
             xlink:href="#DejaVuSans-111"
             id="use7317" />
          <use
             x="968.998047"
             xlink:href="#DejaVuSans-103"
             id="use7319" />
          <use
             x="1032.474609"
             xlink:href="#DejaVuSans-114"
             id="use7321" />
          <use
             x="1073.587891"
             xlink:href="#DejaVuSans-97"
             id="use7323" />
          <use
             x="1134.867188"
             xlink:href="#DejaVuSans-109"
             id="use7325" />
          <use
             x="1232.279297"
             xlink:href="#DejaVuSans-115"
             id="use7327" />
          <use
             x="1284.378906"
             xlink:href="#DejaVuSans-32"
             id="use7329" />
          <use
             x="1316.166016"
             xlink:href="#DejaVuSans-114"
             id="use7331" />
          <use
             x="1357.279297"
             xlink:href="#DejaVuSans-97"
             id="use7333" />
          <use
             x="1418.558594"
             xlink:href="#DejaVuSans-116"
             id="use7335" />
          <use
             x="1457.767578"
             xlink:href="#DejaVuSans-105"
             id="use7337" />
          <use
             x="1485.550781"
             xlink:href="#DejaVuSans-111"
             id="use7339" />
        </g>
      </g>
      <g
         id="Line3DCollection_3">
        <path
           d="M 373.349227 202.901298  L 206.120746 167.291619  L 104.15791 231.992825  "
           style="fill:none;stroke:#b0b0b0;stroke-width:0.8;"
           id="path7344" />
        <path
           d="M 374.211135 186.885906  L 205.903148 151.719364  L 103.236674 215.629447  "
           style="fill:none;stroke:#b0b0b0;stroke-width:0.8;"
           id="path7346" />
        <path
           d="M 375.08434 170.660572  L 205.682816 135.95151  L 102.302948 199.044232  "
           style="fill:none;stroke:#b0b0b0;stroke-width:0.8;"
           id="path7348" />
        <path
           d="M 375.969068 154.221142  L 205.459699 119.984351  L 101.356478 182.232639  "
           style="fill:none;stroke:#b0b0b0;stroke-width:0.8;"
           id="path7350" />
        <path
           d="M 376.865548 137.563349  L 205.233744 103.814081  L 100.397 165.190001  "
           style="fill:none;stroke:#b0b0b0;stroke-width:0.8;"
           id="path7352" />
        <path
           d="M 377.774015 120.682814  L 205.004896 87.436802  L 99.424245 147.911522  "
           style="fill:none;stroke:#b0b0b0;stroke-width:0.8;"
           id="path7354" />
        <path
           d="M 378.694711 103.57504  L 204.7731 70.848512  L 98.437935 130.392272  "
           style="fill:none;stroke:#b0b0b0;stroke-width:0.8;"
           id="path7356" />
      </g>
      <g
         id="xtick_12">
        <g
           id="line2d_15">
          <path
             d="M 371.954264 202.604254  L 376.14204 203.496  "
             style="fill:none;stroke:#000000;stroke-linecap:square;stroke-width:0.8;"
             id="path7359" />
        </g>
        <g
           id="text_15">
          <!-- 0.025 -->
          <g
             transform="translate(377.44415 208.510275)scale(0.1 -0.1)"
             id="g7372">
            <use
               xlink:href="#DejaVuSans-48"
               id="use7362" />
            <use
               x="63.623047"
               xlink:href="#DejaVuSans-46"
               id="use7364" />
            <use
               x="95.410156"
               xlink:href="#DejaVuSans-48"
               id="use7366" />
            <use
               x="159.033203"
               xlink:href="#DejaVuSans-50"
               id="use7368" />
            <use
               x="222.65625"
               xlink:href="#DejaVuSans-53"
               id="use7370" />
          </g>
        </g>
      </g>
      <g
         id="xtick_13">
        <g
           id="line2d_16">
          <path
             d="M 372.806792 186.59248  L 377.022744 187.473368  "
             style="fill:none;stroke:#000000;stroke-linecap:square;stroke-width:0.8;"
             id="path7376" />
        </g>
        <g
           id="text_16">
          <!-- 0.050 -->
          <g
             transform="translate(378.423651 192.519141)scale(0.1 -0.1)"
             id="g7389">
            <use
               xlink:href="#DejaVuSans-48"
               id="use7379" />
            <use
               x="63.623047"
               xlink:href="#DejaVuSans-46"
               id="use7381" />
            <use
               x="95.410156"
               xlink:href="#DejaVuSans-48"
               id="use7383" />
            <use
               x="159.033203"
               xlink:href="#DejaVuSans-53"
               id="use7385" />
            <use
               x="222.65625"
               xlink:href="#DejaVuSans-48"
               id="use7387" />
          </g>
        </g>
      </g>
      <g
         id="xtick_14">
        <g
           id="line2d_17">
          <path
             d="M 373.670492 170.370885  L 377.915001 171.240552  "
             style="fill:none;stroke:#000000;stroke-linecap:square;stroke-width:0.8;"
             id="path7393" />
        </g>
        <g
           id="text_17">
          <!-- 0.075 -->
          <defs
             id="defs7397">
            <path
               d="M 8.203125 72.90625  L 55.078125 72.90625  L 55.078125 68.703125  L 28.609375 0  L 18.3125 0  L 43.21875 64.59375  L 8.203125 64.59375  z "
               id="DejaVuSans-55" />
          </defs>
          <g
             transform="translate(379.415962 176.318874)scale(0.1 -0.1)"
             id="g7409">
            <use
               xlink:href="#DejaVuSans-48"
               id="use7399" />
            <use
               x="63.623047"
               xlink:href="#DejaVuSans-46"
               id="use7401" />
            <use
               x="95.410156"
               xlink:href="#DejaVuSans-48"
               id="use7403" />
            <use
               x="159.033203"
               xlink:href="#DejaVuSans-55"
               id="use7405" />
            <use
               x="222.65625"
               xlink:href="#DejaVuSans-53"
               id="use7407" />
          </g>
        </g>
      </g>
      <g
         id="xtick_15">
        <g
           id="line2d_18">
          <path
             d="M 374.545584 153.935319  L 378.819039 154.793391  "
             style="fill:none;stroke:#000000;stroke-linecap:square;stroke-width:0.8;"
             id="path7413" />
        </g>
        <g
           id="text_18">
          <!-- 0.100 -->
          <g
             transform="translate(380.421336 159.905344)scale(0.1 -0.1)"
             id="g7426">
            <use
               xlink:href="#DejaVuSans-48"
               id="use7416" />
            <use
               x="63.623047"
               xlink:href="#DejaVuSans-46"
               id="use7418" />
            <use
               x="95.410156"
               xlink:href="#DejaVuSans-49"
               id="use7420" />
            <use
               x="159.033203"
               xlink:href="#DejaVuSans-48"
               id="use7422" />
            <use
               x="222.65625"
               xlink:href="#DejaVuSans-48"
               id="use7424" />
          </g>
        </g>
      </g>
      <g
         id="xtick_16">
        <g
           id="line2d_19">
          <path
             d="M 375.432296 137.281518  L 379.735095 138.12761  "
             style="fill:none;stroke:#000000;stroke-linecap:square;stroke-width:0.8;"
             id="path7430" />
        </g>
        <g
           id="text_19">
          <!-- 0.125 -->
          <g
             transform="translate(381.440033 143.274312)scale(0.1 -0.1)"
             id="g7443">
            <use
               xlink:href="#DejaVuSans-48"
               id="use7433" />
            <use
               x="63.623047"
               xlink:href="#DejaVuSans-46"
               id="use7435" />
            <use
               x="95.410156"
               xlink:href="#DejaVuSans-49"
               id="use7437" />
            <use
               x="159.033203"
               xlink:href="#DejaVuSans-50"
               id="use7439" />
            <use
               x="222.65625"
               xlink:href="#DejaVuSans-53"
               id="use7441" />
          </g>
        </g>
      </g>
      <g
         id="xtick_17">
        <g
           id="line2d_20">
          <path
             d="M 376.330861 120.405108  L 380.663408 121.238821  "
             style="fill:none;stroke:#000000;stroke-linecap:square;stroke-width:0.8;"
             id="path7447" />
        </g>
        <g
           id="text_20">
          <!-- 0.150 -->
          <g
             transform="translate(382.472319 126.421426)scale(0.1 -0.1)"
             id="g7460">
            <use
               xlink:href="#DejaVuSans-48"
               id="use7450" />
            <use
               x="63.623047"
               xlink:href="#DejaVuSans-46"
               id="use7452" />
            <use
               x="95.410156"
               xlink:href="#DejaVuSans-49"
               id="use7454" />
            <use
               x="159.033203"
               xlink:href="#DejaVuSans-53"
               id="use7456" />
            <use
               x="222.65625"
               xlink:href="#DejaVuSans-48"
               id="use7458" />
          </g>
        </g>
      </g>
      <g
         id="xtick_18">
        <g
           id="line2d_21">
          <path
             d="M 377.241517 103.301595  L 381.604227 104.122518  "
             style="fill:none;stroke:#000000;stroke-linecap:square;stroke-width:0.8;"
             id="path7464" />
        </g>
        <g
           id="text_21">
          <!-- 0.175 -->
          <g
             transform="translate(383.518468 109.342216)scale(0.1 -0.1)"
             id="g7477">
            <use
               xlink:href="#DejaVuSans-48"
               id="use7467" />
            <use
               x="63.623047"
               xlink:href="#DejaVuSans-46"
               id="use7469" />
            <use
               x="95.410156"
               xlink:href="#DejaVuSans-49"
               id="use7471" />
            <use
               x="159.033203"
               xlink:href="#DejaVuSans-55"
               id="use7473" />
            <use
               x="222.65625"
               xlink:href="#DejaVuSans-53"
               id="use7475" />
          </g>
        </g>
      </g>
    </g>
    <g
       id="axes_1">
      <g
         id="Line3DCollection_4">
        <path
           clip-path="url(#pe6d5ee9a69)"
           d="M 118.553869 119.732973  L 135.531203 125.685271  L 152.747937 135.15734  L 170.110659 147.285014  L 187.528185 160.282385  L 204.984019 174.208129  L 222.429854 185.148349  L 239.931295 198.068667  L 257.496362 205.605475  L 275.177314 212.423534  "
           style="fill:none;stroke:#0000ff;stroke-width:1.5;"
           id="path7482" />
        <path
           clip-path="url(#pe6d5ee9a69)"
           d="M 131.708684 168.932473  L 148.172006 173.252401  L 164.788864 178.285288  L 181.526172 183.152386  L 198.41406 189.281444  L 215.408468 194.703279  L 232.532202 201.187601  L 249.761008 209.894218  L 267.114305 214.762298  L 284.594873 220.352553  "
           style="fill:none;stroke:#0000ff;stroke-width:1.5;"
           id="path7484" />
        <path
           clip-path="url(#pe6d5ee9a69)"
           d="M 142.880179 184.104087  L 159.105896 187.885023  L 175.476156 192.029488  L 191.976845 196.07458  L 208.623662 200.88661  L 225.391497 204.599836  L 242.30407 209.484302  L 259.34346 215.010425  L 276.516966 219.905135  L 293.849169 223.760805  "
           style="fill:none;stroke:#0000ff;stroke-width:1.5;"
           id="path7486" />
        <path
           clip-path="url(#pe6d5ee9a69)"
           d="M 153.546471 194.461403  L 169.584111 198.101692  L 185.760128 201.967953  L 202.065112 205.604619  L 218.513136 209.796313  L 235.092821 213.496475  L 251.810745 218.018458  L 268.665001 222.246433  L 285.656863 226.575368  L 302.801802 230.409444  "
           style="fill:none;stroke:#0000ff;stroke-width:1.5;"
           id="path7488" />
        <path
           clip-path="url(#pe6d5ee9a69)"
           d="M 163.70795 197.827297  L 179.606754 201.376589  L 195.643677 205.277249  L 211.806395 208.886795  L 228.104594 212.526597  L 244.539986 216.197038  L 261.11163 220.223776  L 277.824409 223.957547  L 294.668115 228.246219  L 311.663931 232.045473  "
           style="fill:none;stroke:#0000ff;stroke-width:1.5;"
           id="path7490" />
        <path
           clip-path="url(#pe6d5ee9a69)"
           d="M 173.594019 199.220317  L 189.36998 202.73885  L 205.275745 206.286333  L 221.312925 209.863125  L 237.483154 213.469591  L 253.788094 217.106103  L 270.224812 221.159169  L 286.801623 224.857942  L 303.518258 228.587913  L 320.376494 232.34948  "
           style="fill:none;stroke:#0000ff;stroke-width:1.5;"
           id="path7492" />
        <path
           clip-path="url(#pe6d5ee9a69)"
           d="M 183.287166 200.898417  L 198.939999 204.387527  L 214.720293 207.905048  L 230.62961 211.451329  L 246.66954 215.026724  L 262.841698 218.631594  L 279.147725 222.266304  L 295.589291 225.931227  L 312.168092 229.62674  L 328.885854 233.353228  "
           style="fill:none;stroke:#0000ff;stroke-width:1.5;"
           id="path7494" />
        <path
           clip-path="url(#pe6d5ee9a69)"
           d="M 192.673983 196.952078  L 208.240408 200.397634  L 223.932579 203.871023  L 239.752028 207.372585  L 255.700309 210.902663  L 271.779002 214.461607  L 287.989713 218.049772  L 304.334075 221.667521  L 320.813747 225.31522  L 337.430418 228.993243  "
           style="fill:none;stroke:#0000ff;stroke-width:1.5;"
           id="path7496" />
        <path
           clip-path="url(#pe6d5ee9a69)"
           d="M 201.880323 190.962384  L 217.374229 194.359822  L 232.992414 197.784511  L 248.73638 201.236781  L 264.607651 204.716966  L 280.607779 208.225406  L 296.73834 211.762447  L 313.000933 215.328439  L 329.397188 218.92374  L 345.928759 222.548713  "
           style="fill:none;stroke:#0000ff;stroke-width:1.5;"
           id="path7498" />
        <path
           clip-path="url(#pe6d5ee9a69)"
           d="M 210.983447 187.089912  L 226.392724 190.445533  L 241.924635 193.827859  L 257.580649 197.237212  L 273.362259 200.673914  L 289.270984 204.138298  L 305.308365 207.630699  L 321.475969 211.151459  L 337.775389 214.700923  L 354.208244 218.279444  "
           style="fill:none;stroke:#0000ff;stroke-width:1.5;"
           id="path7500" />
        <path
           clip-path="url(#pe6d5ee9a69)"
           d="M 118.553869 119.732973  L 131.708684 168.932473  L 142.880179 184.104087  L 153.546471 194.461403  L 163.70795 197.827297  L 173.594019 199.220317  L 183.287166 200.898417  L 192.673983 196.952078  L 201.880323 190.962384  L 210.983447 187.089912  "
           style="fill:none;stroke:#0000ff;stroke-width:1.5;"
           id="path7502" />
        <path
           clip-path="url(#pe6d5ee9a69)"
           d="M 135.531203 125.685271  L 148.172006 173.252401  L 159.105896 187.885023  L 169.584111 198.101692  L 179.606754 201.376589  L 189.36998 202.73885  L 198.939999 204.387527  L 208.240408 200.397634  L 217.374229 194.359822  L 226.392724 190.445533  "
           style="fill:none;stroke:#0000ff;stroke-width:1.5;"
           id="path7504" />
        <path
           clip-path="url(#pe6d5ee9a69)"
           d="M 152.747937 135.15734  L 164.788864 178.285288  L 175.476156 192.029488  L 185.760128 201.967953  L 195.643677 205.277249  L 205.275745 206.286333  L 214.720293 207.905048  L 223.932579 203.871023  L 232.992414 197.784511  L 241.924635 193.827859  "
           style="fill:none;stroke:#0000ff;stroke-width:1.5;"
           id="path7506" />
        <path
           clip-path="url(#pe6d5ee9a69)"
           d="M 170.110659 147.285014  L 181.526172 183.152386  L 191.976845 196.07458  L 202.065112 205.604619  L 211.806395 208.886795  L 221.312925 209.863125  L 230.62961 211.451329  L 239.752028 207.372585  L 248.73638 201.236781  L 257.580649 197.237212  "
           style="fill:none;stroke:#0000ff;stroke-width:1.5;"
           id="path7508" />
        <path
           clip-path="url(#pe6d5ee9a69)"
           d="M 187.528185 160.282385  L 198.41406 189.281444  L 208.623662 200.88661  L 218.513136 209.796313  L 228.104594 212.526597  L 237.483154 213.469591  L 246.66954 215.026724  L 255.700309 210.902663  L 264.607651 204.716966  L 273.362259 200.673914  "
           style="fill:none;stroke:#0000ff;stroke-width:1.5;"
           id="path7510" />
        <path
           clip-path="url(#pe6d5ee9a69)"
           d="M 204.984019 174.208129  L 215.408468 194.703279  L 225.391497 204.599836  L 235.092821 213.496475  L 244.539986 216.197038  L 253.788094 217.106103  L 262.841698 218.631594  L 271.779002 214.461607  L 280.607779 208.225406  L 289.270984 204.138298  "
           style="fill:none;stroke:#0000ff;stroke-width:1.5;"
           id="path7512" />
        <path
           clip-path="url(#pe6d5ee9a69)"
           d="M 222.429854 185.148349  L 232.532202 201.187601  L 242.30407 209.484302  L 251.810745 218.018458  L 261.11163 220.223776  L 270.224812 221.159169  L 279.147725 222.266304  L 287.989713 218.049772  L 296.73834 211.762447  L 305.308365 207.630699  "
           style="fill:none;stroke:#0000ff;stroke-width:1.5;"
           id="path7514" />
        <path
           clip-path="url(#pe6d5ee9a69)"
           d="M 239.931295 198.068667  L 249.761008 209.894218  L 259.34346 215.010425  L 268.665001 222.246433  L 277.824409 223.957547  L 286.801623 224.857942  L 295.589291 225.931227  L 304.334075 221.667521  L 313.000933 215.328439  L 321.475969 211.151459  "
           style="fill:none;stroke:#0000ff;stroke-width:1.5;"
           id="path7516" />
        <path
           clip-path="url(#pe6d5ee9a69)"
           d="M 257.496362 205.605475  L 267.114305 214.762298  L 276.516966 219.905135  L 285.656863 226.575368  L 294.668115 228.246219  L 303.518258 228.587913  L 312.168092 229.62674  L 320.813747 225.31522  L 329.397188 218.92374  L 337.775389 214.700923  "
           style="fill:none;stroke:#0000ff;stroke-width:1.5;"
           id="path7518" />
        <path
           clip-path="url(#pe6d5ee9a69)"
           d="M 275.177314 212.423534  L 284.594873 220.352553  L 293.849169 223.760805  L 302.801802 230.409444  L 311.663931 232.045473  L 320.376494 232.34948  L 328.885854 233.353228  L 337.430418 228.993243  L 345.928759 222.548713  L 354.208244 218.279444  "
           style="fill:none;stroke:#0000ff;stroke-width:1.5;"
           id="path7520" />
      </g>
    </g>
  </g>
  <defs
     id="defs7528">
    <clipPath
       id="pe6d5ee9a69">
      <rect
         height="266.112"
         width="357.12"
         x="57.6"
         y="41.472"
         id="rect7525" />
    </clipPath>
  </defs>
</svg>
