<?xml version="1.0" encoding="UTF-8" standalone="no"?>
<!-- Created with matplotlib (https://matplotlib.org/) -->

<svg
   xmlns:dc="http://purl.org/dc/elements/1.1/"
   xmlns:cc="http://creativecommons.org/ns#"
   xmlns:rdf="http://www.w3.org/1999/02/22-rdf-syntax-ns#"
   xmlns:svg="http://www.w3.org/2000/svg"
   xmlns="http://www.w3.org/2000/svg"
   xmlns:xlink="http://www.w3.org/1999/xlink"
   xmlns:sodipodi="http://sodipodi.sourceforge.net/DTD/sodipodi-0.dtd"
   xmlns:inkscape="http://www.inkscape.org/namespaces/inkscape"
   height="345.6pt"
   version="1.1"
   viewBox="0 0 460.8 345.6"
   width="460.8pt"
   id="svg9255"
   sodipodi:docname="frequent_programs_leaving.svg"
   inkscape:version="0.92.3 (unknown)">
  <metadata
     id="metadata9259">
    <rdf:RDF>
      <cc:Work
         rdf:about="">
        <dc:format>image/svg+xml</dc:format>
        <dc:type
           rdf:resource="http://purl.org/dc/dcmitype/StillImage" />
      </cc:Work>
    </rdf:RDF>
  </metadata>
  <sodipodi:namedview
     pagecolor="#ffffff"
     bordercolor="#666666"
     borderopacity="1"
     objecttolerance="10"
     gridtolerance="10"
     guidetolerance="10"
     inkscape:pageopacity="0"
     inkscape:pageshadow="2"
     inkscape:window-width="1920"
     inkscape:window-height="1052"
     id="namedview9257"
     showgrid="false"
     inkscape:zoom="1.4485868"
     inkscape:cx="372.25124"
     inkscape:cy="190.97495"
     inkscape:window-x="8"
     inkscape:window-y="0"
     inkscape:window-maximized="1"
     inkscape:current-layer="axis3d_2" />
  <defs
     id="defs8737">
    <style
       type="text/css"
       id="style8735">
*{stroke-linecap:butt;stroke-linejoin:round;}
  </style>
  </defs>
  <g
     id="figure_1">
    <g
       id="patch_1">
      <path
         d="M 0 345.6  L 460.8 345.6  L 460.8 0  L 0 0  z "
         style="fill:#ffffff;"
         id="path8739" />
    </g>
    <g
       id="patch_2">
      <path
         d="M 57.6 307.584  L 414.72 307.584  L 414.72 41.472  L 57.6 41.472  z "
         style="fill:#ffffff;"
         id="path8742" />
    </g>
    <g
       id="pane3d_1">
      <g
         id="patch_3">
        <path
           d="M 104.941774 248.782626  L 207.151387 183.537994  L 205.449705 58.866209  L 97.541237 117.48717  "
           style="fill:#f2f2f2;opacity:0.5;stroke:#f2f2f2;stroke-linejoin:miter;"
           id="path8745" />
      </g>
    </g>
    <g
       id="pane3d_2">
      <g
         id="patch_4">
        <path
           d="M 207.151387 183.537994  L 372.72135 220.013954  L 379.648599 91.582742  L 205.449705 58.866209  "
           style="fill:#e6e6e6;opacity:0.5;stroke:#e6e6e6;stroke-linejoin:miter;"
           id="path8749" />
      </g>
    </g>
    <g
       id="pane3d_3">
      <g
         id="patch_5">
        <path
           d="M 104.941774 248.782626  L 279.143747 291.264825  L 372.72135 220.013954  L 207.151387 183.537994  "
           style="fill:#ececec;opacity:0.5;stroke:#ececec;stroke-linejoin:miter;"
           id="path8753" />
      </g>
    </g>
    <g
       id="axis3d_1">
      <g
         id="line2d_1">
        <path
           d="M 104.941774 248.782626  L 279.143747 291.264825  "
           style="fill:none;stroke:#000000;stroke-linecap:square;stroke-width:0.8;"
           id="path8757" />
      </g>
      <g
         id="text_1">
        <!-- absolute count threshold -->
        <defs
           id="defs8774">
          <path
             d="M 34.28125 27.484375  Q 23.390625 27.484375 19.1875 25  Q 14.984375 22.515625 14.984375 16.5  Q 14.984375 11.71875 18.140625 8.90625  Q 21.296875 6.109375 26.703125 6.109375  Q 34.1875 6.109375 38.703125 11.40625  Q 43.21875 16.703125 43.21875 25.484375  L 43.21875 27.484375  z M 52.203125 31.203125  L 52.203125 0  L 43.21875 0  L 43.21875 8.296875  Q 40.140625 3.328125 35.546875 0.953125  Q 30.953125 -1.421875 24.3125 -1.421875  Q 15.921875 -1.421875 10.953125 3.296875  Q 6 8.015625 6 15.921875  Q 6 25.140625 12.171875 29.828125  Q 18.359375 34.515625 30.609375 34.515625  L 43.21875 34.515625  L 43.21875 35.40625  Q 43.21875 41.609375 39.140625 45  Q 35.0625 48.390625 27.6875 48.390625  Q 23 48.390625 18.546875 47.265625  Q 14.109375 46.140625 10.015625 43.890625  L 10.015625 52.203125  Q 14.9375 54.109375 19.578125 55.046875  Q 24.21875 56 28.609375 56  Q 40.484375 56 46.34375 49.84375  Q 52.203125 43.703125 52.203125 31.203125  z "
             id="DejaVuSans-97" />
          <path
             d="M 48.6875 27.296875  Q 48.6875 37.203125 44.609375 42.84375  Q 40.53125 48.484375 33.40625 48.484375  Q 26.265625 48.484375 22.1875 42.84375  Q 18.109375 37.203125 18.109375 27.296875  Q 18.109375 17.390625 22.1875 11.75  Q 26.265625 6.109375 33.40625 6.109375  Q 40.53125 6.109375 44.609375 11.75  Q 48.6875 17.390625 48.6875 27.296875  z M 18.109375 46.390625  Q 20.953125 51.265625 25.265625 53.625  Q 29.59375 56 35.59375 56  Q 45.5625 56 51.78125 48.09375  Q 58.015625 40.1875 58.015625 27.296875  Q 58.015625 14.40625 51.78125 6.484375  Q 45.5625 -1.421875 35.59375 -1.421875  Q 29.59375 -1.421875 25.265625 0.953125  Q 20.953125 3.328125 18.109375 8.203125  L 18.109375 0  L 9.078125 0  L 9.078125 75.984375  L 18.109375 75.984375  z "
             id="DejaVuSans-98" />
          <path
             d="M 44.28125 53.078125  L 44.28125 44.578125  Q 40.484375 46.53125 36.375 47.5  Q 32.28125 48.484375 27.875 48.484375  Q 21.1875 48.484375 17.84375 46.4375  Q 14.5 44.390625 14.5 40.28125  Q 14.5 37.15625 16.890625 35.375  Q 19.28125 33.59375 26.515625 31.984375  L 29.59375 31.296875  Q 39.15625 29.25 43.1875 25.515625  Q 47.21875 21.78125 47.21875 15.09375  Q 47.21875 7.46875 41.1875 3.015625  Q 35.15625 -1.421875 24.609375 -1.421875  Q 20.21875 -1.421875 15.453125 -0.5625  Q 10.6875 0.296875 5.421875 2  L 5.421875 11.28125  Q 10.40625 8.6875 15.234375 7.390625  Q 20.0625 6.109375 24.8125 6.109375  Q 31.15625 6.109375 34.5625 8.28125  Q 37.984375 10.453125 37.984375 14.40625  Q 37.984375 18.0625 35.515625 20.015625  Q 33.0625 21.96875 24.703125 23.78125  L 21.578125 24.515625  Q 13.234375 26.265625 9.515625 29.90625  Q 5.8125 33.546875 5.8125 39.890625  Q 5.8125 47.609375 11.28125 51.796875  Q 16.75 56 26.8125 56  Q 31.78125 56 36.171875 55.265625  Q 40.578125 54.546875 44.28125 53.078125  z "
             id="DejaVuSans-115" />
          <path
             d="M 30.609375 48.390625  Q 23.390625 48.390625 19.1875 42.75  Q 14.984375 37.109375 14.984375 27.296875  Q 14.984375 17.484375 19.15625 11.84375  Q 23.34375 6.203125 30.609375 6.203125  Q 37.796875 6.203125 41.984375 11.859375  Q 46.1875 17.53125 46.1875 27.296875  Q 46.1875 37.015625 41.984375 42.703125  Q 37.796875 48.390625 30.609375 48.390625  z M 30.609375 56  Q 42.328125 56 49.015625 48.375  Q 55.71875 40.765625 55.71875 27.296875  Q 55.71875 13.875 49.015625 6.21875  Q 42.328125 -1.421875 30.609375 -1.421875  Q 18.84375 -1.421875 12.171875 6.21875  Q 5.515625 13.875 5.515625 27.296875  Q 5.515625 40.765625 12.171875 48.375  Q 18.84375 56 30.609375 56  z "
             id="DejaVuSans-111" />
          <path
             d="M 9.421875 75.984375  L 18.40625 75.984375  L 18.40625 0  L 9.421875 0  z "
             id="DejaVuSans-108" />
          <path
             d="M 8.5 21.578125  L 8.5 54.6875  L 17.484375 54.6875  L 17.484375 21.921875  Q 17.484375 14.15625 20.5 10.265625  Q 23.53125 6.390625 29.59375 6.390625  Q 36.859375 6.390625 41.078125 11.03125  Q 45.3125 15.671875 45.3125 23.6875  L 45.3125 54.6875  L 54.296875 54.6875  L 54.296875 0  L 45.3125 0  L 45.3125 8.40625  Q 42.046875 3.421875 37.71875 1  Q 33.40625 -1.421875 27.6875 -1.421875  Q 18.265625 -1.421875 13.375 4.4375  Q 8.5 10.296875 8.5 21.578125  z M 31.109375 56  z "
             id="DejaVuSans-117" />
          <path
             d="M 18.3125 70.21875  L 18.3125 54.6875  L 36.8125 54.6875  L 36.8125 47.703125  L 18.3125 47.703125  L 18.3125 18.015625  Q 18.3125 11.328125 20.140625 9.421875  Q 21.96875 7.515625 27.59375 7.515625  L 36.8125 7.515625  L 36.8125 0  L 27.59375 0  Q 17.1875 0 13.234375 3.875  Q 9.28125 7.765625 9.28125 18.015625  L 9.28125 47.703125  L 2.6875 47.703125  L 2.6875 54.6875  L 9.28125 54.6875  L 9.28125 70.21875  z "
             id="DejaVuSans-116" />
          <path
             d="M 56.203125 29.59375  L 56.203125 25.203125  L 14.890625 25.203125  Q 15.484375 15.921875 20.484375 11.0625  Q 25.484375 6.203125 34.421875 6.203125  Q 39.59375 6.203125 44.453125 7.46875  Q 49.3125 8.734375 54.109375 11.28125  L 54.109375 2.78125  Q 49.265625 0.734375 44.1875 -0.34375  Q 39.109375 -1.421875 33.890625 -1.421875  Q 20.796875 -1.421875 13.15625 6.1875  Q 5.515625 13.8125 5.515625 26.8125  Q 5.515625 40.234375 12.765625 48.109375  Q 20.015625 56 32.328125 56  Q 43.359375 56 49.78125 48.890625  Q 56.203125 41.796875 56.203125 29.59375  z M 47.21875 32.234375  Q 47.125 39.59375 43.09375 43.984375  Q 39.0625 48.390625 32.421875 48.390625  Q 24.90625 48.390625 20.390625 44.140625  Q 15.875 39.890625 15.1875 32.171875  z "
             id="DejaVuSans-101" />
          <path
             id="DejaVuSans-32" />
          <path
             d="M 48.78125 52.59375  L 48.78125 44.1875  Q 44.96875 46.296875 41.140625 47.34375  Q 37.3125 48.390625 33.40625 48.390625  Q 24.65625 48.390625 19.8125 42.84375  Q 14.984375 37.3125 14.984375 27.296875  Q 14.984375 17.28125 19.8125 11.734375  Q 24.65625 6.203125 33.40625 6.203125  Q 37.3125 6.203125 41.140625 7.25  Q 44.96875 8.296875 48.78125 10.40625  L 48.78125 2.09375  Q 45.015625 0.34375 40.984375 -0.53125  Q 36.96875 -1.421875 32.421875 -1.421875  Q 20.0625 -1.421875 12.78125 6.34375  Q 5.515625 14.109375 5.515625 27.296875  Q 5.515625 40.671875 12.859375 48.328125  Q 20.21875 56 33.015625 56  Q 37.15625 56 41.109375 55.140625  Q 45.0625 54.296875 48.78125 52.59375  z "
             id="DejaVuSans-99" />
          <path
             d="M 54.890625 33.015625  L 54.890625 0  L 45.90625 0  L 45.90625 32.71875  Q 45.90625 40.484375 42.875 44.328125  Q 39.84375 48.1875 33.796875 48.1875  Q 26.515625 48.1875 22.3125 43.546875  Q 18.109375 38.921875 18.109375 30.90625  L 18.109375 0  L 9.078125 0  L 9.078125 54.6875  L 18.109375 54.6875  L 18.109375 46.1875  Q 21.34375 51.125 25.703125 53.5625  Q 30.078125 56 35.796875 56  Q 45.21875 56 50.046875 50.171875  Q 54.890625 44.34375 54.890625 33.015625  z "
             id="DejaVuSans-110" />
          <path
             d="M 54.890625 33.015625  L 54.890625 0  L 45.90625 0  L 45.90625 32.71875  Q 45.90625 40.484375 42.875 44.328125  Q 39.84375 48.1875 33.796875 48.1875  Q 26.515625 48.1875 22.3125 43.546875  Q 18.109375 38.921875 18.109375 30.90625  L 18.109375 0  L 9.078125 0  L 9.078125 75.984375  L 18.109375 75.984375  L 18.109375 46.1875  Q 21.34375 51.125 25.703125 53.5625  Q 30.078125 56 35.796875 56  Q 45.21875 56 50.046875 50.171875  Q 54.890625 44.34375 54.890625 33.015625  z "
             id="DejaVuSans-104" />
          <path
             d="M 41.109375 46.296875  Q 39.59375 47.171875 37.8125 47.578125  Q 36.03125 48 33.890625 48  Q 26.265625 48 22.1875 43.046875  Q 18.109375 38.09375 18.109375 28.8125  L 18.109375 0  L 9.078125 0  L 9.078125 54.6875  L 18.109375 54.6875  L 18.109375 46.1875  Q 20.953125 51.171875 25.484375 53.578125  Q 30.03125 56 36.53125 56  Q 37.453125 56 38.578125 55.875  Q 39.703125 55.765625 41.0625 55.515625  z "
             id="DejaVuSans-114" />
          <path
             d="M 45.40625 46.390625  L 45.40625 75.984375  L 54.390625 75.984375  L 54.390625 0  L 45.40625 0  L 45.40625 8.203125  Q 42.578125 3.328125 38.25 0.953125  Q 33.9375 -1.421875 27.875 -1.421875  Q 17.96875 -1.421875 11.734375 6.484375  Q 5.515625 14.40625 5.515625 27.296875  Q 5.515625 40.1875 11.734375 48.09375  Q 17.96875 56 27.875 56  Q 33.9375 56 38.25 53.625  Q 42.578125 51.265625 45.40625 46.390625  z M 14.796875 27.296875  Q 14.796875 17.390625 18.875 11.75  Q 22.953125 6.109375 30.078125 6.109375  Q 37.203125 6.109375 41.296875 11.75  Q 45.40625 17.390625 45.40625 27.296875  Q 45.40625 37.203125 41.296875 42.84375  Q 37.203125 48.484375 30.078125 48.484375  Q 22.953125 48.484375 18.875 42.84375  Q 14.796875 37.203125 14.796875 27.296875  z "
             id="DejaVuSans-100" />
        </defs>
        <g
           transform="translate(112.776654 288.330612)rotate(-346.294929)scale(0.1 -0.1)"
           id="g8824">
          <use
             xlink:href="#DejaVuSans-97"
             id="use8776" />
          <use
             x="61.279297"
             xlink:href="#DejaVuSans-98"
             id="use8778" />
          <use
             x="124.755859"
             xlink:href="#DejaVuSans-115"
             id="use8780" />
          <use
             x="176.855469"
             xlink:href="#DejaVuSans-111"
             id="use8782" />
          <use
             x="238.037109"
             xlink:href="#DejaVuSans-108"
             id="use8784" />
          <use
             x="265.820312"
             xlink:href="#DejaVuSans-117"
             id="use8786" />
          <use
             x="329.199219"
             xlink:href="#DejaVuSans-116"
             id="use8788" />
          <use
             x="368.408203"
             xlink:href="#DejaVuSans-101"
             id="use8790" />
          <use
             x="429.931641"
             xlink:href="#DejaVuSans-32"
             id="use8792" />
          <use
             x="461.71875"
             xlink:href="#DejaVuSans-99"
             id="use8794" />
          <use
             x="516.699219"
             xlink:href="#DejaVuSans-111"
             id="use8796" />
          <use
             x="577.880859"
             xlink:href="#DejaVuSans-117"
             id="use8798" />
          <use
             x="641.259766"
             xlink:href="#DejaVuSans-110"
             id="use8800" />
          <use
             x="704.638672"
             xlink:href="#DejaVuSans-116"
             id="use8802" />
          <use
             x="743.847656"
             xlink:href="#DejaVuSans-32"
             id="use8804" />
          <use
             x="775.634766"
             xlink:href="#DejaVuSans-116"
             id="use8806" />
          <use
             x="814.84375"
             xlink:href="#DejaVuSans-104"
             id="use8808" />
          <use
             x="878.222656"
             xlink:href="#DejaVuSans-114"
             id="use8810" />
          <use
             x="919.304688"
             xlink:href="#DejaVuSans-101"
             id="use8812" />
          <use
             x="980.828125"
             xlink:href="#DejaVuSans-115"
             id="use8814" />
          <use
             x="1032.927734"
             xlink:href="#DejaVuSans-104"
             id="use8816" />
          <use
             x="1096.306641"
             xlink:href="#DejaVuSans-111"
             id="use8818" />
          <use
             x="1157.488281"
             xlink:href="#DejaVuSans-108"
             id="use8820" />
          <use
             x="1185.271484"
             xlink:href="#DejaVuSans-100"
             id="use8822" />
        </g>
      </g>
      <g
         id="Line3DCollection_1">
        <path
           d="M 131.862806 255.347791  L 232.81107 189.190961  L 232.397025 63.927222  "
           style="fill:none;stroke:#b0b0b0;stroke-width:0.8;"
           id="path8827" />
        <path
           d="M 164.894475 263.403141  L 264.258726 196.11905  L 265.44757 70.13449  "
           style="fill:none;stroke:#b0b0b0;stroke-width:0.8;"
           id="path8829" />
        <path
           d="M 198.512972 271.6016  L 296.224006 203.161174  L 299.070153 76.449194  "
           style="fill:none;stroke:#b0b0b0;stroke-width:0.8;"
           id="path8831" />
        <path
           d="M 232.734077 279.947015  L 328.719796 210.320173  L 333.279754 82.874146  "
           style="fill:none;stroke:#b0b0b0;stroke-width:0.8;"
           id="path8833" />
        <path
           d="M 267.574137 288.443373  L 361.759413 217.59898  L 368.091882 89.412259  "
           style="fill:none;stroke:#b0b0b0;stroke-width:0.8;"
           id="path8835" />
      </g>
      <g
         id="xtick_1">
        <g
           id="line2d_2">
          <path
             d="M 132.732798 254.777638  L 130.119563 256.490232  "
             style="fill:none;stroke:#000000;stroke-linecap:square;stroke-width:0.8;"
             id="path8838" />
        </g>
        <g
           id="text_2">
          <!-- 10 -->
          <defs
             id="defs8843">
            <path
               d="M 12.40625 8.296875  L 28.515625 8.296875  L 28.515625 63.921875  L 10.984375 60.40625  L 10.984375 69.390625  L 28.421875 72.90625  L 38.28125 72.90625  L 38.28125 8.296875  L 54.390625 8.296875  L 54.390625 0  L 12.40625 0  z "
               id="DejaVuSans-49" />
            <path
               d="M 31.78125 66.40625  Q 24.171875 66.40625 20.328125 58.90625  Q 16.5 51.421875 16.5 36.375  Q 16.5 21.390625 20.328125 13.890625  Q 24.171875 6.390625 31.78125 6.390625  Q 39.453125 6.390625 43.28125 13.890625  Q 47.125 21.390625 47.125 36.375  Q 47.125 51.421875 43.28125 58.90625  Q 39.453125 66.40625 31.78125 66.40625  z M 31.78125 74.21875  Q 44.046875 74.21875 50.515625 64.515625  Q 56.984375 54.828125 56.984375 36.375  Q 56.984375 17.96875 50.515625 8.265625  Q 44.046875 -1.421875 31.78125 -1.421875  Q 19.53125 -1.421875 13.0625 8.265625  Q 6.59375 17.96875 6.59375 36.375  Q 6.59375 54.828125 13.0625 64.515625  Q 19.53125 74.21875 31.78125 74.21875  z "
               id="DejaVuSans-48" />
          </defs>
          <g
             transform="translate(118.178245 276.887681)scale(0.1 -0.1)"
             id="g8849">
            <use
               xlink:href="#DejaVuSans-49"
               id="use8845" />
            <use
               x="63.623047"
               xlink:href="#DejaVuSans-48"
               id="use8847" />
          </g>
        </g>
      </g>
      <g
         id="xtick_2">
        <g
           id="line2d_3">
          <path
             d="M 165.751356 262.822908  L 163.177474 264.565801  "
             style="fill:none;stroke:#000000;stroke-linecap:square;stroke-width:0.8;"
             id="path8853" />
        </g>
        <g
           id="text_3">
          <!-- 20 -->
          <defs
             id="defs8857">
            <path
               d="M 19.1875 8.296875  L 53.609375 8.296875  L 53.609375 0  L 7.328125 0  L 7.328125 8.296875  Q 12.9375 14.109375 22.625 23.890625  Q 32.328125 33.6875 34.8125 36.53125  Q 39.546875 41.84375 41.421875 45.53125  Q 43.3125 49.21875 43.3125 52.78125  Q 43.3125 58.59375 39.234375 62.25  Q 35.15625 65.921875 28.609375 65.921875  Q 23.96875 65.921875 18.8125 64.3125  Q 13.671875 62.703125 7.8125 59.421875  L 7.8125 69.390625  Q 13.765625 71.78125 18.9375 73  Q 24.125 74.21875 28.421875 74.21875  Q 39.75 74.21875 46.484375 68.546875  Q 53.21875 62.890625 53.21875 53.421875  Q 53.21875 48.921875 51.53125 44.890625  Q 49.859375 40.875 45.40625 35.40625  Q 44.1875 33.984375 37.640625 27.21875  Q 31.109375 20.453125 19.1875 8.296875  z "
               id="DejaVuSans-50" />
          </defs>
          <g
             transform="translate(151.206787 285.080998)scale(0.1 -0.1)"
             id="g8863">
            <use
               xlink:href="#DejaVuSans-50"
               id="use8859" />
            <use
               x="63.623047"
               xlink:href="#DejaVuSans-48"
               id="use8861" />
          </g>
        </g>
      </g>
      <g
         id="xtick_3">
        <g
           id="line2d_4">
          <path
             d="M 199.356138 271.011016  L 196.823426 272.785021  "
             style="fill:none;stroke:#000000;stroke-linecap:square;stroke-width:0.8;"
             id="path8867" />
        </g>
        <g
           id="text_4">
          <!-- 30 -->
          <defs
             id="defs8871">
            <path
               d="M 40.578125 39.3125  Q 47.65625 37.796875 51.625 33  Q 55.609375 28.21875 55.609375 21.1875  Q 55.609375 10.40625 48.1875 4.484375  Q 40.765625 -1.421875 27.09375 -1.421875  Q 22.515625 -1.421875 17.65625 -0.515625  Q 12.796875 0.390625 7.625 2.203125  L 7.625 11.71875  Q 11.71875 9.328125 16.59375 8.109375  Q 21.484375 6.890625 26.8125 6.890625  Q 36.078125 6.890625 40.9375 10.546875  Q 45.796875 14.203125 45.796875 21.1875  Q 45.796875 27.640625 41.28125 31.265625  Q 36.765625 34.90625 28.71875 34.90625  L 20.21875 34.90625  L 20.21875 43.015625  L 29.109375 43.015625  Q 36.375 43.015625 40.234375 45.921875  Q 44.09375 48.828125 44.09375 54.296875  Q 44.09375 59.90625 40.109375 62.90625  Q 36.140625 65.921875 28.71875 65.921875  Q 24.65625 65.921875 20.015625 65.03125  Q 15.375 64.15625 9.8125 62.3125  L 9.8125 71.09375  Q 15.4375 72.65625 20.34375 73.4375  Q 25.25 74.21875 29.59375 74.21875  Q 40.828125 74.21875 47.359375 69.109375  Q 53.90625 64.015625 53.90625 55.328125  Q 53.90625 49.265625 50.4375 45.09375  Q 46.96875 40.921875 40.578125 39.3125  z "
               id="DejaVuSans-51" />
          </defs>
          <g
             transform="translate(184.823204 293.420146)scale(0.1 -0.1)"
             id="g8877">
            <use
               xlink:href="#DejaVuSans-51"
               id="use8873" />
            <use
               x="63.623047"
               xlink:href="#DejaVuSans-48"
               id="use8875" />
          </g>
        </g>
      </g>
      <g
         id="xtick_4">
        <g
           id="line2d_5">
          <path
             d="M 233.562895 279.3458  L 231.073251 281.151757  "
             style="fill:none;stroke:#000000;stroke-linecap:square;stroke-width:0.8;"
             id="path8881" />
        </g>
        <g
           id="text_5">
          <!-- 40 -->
          <defs
             id="defs8885">
            <path
               d="M 37.796875 64.3125  L 12.890625 25.390625  L 37.796875 25.390625  z M 35.203125 72.90625  L 47.609375 72.90625  L 47.609375 25.390625  L 58.015625 25.390625  L 58.015625 17.1875  L 47.609375 17.1875  L 47.609375 0  L 37.796875 0  L 37.796875 17.1875  L 4.890625 17.1875  L 4.890625 26.703125  z "
               id="DejaVuSans-52" />
          </defs>
          <g
             transform="translate(219.043332 301.909056)scale(0.1 -0.1)"
             id="g8891">
            <use
               xlink:href="#DejaVuSans-52"
               id="use8887" />
            <use
               x="63.623047"
               xlink:href="#DejaVuSans-48"
               id="use8889" />
          </g>
        </g>
      </g>
      <g
         id="xtick_5">
        <g
           id="line2d_6">
          <path
             d="M 268.387949 287.831239  L 265.943353 289.670018  "
             style="fill:none;stroke:#000000;stroke-linecap:square;stroke-width:0.8;"
             id="path8895" />
        </g>
        <g
           id="text_6">
          <!-- 50 -->
          <defs
             id="defs8899">
            <path
               d="M 10.796875 72.90625  L 49.515625 72.90625  L 49.515625 64.59375  L 19.828125 64.59375  L 19.828125 46.734375  Q 21.96875 47.46875 24.109375 47.828125  Q 26.265625 48.1875 28.421875 48.1875  Q 40.625 48.1875 47.75 41.5  Q 54.890625 34.8125 54.890625 23.390625  Q 54.890625 11.625 47.5625 5.09375  Q 40.234375 -1.421875 26.90625 -1.421875  Q 22.3125 -1.421875 17.546875 -0.640625  Q 12.796875 0.140625 7.71875 1.703125  L 7.71875 11.625  Q 12.109375 9.234375 16.796875 8.0625  Q 21.484375 6.890625 26.703125 6.890625  Q 35.15625 6.890625 40.078125 11.328125  Q 45.015625 15.765625 45.015625 23.390625  Q 45.015625 31 40.078125 35.4375  Q 35.15625 39.890625 26.703125 39.890625  Q 22.75 39.890625 18.8125 39.015625  Q 14.890625 38.140625 10.796875 36.28125  z "
               id="DejaVuSans-53" />
          </defs>
          <g
             transform="translate(253.88358 310.551799)scale(0.1 -0.1)"
             id="g8905">
            <use
               xlink:href="#DejaVuSans-53"
               id="use8901" />
            <use
               x="63.623047"
               xlink:href="#DejaVuSans-48"
               id="use8903" />
          </g>
        </g>
      </g>
    </g>
    <g
       id="axis3d_2">
      <g
         id="line2d_7">
        <path
           d="M 372.72135 220.013954  L 279.143747 291.264825  "
           style="fill:none;stroke:#000000;stroke-linecap:square;stroke-width:0.8;"
           id="path8910" />
      </g>
      <g
         id="text_7"
         transform="rotate(-4.0909192,354.36895,278.96966)"
         style="stroke-linecap:butt;stroke-linejoin:round">
        <!-- relative count threshold -->
        <defs
           id="defs8915">
          <path
             d="M 9.421875,54.6875 H 18.40625 V 0 H 9.421875 Z m 0,21.296875 H 18.40625 V 64.59375 H 9.421875 Z"
             id="DejaVuSans-105"
             inkscape:connector-curvature="0"
             style="stroke-linecap:butt;stroke-linejoin:round" />
          <path
             d="M 2.984375,54.6875 H 12.5 L 29.59375,8.796875 46.6875,54.6875 h 9.515625 L 35.6875,0 H 23.484375 Z"
             id="DejaVuSans-118"
             inkscape:connector-curvature="0"
             style="stroke-linecap:butt;stroke-linejoin:round" />
        </defs>
        <g
           transform="matrix(0.07956217,-0.06057938,-0.06057938,-0.07956217,308.37021,318.29241)"
           id="g8965"
           style="stroke-linecap:butt;stroke-linejoin:round">
          <use
             xlink:href="#DejaVuSans-114"
             id="use8917"
             style="stroke-linecap:butt;stroke-linejoin:round"
             x="0"
             y="0"
             width="100%"
             height="100%" />
          <use
             x="41.082031"
             xlink:href="#DejaVuSans-101"
             id="use8919"
             style="stroke-linecap:butt;stroke-linejoin:round"
             y="0"
             width="100%"
             height="100%" />
          <use
             x="102.60547"
             xlink:href="#DejaVuSans-108"
             id="use8921"
             style="stroke-linecap:butt;stroke-linejoin:round"
             y="0"
             width="100%"
             height="100%" />
          <use
             x="130.38867"
             xlink:href="#DejaVuSans-97"
             id="use8923"
             style="stroke-linecap:butt;stroke-linejoin:round"
             y="0"
             width="100%"
             height="100%" />
          <use
             x="191.66797"
             xlink:href="#DejaVuSans-116"
             id="use8925"
             style="stroke-linecap:butt;stroke-linejoin:round"
             y="0"
             width="100%"
             height="100%" />
          <use
             x="230.87695"
             xlink:href="#DejaVuSans-105"
             id="use8927"
             style="stroke-linecap:butt;stroke-linejoin:round"
             y="0"
             width="100%"
             height="100%" />
          <use
             x="258.66016"
             xlink:href="#DejaVuSans-118"
             id="use8929"
             style="stroke-linecap:butt;stroke-linejoin:round"
             y="0"
             width="100%"
             height="100%" />
          <use
             x="317.83984"
             xlink:href="#DejaVuSans-101"
             id="use8931"
             style="stroke-linecap:butt;stroke-linejoin:round"
             y="0"
             width="100%"
             height="100%" />
          <use
             x="379.36328"
             xlink:href="#DejaVuSans-32"
             id="use8933"
             style="stroke-linecap:butt;stroke-linejoin:round"
             y="0"
             width="100%"
             height="100%" />
          <use
             x="411.15039"
             xlink:href="#DejaVuSans-99"
             id="use8935"
             style="stroke-linecap:butt;stroke-linejoin:round"
             y="0"
             width="100%"
             height="100%" />
          <use
             x="466.13086"
             xlink:href="#DejaVuSans-111"
             id="use8937"
             style="stroke-linecap:butt;stroke-linejoin:round"
             y="0"
             width="100%"
             height="100%" />
          <use
             x="527.3125"
             xlink:href="#DejaVuSans-117"
             id="use8939"
             style="stroke-linecap:butt;stroke-linejoin:round"
             y="0"
             width="100%"
             height="100%" />
          <use
             x="590.69141"
             xlink:href="#DejaVuSans-110"
             id="use8941"
             style="stroke-linecap:butt;stroke-linejoin:round"
             y="0"
             width="100%"
             height="100%" />
          <use
             x="654.07031"
             xlink:href="#DejaVuSans-116"
             id="use8943"
             style="stroke-linecap:butt;stroke-linejoin:round"
             y="0"
             width="100%"
             height="100%" />
          <use
             x="693.2793"
             xlink:href="#DejaVuSans-32"
             id="use8945"
             style="stroke-linecap:butt;stroke-linejoin:round"
             y="0"
             width="100%"
             height="100%" />
          <use
             x="725.06641"
             xlink:href="#DejaVuSans-116"
             id="use8947"
             style="stroke-linecap:butt;stroke-linejoin:round"
             y="0"
             width="100%"
             height="100%" />
          <use
             x="764.27539"
             xlink:href="#DejaVuSans-104"
             id="use8949"
             style="stroke-linecap:butt;stroke-linejoin:round"
             y="0"
             width="100%"
             height="100%" />
          <use
             x="827.6543"
             xlink:href="#DejaVuSans-114"
             id="use8951"
             style="stroke-linecap:butt;stroke-linejoin:round"
             y="0"
             width="100%"
             height="100%" />
          <use
             x="868.73633"
             xlink:href="#DejaVuSans-101"
             id="use8953"
             style="stroke-linecap:butt;stroke-linejoin:round"
             y="0"
             width="100%"
             height="100%" />
          <use
             x="930.25977"
             xlink:href="#DejaVuSans-115"
             id="use8955"
             style="stroke-linecap:butt;stroke-linejoin:round"
             y="0"
             width="100%"
             height="100%" />
          <use
             x="982.35938"
             xlink:href="#DejaVuSans-104"
             id="use8957"
             style="stroke-linecap:butt;stroke-linejoin:round"
             y="0"
             width="100%"
             height="100%" />
          <use
             x="1045.7383"
             xlink:href="#DejaVuSans-111"
             id="use8959"
             style="stroke-linecap:butt;stroke-linejoin:round"
             y="0"
             width="100%"
             height="100%" />
          <use
             x="1106.9199"
             xlink:href="#DejaVuSans-108"
             id="use8961"
             style="stroke-linecap:butt;stroke-linejoin:round"
             y="0"
             width="100%"
             height="100%" />
          <use
             x="1134.7031"
             xlink:href="#DejaVuSans-100"
             id="use8963"
             style="stroke-linecap:butt;stroke-linejoin:round"
             y="0"
             width="100%"
             height="100%" />
        </g>
      </g>
      <g
         id="Line3DCollection_2">
        <path
           d="M 116.043656 107.435785  L 122.410492 237.63162  L 295.181681 279.05339  "
           style="fill:none;stroke:#b0b0b0;stroke-width:0.8;"
           id="path8968" />
        <path
           d="M 137.758006 95.639527  L 142.941477 224.525841  L 314.007554 264.719193  "
           style="fill:none;stroke:#b0b0b0;stroke-width:0.8;"
           id="path8970" />
        <path
           d="M 158.814542 84.200625  L 162.881278 211.797439  L 332.267067 250.816227  "
           style="fill:none;stroke:#b0b0b0;stroke-width:0.8;"
           id="path8972" />
        <path
           d="M 179.24271 73.103083  L 182.255068 199.430346  L 349.985398 237.325322  "
           style="fill:none;stroke:#b0b0b0;stroke-width:0.8;"
           id="path8974" />
        <path
           d="M 199.070224 62.331844  L 201.086609 187.409393  L 367.186258 224.228425  "
           style="fill:none;stroke:#b0b0b0;stroke-width:0.8;"
           id="path8976" />
      </g>
      <g
         id="xtick_6">
        <g
           id="line2d_8">
          <path
             d="M 293.736233 278.706845  L 298.075784 279.747249  "
             style="fill:none;stroke:#000000;stroke-linecap:square;stroke-width:0.8;"
             id="path8979" />
        </g>
        <g
           id="text_8">
          <!-- 0.1 -->
          <defs
             id="defs8983">
            <path
               d="M 10.6875 12.40625  L 21 12.40625  L 21 0  L 10.6875 0  z "
               id="DejaVuSans-46" />
          </defs>
          <g
             transform="translate(299.826169 298.719081)scale(0.1 -0.1)"
             id="g8991">
            <use
               xlink:href="#DejaVuSans-48"
               id="use8985" />
            <use
               x="63.623047"
               xlink:href="#DejaVuSans-46"
               id="use8987" />
            <use
               x="95.410156"
               xlink:href="#DejaVuSans-49"
               id="use8989" />
          </g>
        </g>
      </g>
      <g
         id="xtick_7">
        <g
           id="line2d_9">
          <path
             d="M 312.577327 264.38315  L 316.87113 265.392013  "
             style="fill:none;stroke:#000000;stroke-linecap:square;stroke-width:0.8;"
             id="path8995" />
        </g>
        <g
           id="text_9">
          <!-- 0.2 -->
          <g
             transform="translate(318.450396 284.207827)scale(0.1 -0.1)"
             id="g9004">
            <use
               xlink:href="#DejaVuSans-48"
               id="use8998" />
            <use
               x="63.623047"
               xlink:href="#DejaVuSans-46"
               id="use9000" />
            <use
               x="95.410156"
               xlink:href="#DejaVuSans-50"
               id="use9002" />
          </g>
        </g>
      </g>
      <g
         id="xtick_8">
        <g
           id="line2d_10">
          <path
             d="M 330.851807 250.490216  L 335.10063 251.468952  "
             style="fill:none;stroke:#000000;stroke-linecap:square;stroke-width:0.8;"
             id="path9008" />
        </g>
        <g
           id="text_10">
          <!-- 0.3 -->
          <g
             transform="translate(336.514604 270.132917)scale(0.1 -0.1)"
             id="g9017">
            <use
               xlink:href="#DejaVuSans-48"
               id="use9011" />
            <use
               x="63.623047"
               xlink:href="#DejaVuSans-46"
               id="use9013" />
            <use
               x="95.410156"
               xlink:href="#DejaVuSans-51"
               id="use9015" />
          </g>
        </g>
      </g>
      <g
         id="xtick_9">
        <g
           id="line2d_11">
          <path
             d="M 348.584853 237.0089  L 352.789457 237.958837  "
             style="fill:none;stroke:#000000;stroke-linecap:square;stroke-width:0.8;"
             id="path9021" />
        </g>
        <g
           id="text_11">
          <!-- 0.4 -->
          <g
             transform="translate(354.043679 256.474962)scale(0.1 -0.1)"
             id="g9030">
            <use
               xlink:href="#DejaVuSans-48"
               id="use9024" />
            <use
               x="63.623047"
               xlink:href="#DejaVuSans-46"
               id="use9026" />
            <use
               x="95.410156"
               xlink:href="#DejaVuSans-52"
               id="use9028" />
          </g>
        </g>
      </g>
      <g
         id="xtick_10">
        <g
           id="line2d_12">
          <path
             d="M 365.800177 223.921175  L 369.961313 224.843567  "
             style="fill:none;stroke:#000000;stroke-linecap:square;stroke-width:0.8;"
             id="path9034" />
        </g>
        <g
           id="text_12">
          <!-- 0.5 -->
          <g
             transform="translate(371.061053 243.215704)scale(0.1 -0.1)"
             id="g9043">
            <use
               xlink:href="#DejaVuSans-48"
               id="use9037" />
            <use
               x="63.623047"
               xlink:href="#DejaVuSans-46"
               id="use9039" />
            <use
               x="95.410156"
               xlink:href="#DejaVuSans-53"
               id="use9041" />
          </g>
        </g>
      </g>
    </g>
    <g
       id="axis3d_3">
      <g
         id="line2d_13">
        <path
           d="M 372.72135 220.013954  L 379.648599 91.582742  "
           style="fill:none;stroke:#000000;stroke-linecap:square;stroke-width:0.8;"
           id="path9048" />
      </g>
      <g
         id="text_13">
        <!-- frequent wrong programs ratio -->
        <defs
           id="defs9057">
          <path
             d="M 37.109375 75.984375  L 37.109375 68.5  L 28.515625 68.5  Q 23.6875 68.5 21.796875 66.546875  Q 19.921875 64.59375 19.921875 59.515625  L 19.921875 54.6875  L 34.71875 54.6875  L 34.71875 47.703125  L 19.921875 47.703125  L 19.921875 0  L 10.890625 0  L 10.890625 47.703125  L 2.296875 47.703125  L 2.296875 54.6875  L 10.890625 54.6875  L 10.890625 58.5  Q 10.890625 67.625 15.140625 71.796875  Q 19.390625 75.984375 28.609375 75.984375  z "
             id="DejaVuSans-102" />
          <path
             d="M 14.796875 27.296875  Q 14.796875 17.390625 18.875 11.75  Q 22.953125 6.109375 30.078125 6.109375  Q 37.203125 6.109375 41.296875 11.75  Q 45.40625 17.390625 45.40625 27.296875  Q 45.40625 37.203125 41.296875 42.84375  Q 37.203125 48.484375 30.078125 48.484375  Q 22.953125 48.484375 18.875 42.84375  Q 14.796875 37.203125 14.796875 27.296875  z M 45.40625 8.203125  Q 42.578125 3.328125 38.25 0.953125  Q 33.9375 -1.421875 27.875 -1.421875  Q 17.96875 -1.421875 11.734375 6.484375  Q 5.515625 14.40625 5.515625 27.296875  Q 5.515625 40.1875 11.734375 48.09375  Q 17.96875 56 27.875 56  Q 33.9375 56 38.25 53.625  Q 42.578125 51.265625 45.40625 46.390625  L 45.40625 54.6875  L 54.390625 54.6875  L 54.390625 -20.796875  L 45.40625 -20.796875  z "
             id="DejaVuSans-113" />
          <path
             d="M 4.203125 54.6875  L 13.1875 54.6875  L 24.421875 12.015625  L 35.59375 54.6875  L 46.1875 54.6875  L 57.421875 12.015625  L 68.609375 54.6875  L 77.59375 54.6875  L 63.28125 0  L 52.6875 0  L 40.921875 44.828125  L 29.109375 0  L 18.5 0  z "
             id="DejaVuSans-119" />
          <path
             d="M 45.40625 27.984375  Q 45.40625 37.75 41.375 43.109375  Q 37.359375 48.484375 30.078125 48.484375  Q 22.859375 48.484375 18.828125 43.109375  Q 14.796875 37.75 14.796875 27.984375  Q 14.796875 18.265625 18.828125 12.890625  Q 22.859375 7.515625 30.078125 7.515625  Q 37.359375 7.515625 41.375 12.890625  Q 45.40625 18.265625 45.40625 27.984375  z M 54.390625 6.78125  Q 54.390625 -7.171875 48.1875 -13.984375  Q 42 -20.796875 29.203125 -20.796875  Q 24.46875 -20.796875 20.265625 -20.09375  Q 16.0625 -19.390625 12.109375 -17.921875  L 12.109375 -9.1875  Q 16.0625 -11.328125 19.921875 -12.34375  Q 23.78125 -13.375 27.78125 -13.375  Q 36.625 -13.375 41.015625 -8.765625  Q 45.40625 -4.15625 45.40625 5.171875  L 45.40625 9.625  Q 42.625 4.78125 38.28125 2.390625  Q 33.9375 0 27.875 0  Q 17.828125 0 11.671875 7.65625  Q 5.515625 15.328125 5.515625 27.984375  Q 5.515625 40.671875 11.671875 48.328125  Q 17.828125 56 27.875 56  Q 33.9375 56 38.28125 53.609375  Q 42.625 51.21875 45.40625 46.390625  L 45.40625 54.6875  L 54.390625 54.6875  z "
             id="DejaVuSans-103" />
          <path
             d="M 18.109375 8.203125  L 18.109375 -20.796875  L 9.078125 -20.796875  L 9.078125 54.6875  L 18.109375 54.6875  L 18.109375 46.390625  Q 20.953125 51.265625 25.265625 53.625  Q 29.59375 56 35.59375 56  Q 45.5625 56 51.78125 48.09375  Q 58.015625 40.1875 58.015625 27.296875  Q 58.015625 14.40625 51.78125 6.484375  Q 45.5625 -1.421875 35.59375 -1.421875  Q 29.59375 -1.421875 25.265625 0.953125  Q 20.953125 3.328125 18.109375 8.203125  z M 48.6875 27.296875  Q 48.6875 37.203125 44.609375 42.84375  Q 40.53125 48.484375 33.40625 48.484375  Q 26.265625 48.484375 22.1875 42.84375  Q 18.109375 37.203125 18.109375 27.296875  Q 18.109375 17.390625 22.1875 11.75  Q 26.265625 6.109375 33.40625 6.109375  Q 40.53125 6.109375 44.609375 11.75  Q 48.6875 17.390625 48.6875 27.296875  z "
             id="DejaVuSans-112" />
          <path
             d="M 52 44.1875  Q 55.375 50.25 60.0625 53.125  Q 64.75 56 71.09375 56  Q 79.640625 56 84.28125 50.015625  Q 88.921875 44.046875 88.921875 33.015625  L 88.921875 0  L 79.890625 0  L 79.890625 32.71875  Q 79.890625 40.578125 77.09375 44.375  Q 74.3125 48.1875 68.609375 48.1875  Q 61.625 48.1875 57.5625 43.546875  Q 53.515625 38.921875 53.515625 30.90625  L 53.515625 0  L 44.484375 0  L 44.484375 32.71875  Q 44.484375 40.625 41.703125 44.40625  Q 38.921875 48.1875 33.109375 48.1875  Q 26.21875 48.1875 22.15625 43.53125  Q 18.109375 38.875 18.109375 30.90625  L 18.109375 0  L 9.078125 0  L 9.078125 54.6875  L 18.109375 54.6875  L 18.109375 46.1875  Q 21.1875 51.21875 25.484375 53.609375  Q 29.78125 56 35.6875 56  Q 41.65625 56 45.828125 52.96875  Q 50 49.953125 52 44.1875  z "
             id="DejaVuSans-109" />
        </defs>
        <g
           transform="translate(415.430092 230.748218)rotate(-86.912605)scale(0.1 -0.1)"
           id="g9117">
          <use
             xlink:href="#DejaVuSans-102"
             id="use9059" />
          <use
             x="35.205078"
             xlink:href="#DejaVuSans-114"
             id="use9061" />
          <use
             x="76.287109"
             xlink:href="#DejaVuSans-101"
             id="use9063" />
          <use
             x="137.810547"
             xlink:href="#DejaVuSans-113"
             id="use9065" />
          <use
             x="201.287109"
             xlink:href="#DejaVuSans-117"
             id="use9067" />
          <use
             x="264.666016"
             xlink:href="#DejaVuSans-101"
             id="use9069" />
          <use
             x="326.189453"
             xlink:href="#DejaVuSans-110"
             id="use9071" />
          <use
             x="389.568359"
             xlink:href="#DejaVuSans-116"
             id="use9073" />
          <use
             x="428.777344"
             xlink:href="#DejaVuSans-32"
             id="use9075" />
          <use
             x="460.564453"
             xlink:href="#DejaVuSans-119"
             id="use9077" />
          <use
             x="542.351562"
             xlink:href="#DejaVuSans-114"
             id="use9079" />
          <use
             x="583.433594"
             xlink:href="#DejaVuSans-111"
             id="use9081" />
          <use
             x="644.615234"
             xlink:href="#DejaVuSans-110"
             id="use9083" />
          <use
             x="707.994141"
             xlink:href="#DejaVuSans-103"
             id="use9085" />
          <use
             x="771.470703"
             xlink:href="#DejaVuSans-32"
             id="use9087" />
          <use
             x="803.257812"
             xlink:href="#DejaVuSans-112"
             id="use9089" />
          <use
             x="866.734375"
             xlink:href="#DejaVuSans-114"
             id="use9091" />
          <use
             x="907.816406"
             xlink:href="#DejaVuSans-111"
             id="use9093" />
          <use
             x="968.998047"
             xlink:href="#DejaVuSans-103"
             id="use9095" />
          <use
             x="1032.474609"
             xlink:href="#DejaVuSans-114"
             id="use9097" />
          <use
             x="1073.587891"
             xlink:href="#DejaVuSans-97"
             id="use9099" />
          <use
             x="1134.867188"
             xlink:href="#DejaVuSans-109"
             id="use9101" />
          <use
             x="1232.279297"
             xlink:href="#DejaVuSans-115"
             id="use9103" />
          <use
             x="1284.378906"
             xlink:href="#DejaVuSans-32"
             id="use9105" />
          <use
             x="1316.166016"
             xlink:href="#DejaVuSans-114"
             id="use9107" />
          <use
             x="1357.279297"
             xlink:href="#DejaVuSans-97"
             id="use9109" />
          <use
             x="1418.558594"
             xlink:href="#DejaVuSans-116"
             id="use9111" />
          <use
             x="1457.767578"
             xlink:href="#DejaVuSans-105"
             id="use9113" />
          <use
             x="1485.550781"
             xlink:href="#DejaVuSans-111"
             id="use9115" />
        </g>
      </g>
      <g
         id="Line3DCollection_3">
        <path
           d="M 373.578514 204.122134  L 206.940422 168.081888  L 104.027427 232.560881  "
           style="fill:none;stroke:#b0b0b0;stroke-width:0.8;"
           id="path9120" />
        <path
           d="M 374.761645 182.186879  L 206.649417 146.761736  L 102.764727 210.158886  "
           style="fill:none;stroke:#b0b0b0;stroke-width:0.8;"
           id="path9122" />
        <path
           d="M 375.96608 159.856641  L 206.353394 125.073973  L 101.478527 187.339973  "
           style="fill:none;stroke:#b0b0b0;stroke-width:0.8;"
           id="path9124" />
        <path
           d="M 377.192401 137.120654  L 206.052223 103.009009  L 100.168165 164.092394  "
           style="fill:none;stroke:#b0b0b0;stroke-width:0.8;"
           id="path9126" />
        <path
           d="M 378.441208 113.967757  L 205.745768 80.556916  L 98.832954 140.403956  "
           style="fill:none;stroke:#b0b0b0;stroke-width:0.8;"
           id="path9128" />
      </g>
      <g
         id="xtick_11">
        <g
           id="line2d_14">
          <path
             d="M 372.187842 203.821361  L 376.362766 204.724308  "
             style="fill:none;stroke:#000000;stroke-linecap:square;stroke-width:0.8;"
             id="path9131" />
        </g>
        <g
           id="text_14">
          <!-- 0.10 -->
          <g
             transform="translate(380.89461 209.774136)scale(0.1 -0.1)"
             id="g9142">
            <use
               xlink:href="#DejaVuSans-48"
               id="use9134" />
            <use
               x="63.623047"
               xlink:href="#DejaVuSans-46"
               id="use9136" />
            <use
               x="95.410156"
               xlink:href="#DejaVuSans-49"
               id="use9138" />
            <use
               x="159.033203"
               xlink:href="#DejaVuSans-48"
               id="use9140" />
          </g>
        </g>
      </g>
      <g
         id="xtick_12">
        <g
           id="line2d_15">
          <path
             d="M 373.358153 181.891131  L 377.571591 182.779  "
             style="fill:none;stroke:#000000;stroke-linecap:square;stroke-width:0.8;"
             id="path9146" />
        </g>
        <g
           id="text_15">
          <!-- 0.15 -->
          <g
             transform="translate(382.239297 187.871427)scale(0.1 -0.1)"
             id="g9157">
            <use
               xlink:href="#DejaVuSans-48"
               id="use9149" />
            <use
               x="63.623047"
               xlink:href="#DejaVuSans-46"
               id="use9151" />
            <use
               x="95.410156"
               xlink:href="#DejaVuSans-49"
               id="use9153" />
            <use
               x="159.033203"
               xlink:href="#DejaVuSans-53"
               id="use9155" />
          </g>
        </g>
      </g>
      <g
         id="xtick_13">
        <g
           id="line2d_16">
          <path
             d="M 374.549529 159.566147  L 378.802198 160.438247  "
             style="fill:none;stroke:#000000;stroke-linecap:square;stroke-width:0.8;"
             id="path9161" />
        </g>
        <g
           id="text_16">
          <!-- 0.20 -->
          <g
             transform="translate(383.608142 165.575226)scale(0.1 -0.1)"
             id="g9172">
            <use
               xlink:href="#DejaVuSans-48"
               id="use9164" />
            <use
               x="63.623047"
               xlink:href="#DejaVuSans-46"
               id="use9166" />
            <use
               x="95.410156"
               xlink:href="#DejaVuSans-50"
               id="use9168" />
            <use
               x="159.033203"
               xlink:href="#DejaVuSans-48"
               id="use9170" />
          </g>
        </g>
      </g>
      <g
         id="xtick_14">
        <g
           id="line2d_17">
          <path
             d="M 375.762546 136.835655  L 380.055182 137.691263  "
             style="fill:none;stroke:#000000;stroke-linecap:square;stroke-width:0.8;"
             id="path9176" />
        </g>
        <g
           id="text_17">
          <!-- 0.25 -->
          <g
             transform="translate(385.001803 142.874832)scale(0.1 -0.1)"
             id="g9187">
            <use
               xlink:href="#DejaVuSans-48"
               id="use9179" />
            <use
               x="63.623047"
               xlink:href="#DejaVuSans-46"
               id="use9181" />
            <use
               x="95.410156"
               xlink:href="#DejaVuSans-50"
               id="use9183" />
            <use
               x="159.033203"
               xlink:href="#DejaVuSans-53"
               id="use9185" />
          </g>
        </g>
      </g>
      <g
         id="xtick_15">
        <g
           id="line2d_18">
          <path
             d="M 376.997798 113.688505  L 381.331159 114.526867  "
             style="fill:none;stroke:#000000;stroke-linecap:square;stroke-width:0.8;"
             id="path9191" />
        </g>
        <g
           id="text_18">
          <!-- 0.30 -->
          <g
             transform="translate(386.420959 119.759154)scale(0.1 -0.1)"
             id="g9202">
            <use
               xlink:href="#DejaVuSans-48"
               id="use9194" />
            <use
               x="63.623047"
               xlink:href="#DejaVuSans-46"
               id="use9196" />
            <use
               x="95.410156"
               xlink:href="#DejaVuSans-51"
               id="use9198" />
            <use
               x="159.033203"
               xlink:href="#DejaVuSans-48"
               id="use9200" />
          </g>
        </g>
      </g>
    </g>
    <g
       id="axes_1">
      <g
         id="Line3DCollection_4">
        <path
           clip-path="url(#p9a803069a1)"
           d="M 116.207433 118.54713  L 134.562595 151.977025  L 152.460893 179.511996  L 170.141992 205.436373  L 187.555664 226.08118  L 204.826486 242.563046  L 222.038486 254.523039  L 239.290589 265.073665  L 256.637688 270.629067  L 274.140444 274.829028  "
           style="fill:none;stroke:#0000ff;stroke-width:1.5;"
           id="path9207" />
        <path
           clip-path="url(#p9a803069a1)"
           d="M 129.147956 154.927735  L 146.317213 170.161748  L 163.518814 186.633386  L 180.780485 206.504414  L 197.879402 221.140003  L 214.977967 235.641445  L 232.069768 247.50137  L 249.20698 257.958295  L 266.458554 263.443166  L 283.86949 267.578341  "
           style="fill:none;stroke:#0000ff;stroke-width:1.5;"
           id="path9209" />
        <path
           clip-path="url(#p9a803069a1)"
           d="M 140.918815 175.801032  L 157.60824 185.912163  L 174.340969 195.471228  L 191.167714 206.37751  L 208.081338 220.056172  L 225.004874 233.387641  L 241.947614 241.836287  L 258.971916 250.9516  L 276.128846 256.367439  L 293.448707 260.439317  "
           style="fill:none;stroke:#0000ff;stroke-width:1.5;"
           id="path9211" />
        <path
           clip-path="url(#p9a803069a1)"
           d="M 151.956049 187.30915  L 168.370032 195.557866  L 184.797532 200.908223  L 201.37719 208.260717  L 218.065896 217.125353  L 234.841436 230.334786  L 251.660382 237.547958  L 268.58884 244.051109  L 285.652 249.399373  L 302.881528 253.409395  "
           style="fill:none;stroke:#0000ff;stroke-width:1.5;"
           id="path9213" />
        <path
           clip-path="url(#p9a803069a1)"
           d="M 162.485414 192.482843  L 178.679195 198.712444  L 194.936783 202.824754  L 211.329765 207.103421  L 227.872291 214.379538  L 244.506963 223.682953  L 261.228509 230.822301  L 278.061092 237.254426  L 295.03135 242.536528  L 312.171286 246.486094  "
           style="fill:none;stroke:#0000ff;stroke-width:1.5;"
           id="path9215" />
        <path
           clip-path="url(#p9a803069a1)"
           d="M 172.889151 201.988385  L 188.859042 206.477309  L 204.9397 210.133834  L 221.161302 214.386601  L 237.513653 218.804295  L 253.985213 225.350965  L 270.58127 230.193389  L 287.325814 234.022968  L 304.215123 237.885655  L 321.251081 241.781882  "
           style="fill:none;stroke:#0000ff;stroke-width:1.5;"
           id="path9217" />
        <path
           clip-path="url(#p9a803069a1)"
           d="M 182.784916 201.569935  L 198.628689 205.371434  L 214.599902 208.989155  L 230.705282 212.637266  L 246.944947 216.964267  L 263.310705 221.628598  L 279.817942 225.374562  L 296.466124 229.152511  L 313.257065 232.962856  L 330.192609 236.806015  "
           style="fill:none;stroke:#0000ff;stroke-width:1.5;"
           id="path9219" />
        <path
           clip-path="url(#p9a803069a1)"
           d="M 192.394295 196.107573  L 208.15855 199.81604  L 224.050317 203.38374  L 240.074585 206.981186  L 256.233017 210.608752  L 272.51509 215.214887  L 288.940514 218.906405  L 305.505155 222.629212  L 322.210792 226.383707  L 339.059232 230.170295  "
           style="fill:none;stroke:#0000ff;stroke-width:1.5;"
           id="path9221" />
        <path
           clip-path="url(#p9a803069a1)"
           d="M 201.884443 192.121274  L 217.562111 195.826575  L 233.365539 199.349319  L 249.299672 202.901198  L 265.36614 206.482576  L 281.551009 211.035821  L 297.880773 214.679848  L 314.347814 218.354508  L 330.953872 222.060191  L 347.700713 225.797289  "
           style="fill:none;stroke:#0000ff;stroke-width:1.5;"
           id="path9223" />
        <path
           clip-path="url(#p9a803069a1)"
           d="M 211.203312 186.347945  L 226.805009 189.792892  L 242.534303 193.266013  L 258.392764 196.767654  L 274.38199 200.29817  L 290.48472 204.795542  L 306.734073 208.387409  L 323.119039 212.009252  L 339.641325 215.66145  L 356.302663 219.344384  "
           style="fill:none;stroke:#0000ff;stroke-width:1.5;"
           id="path9225" />
        <path
           clip-path="url(#p9a803069a1)"
           d="M 116.207433 118.54713  L 129.147956 154.927735  L 140.918815 175.801032  L 151.956049 187.30915  L 162.485414 192.482843  L 172.889151 201.988385  L 182.784916 201.569935  L 192.394295 196.107573  L 201.884443 192.121274  L 211.203312 186.347945  "
           style="fill:none;stroke:#0000ff;stroke-width:1.5;"
           id="path9227" />
        <path
           clip-path="url(#p9a803069a1)"
           d="M 134.562595 151.977025  L 146.317213 170.161748  L 157.60824 185.912163  L 168.370032 195.557866  L 178.679195 198.712444  L 188.859042 206.477309  L 198.628689 205.371434  L 208.15855 199.81604  L 217.562111 195.826575  L 226.805009 189.792892  "
           style="fill:none;stroke:#0000ff;stroke-width:1.5;"
           id="path9229" />
        <path
           clip-path="url(#p9a803069a1)"
           d="M 152.460893 179.511996  L 163.518814 186.633386  L 174.340969 195.471228  L 184.797532 200.908223  L 194.936783 202.824754  L 204.9397 210.133834  L 214.599902 208.989155  L 224.050317 203.38374  L 233.365539 199.349319  L 242.534303 193.266013  "
           style="fill:none;stroke:#0000ff;stroke-width:1.5;"
           id="path9231" />
        <path
           clip-path="url(#p9a803069a1)"
           d="M 170.141992 205.436373  L 180.780485 206.504414  L 191.167714 206.37751  L 201.37719 208.260717  L 211.329765 207.103421  L 221.161302 214.386601  L 230.705282 212.637266  L 240.074585 206.981186  L 249.299672 202.901198  L 258.392764 196.767654  "
           style="fill:none;stroke:#0000ff;stroke-width:1.5;"
           id="path9233" />
        <path
           clip-path="url(#p9a803069a1)"
           d="M 187.555664 226.08118  L 197.879402 221.140003  L 208.081338 220.056172  L 218.065896 217.125353  L 227.872291 214.379538  L 237.513653 218.804295  L 246.944947 216.964267  L 256.233017 210.608752  L 265.36614 206.482576  L 274.38199 200.29817  "
           style="fill:none;stroke:#0000ff;stroke-width:1.5;"
           id="path9235" />
        <path
           clip-path="url(#p9a803069a1)"
           d="M 204.826486 242.563046  L 214.977967 235.641445  L 225.004874 233.387641  L 234.841436 230.334786  L 244.506963 223.682953  L 253.985213 225.350965  L 263.310705 221.628598  L 272.51509 215.214887  L 281.551009 211.035821  L 290.48472 204.795542  "
           style="fill:none;stroke:#0000ff;stroke-width:1.5;"
           id="path9237" />
        <path
           clip-path="url(#p9a803069a1)"
           d="M 222.038486 254.523039  L 232.069768 247.50137  L 241.947614 241.836287  L 251.660382 237.547958  L 261.228509 230.822301  L 270.58127 230.193389  L 279.817942 225.374562  L 288.940514 218.906405  L 297.880773 214.679848  L 306.734073 208.387409  "
           style="fill:none;stroke:#0000ff;stroke-width:1.5;"
           id="path9239" />
        <path
           clip-path="url(#p9a803069a1)"
           d="M 239.290589 265.073665  L 249.20698 257.958295  L 258.971916 250.9516  L 268.58884 244.051109  L 278.061092 237.254426  L 287.325814 234.022968  L 296.466124 229.152511  L 305.505155 222.629212  L 314.347814 218.354508  L 323.119039 212.009252  "
           style="fill:none;stroke:#0000ff;stroke-width:1.5;"
           id="path9241" />
        <path
           clip-path="url(#p9a803069a1)"
           d="M 256.637688 270.629067  L 266.458554 263.443166  L 276.128846 256.367439  L 285.652 249.399373  L 295.03135 242.536528  L 304.215123 237.885655  L 313.257065 232.962856  L 322.210792 226.383707  L 330.953872 222.060191  L 339.641325 215.66145  "
           style="fill:none;stroke:#0000ff;stroke-width:1.5;"
           id="path9243" />
        <path
           clip-path="url(#p9a803069a1)"
           d="M 274.140444 274.829028  L 283.86949 267.578341  L 293.448707 260.439317  L 302.881528 253.409395  L 312.171286 246.486094  L 321.251081 241.781882  L 330.192609 236.806015  L 339.059232 230.170295  L 347.700713 225.797289  L 356.302663 219.344384  "
           style="fill:none;stroke:#0000ff;stroke-width:1.5;"
           id="path9245" />
      </g>
    </g>
  </g>
  <defs
     id="defs9253">
    <clipPath
       id="p9a803069a1">
      <rect
         height="266.112"
         width="357.12"
         x="57.6"
         y="41.472"
         id="rect9250" />
    </clipPath>
  </defs>
</svg>
