<?xml version="1.0" encoding="utf-8" standalone="no"?>
<!DOCTYPE svg PUBLIC "-//W3C//DTD SVG 1.1//EN"
  "http://www.w3.org/Graphics/SVG/1.1/DTD/svg11.dtd">
<!-- Created with matplotlib (https://matplotlib.org/) -->
<svg height="345.6pt" version="1.1" viewBox="0 0 460.8 345.6" width="460.8pt" xmlns="http://www.w3.org/2000/svg" xmlns:xlink="http://www.w3.org/1999/xlink">
 <defs>
  <style type="text/css">
*{stroke-linecap:butt;stroke-linejoin:round;}
  </style>
 </defs>
 <g id="figure_1">
  <g id="patch_1">
   <path d="M 0 345.6 
L 460.8 345.6 
L 460.8 0 
L 0 0 
z
" style="fill:#ffffff;"/>
  </g>
  <g id="patch_2">
   <path d="M 57.6 307.584 
L 414.72 307.584 
L 414.72 41.472 
L 57.6 41.472 
z
" style="fill:#ffffff;"/>
  </g>
  <g id="pane3d_1">
   <g id="patch_3">
    <path d="M 134.528939 250.326815 
L 145.870827 241.743725 
L 145.822796 99.35487 
L 134.469274 92.295252 
" style="fill:#f2f2f2;opacity:0.5;stroke:#f2f2f2;stroke-linejoin:miter;"/>
   </g>
  </g>
  <g id="pane3d_2">
   <g id="patch_4">
    <path d="M 145.870827 241.743725 
L 336.947837 241.776395 
L 336.996315 99.328001 
L 145.822796 99.35487 
" style="fill:#e6e6e6;opacity:0.5;stroke:#e6e6e6;stroke-linejoin:miter;"/>
   </g>
  </g>
  <g id="pane3d_3">
   <g id="patch_5">
    <path d="M 134.528939 250.326815 
L 346.596663 250.367058 
L 336.947837 241.776395 
L 145.870827 241.743725 
" style="fill:#ececec;opacity:0.5;stroke:#ececec;stroke-linejoin:miter;"/>
   </g>
  </g>
  <g id="axis3d_1">
   <g id="line2d_1">
    <path d="M 134.528939 250.326815 
L 346.596663 250.367058 
" style="fill:none;stroke:#000000;stroke-linecap:square;stroke-width:0.8;"/>
   </g>
   <g id="text_1">
    <!-- absolute count threshold -->
    <defs>
     <path d="M 34.28125 27.484375 
Q 23.390625 27.484375 19.1875 25 
Q 14.984375 22.515625 14.984375 16.5 
Q 14.984375 11.71875 18.140625 8.90625 
Q 21.296875 6.109375 26.703125 6.109375 
Q 34.1875 6.109375 38.703125 11.40625 
Q 43.21875 16.703125 43.21875 25.484375 
L 43.21875 27.484375 
z
M 52.203125 31.203125 
L 52.203125 0 
L 43.21875 0 
L 43.21875 8.296875 
Q 40.140625 3.328125 35.546875 0.953125 
Q 30.953125 -1.421875 24.3125 -1.421875 
Q 15.921875 -1.421875 10.953125 3.296875 
Q 6 8.015625 6 15.921875 
Q 6 25.140625 12.171875 29.828125 
Q 18.359375 34.515625 30.609375 34.515625 
L 43.21875 34.515625 
L 43.21875 35.40625 
Q 43.21875 41.609375 39.140625 45 
Q 35.0625 48.390625 27.6875 48.390625 
Q 23 48.390625 18.546875 47.265625 
Q 14.109375 46.140625 10.015625 43.890625 
L 10.015625 52.203125 
Q 14.9375 54.109375 19.578125 55.046875 
Q 24.21875 56 28.609375 56 
Q 40.484375 56 46.34375 49.84375 
Q 52.203125 43.703125 52.203125 31.203125 
z
" id="DejaVuSans-97"/>
     <path d="M 48.6875 27.296875 
Q 48.6875 37.203125 44.609375 42.84375 
Q 40.53125 48.484375 33.40625 48.484375 
Q 26.265625 48.484375 22.1875 42.84375 
Q 18.109375 37.203125 18.109375 27.296875 
Q 18.109375 17.390625 22.1875 11.75 
Q 26.265625 6.109375 33.40625 6.109375 
Q 40.53125 6.109375 44.609375 11.75 
Q 48.6875 17.390625 48.6875 27.296875 
z
M 18.109375 46.390625 
Q 20.953125 51.265625 25.265625 53.625 
Q 29.59375 56 35.59375 56 
Q 45.5625 56 51.78125 48.09375 
Q 58.015625 40.1875 58.015625 27.296875 
Q 58.015625 14.40625 51.78125 6.484375 
Q 45.5625 -1.421875 35.59375 -1.421875 
Q 29.59375 -1.421875 25.265625 0.953125 
Q 20.953125 3.328125 18.109375 8.203125 
L 18.109375 0 
L 9.078125 0 
L 9.078125 75.984375 
L 18.109375 75.984375 
z
" id="DejaVuSans-98"/>
     <path d="M 44.28125 53.078125 
L 44.28125 44.578125 
Q 40.484375 46.53125 36.375 47.5 
Q 32.28125 48.484375 27.875 48.484375 
Q 21.1875 48.484375 17.84375 46.4375 
Q 14.5 44.390625 14.5 40.28125 
Q 14.5 37.15625 16.890625 35.375 
Q 19.28125 33.59375 26.515625 31.984375 
L 29.59375 31.296875 
Q 39.15625 29.25 43.1875 25.515625 
Q 47.21875 21.78125 47.21875 15.09375 
Q 47.21875 7.46875 41.1875 3.015625 
Q 35.15625 -1.421875 24.609375 -1.421875 
Q 20.21875 -1.421875 15.453125 -0.5625 
Q 10.6875 0.296875 5.421875 2 
L 5.421875 11.28125 
Q 10.40625 8.6875 15.234375 7.390625 
Q 20.0625 6.109375 24.8125 6.109375 
Q 31.15625 6.109375 34.5625 8.28125 
Q 37.984375 10.453125 37.984375 14.40625 
Q 37.984375 18.0625 35.515625 20.015625 
Q 33.0625 21.96875 24.703125 23.78125 
L 21.578125 24.515625 
Q 13.234375 26.265625 9.515625 29.90625 
Q 5.8125 33.546875 5.8125 39.890625 
Q 5.8125 47.609375 11.28125 51.796875 
Q 16.75 56 26.8125 56 
Q 31.78125 56 36.171875 55.265625 
Q 40.578125 54.546875 44.28125 53.078125 
z
" id="DejaVuSans-115"/>
     <path d="M 30.609375 48.390625 
Q 23.390625 48.390625 19.1875 42.75 
Q 14.984375 37.109375 14.984375 27.296875 
Q 14.984375 17.484375 19.15625 11.84375 
Q 23.34375 6.203125 30.609375 6.203125 
Q 37.796875 6.203125 41.984375 11.859375 
Q 46.1875 17.53125 46.1875 27.296875 
Q 46.1875 37.015625 41.984375 42.703125 
Q 37.796875 48.390625 30.609375 48.390625 
z
M 30.609375 56 
Q 42.328125 56 49.015625 48.375 
Q 55.71875 40.765625 55.71875 27.296875 
Q 55.71875 13.875 49.015625 6.21875 
Q 42.328125 -1.421875 30.609375 -1.421875 
Q 18.84375 -1.421875 12.171875 6.21875 
Q 5.515625 13.875 5.515625 27.296875 
Q 5.515625 40.765625 12.171875 48.375 
Q 18.84375 56 30.609375 56 
z
" id="DejaVuSans-111"/>
     <path d="M 9.421875 75.984375 
L 18.40625 75.984375 
L 18.40625 0 
L 9.421875 0 
z
" id="DejaVuSans-108"/>
     <path d="M 8.5 21.578125 
L 8.5 54.6875 
L 17.484375 54.6875 
L 17.484375 21.921875 
Q 17.484375 14.15625 20.5 10.265625 
Q 23.53125 6.390625 29.59375 6.390625 
Q 36.859375 6.390625 41.078125 11.03125 
Q 45.3125 15.671875 45.3125 23.6875 
L 45.3125 54.6875 
L 54.296875 54.6875 
L 54.296875 0 
L 45.3125 0 
L 45.3125 8.40625 
Q 42.046875 3.421875 37.71875 1 
Q 33.40625 -1.421875 27.6875 -1.421875 
Q 18.265625 -1.421875 13.375 4.4375 
Q 8.5 10.296875 8.5 21.578125 
z
M 31.109375 56 
z
" id="DejaVuSans-117"/>
     <path d="M 18.3125 70.21875 
L 18.3125 54.6875 
L 36.8125 54.6875 
L 36.8125 47.703125 
L 18.3125 47.703125 
L 18.3125 18.015625 
Q 18.3125 11.328125 20.140625 9.421875 
Q 21.96875 7.515625 27.59375 7.515625 
L 36.8125 7.515625 
L 36.8125 0 
L 27.59375 0 
Q 17.1875 0 13.234375 3.875 
Q 9.28125 7.765625 9.28125 18.015625 
L 9.28125 47.703125 
L 2.6875 47.703125 
L 2.6875 54.6875 
L 9.28125 54.6875 
L 9.28125 70.21875 
z
" id="DejaVuSans-116"/>
     <path d="M 56.203125 29.59375 
L 56.203125 25.203125 
L 14.890625 25.203125 
Q 15.484375 15.921875 20.484375 11.0625 
Q 25.484375 6.203125 34.421875 6.203125 
Q 39.59375 6.203125 44.453125 7.46875 
Q 49.3125 8.734375 54.109375 11.28125 
L 54.109375 2.78125 
Q 49.265625 0.734375 44.1875 -0.34375 
Q 39.109375 -1.421875 33.890625 -1.421875 
Q 20.796875 -1.421875 13.15625 6.1875 
Q 5.515625 13.8125 5.515625 26.8125 
Q 5.515625 40.234375 12.765625 48.109375 
Q 20.015625 56 32.328125 56 
Q 43.359375 56 49.78125 48.890625 
Q 56.203125 41.796875 56.203125 29.59375 
z
M 47.21875 32.234375 
Q 47.125 39.59375 43.09375 43.984375 
Q 39.0625 48.390625 32.421875 48.390625 
Q 24.90625 48.390625 20.390625 44.140625 
Q 15.875 39.890625 15.1875 32.171875 
z
" id="DejaVuSans-101"/>
     <path id="DejaVuSans-32"/>
     <path d="M 48.78125 52.59375 
L 48.78125 44.1875 
Q 44.96875 46.296875 41.140625 47.34375 
Q 37.3125 48.390625 33.40625 48.390625 
Q 24.65625 48.390625 19.8125 42.84375 
Q 14.984375 37.3125 14.984375 27.296875 
Q 14.984375 17.28125 19.8125 11.734375 
Q 24.65625 6.203125 33.40625 6.203125 
Q 37.3125 6.203125 41.140625 7.25 
Q 44.96875 8.296875 48.78125 10.40625 
L 48.78125 2.09375 
Q 45.015625 0.34375 40.984375 -0.53125 
Q 36.96875 -1.421875 32.421875 -1.421875 
Q 20.0625 -1.421875 12.78125 6.34375 
Q 5.515625 14.109375 5.515625 27.296875 
Q 5.515625 40.671875 12.859375 48.328125 
Q 20.21875 56 33.015625 56 
Q 37.15625 56 41.109375 55.140625 
Q 45.0625 54.296875 48.78125 52.59375 
z
" id="DejaVuSans-99"/>
     <path d="M 54.890625 33.015625 
L 54.890625 0 
L 45.90625 0 
L 45.90625 32.71875 
Q 45.90625 40.484375 42.875 44.328125 
Q 39.84375 48.1875 33.796875 48.1875 
Q 26.515625 48.1875 22.3125 43.546875 
Q 18.109375 38.921875 18.109375 30.90625 
L 18.109375 0 
L 9.078125 0 
L 9.078125 54.6875 
L 18.109375 54.6875 
L 18.109375 46.1875 
Q 21.34375 51.125 25.703125 53.5625 
Q 30.078125 56 35.796875 56 
Q 45.21875 56 50.046875 50.171875 
Q 54.890625 44.34375 54.890625 33.015625 
z
" id="DejaVuSans-110"/>
     <path d="M 54.890625 33.015625 
L 54.890625 0 
L 45.90625 0 
L 45.90625 32.71875 
Q 45.90625 40.484375 42.875 44.328125 
Q 39.84375 48.1875 33.796875 48.1875 
Q 26.515625 48.1875 22.3125 43.546875 
Q 18.109375 38.921875 18.109375 30.90625 
L 18.109375 0 
L 9.078125 0 
L 9.078125 75.984375 
L 18.109375 75.984375 
L 18.109375 46.1875 
Q 21.34375 51.125 25.703125 53.5625 
Q 30.078125 56 35.796875 56 
Q 45.21875 56 50.046875 50.171875 
Q 54.890625 44.34375 54.890625 33.015625 
z
" id="DejaVuSans-104"/>
     <path d="M 41.109375 46.296875 
Q 39.59375 47.171875 37.8125 47.578125 
Q 36.03125 48 33.890625 48 
Q 26.265625 48 22.1875 43.046875 
Q 18.109375 38.09375 18.109375 28.8125 
L 18.109375 0 
L 9.078125 0 
L 9.078125 54.6875 
L 18.109375 54.6875 
L 18.109375 46.1875 
Q 20.953125 51.171875 25.484375 53.578125 
Q 30.03125 56 36.53125 56 
Q 37.453125 56 38.578125 55.875 
Q 39.703125 55.765625 41.0625 55.515625 
z
" id="DejaVuSans-114"/>
     <path d="M 45.40625 46.390625 
L 45.40625 75.984375 
L 54.390625 75.984375 
L 54.390625 0 
L 45.40625 0 
L 45.40625 8.203125 
Q 42.578125 3.328125 38.25 0.953125 
Q 33.9375 -1.421875 27.875 -1.421875 
Q 17.96875 -1.421875 11.734375 6.484375 
Q 5.515625 14.40625 5.515625 27.296875 
Q 5.515625 40.1875 11.734375 48.09375 
Q 17.96875 56 27.875 56 
Q 33.9375 56 38.25 53.625 
Q 42.578125 51.265625 45.40625 46.390625 
z
M 14.796875 27.296875 
Q 14.796875 17.390625 18.875 11.75 
Q 22.953125 6.109375 30.078125 6.109375 
Q 37.203125 6.109375 41.296875 11.75 
Q 45.40625 17.390625 45.40625 27.296875 
Q 45.40625 37.203125 41.296875 42.84375 
Q 37.203125 48.484375 30.078125 48.484375 
Q 22.953125 48.484375 18.875 42.84375 
Q 14.796875 37.203125 14.796875 27.296875 
z
" id="DejaVuSans-100"/>
    </defs>
    <g transform="translate(177.953002 279.338803)rotate(-359.989127)scale(0.1 -0.1)">
     <use xlink:href="#DejaVuSans-97"/>
     <use x="61.279297" xlink:href="#DejaVuSans-98"/>
     <use x="124.755859" xlink:href="#DejaVuSans-115"/>
     <use x="176.855469" xlink:href="#DejaVuSans-111"/>
     <use x="238.037109" xlink:href="#DejaVuSans-108"/>
     <use x="265.820312" xlink:href="#DejaVuSans-117"/>
     <use x="329.199219" xlink:href="#DejaVuSans-116"/>
     <use x="368.408203" xlink:href="#DejaVuSans-101"/>
     <use x="429.931641" xlink:href="#DejaVuSans-32"/>
     <use x="461.71875" xlink:href="#DejaVuSans-99"/>
     <use x="516.699219" xlink:href="#DejaVuSans-111"/>
     <use x="577.880859" xlink:href="#DejaVuSans-117"/>
     <use x="641.259766" xlink:href="#DejaVuSans-110"/>
     <use x="704.638672" xlink:href="#DejaVuSans-116"/>
     <use x="743.847656" xlink:href="#DejaVuSans-32"/>
     <use x="775.634766" xlink:href="#DejaVuSans-116"/>
     <use x="814.84375" xlink:href="#DejaVuSans-104"/>
     <use x="878.222656" xlink:href="#DejaVuSans-114"/>
     <use x="919.304688" xlink:href="#DejaVuSans-101"/>
     <use x="980.828125" xlink:href="#DejaVuSans-115"/>
     <use x="1032.927734" xlink:href="#DejaVuSans-104"/>
     <use x="1096.306641" xlink:href="#DejaVuSans-111"/>
     <use x="1157.488281" xlink:href="#DejaVuSans-108"/>
     <use x="1185.271484" xlink:href="#DejaVuSans-100"/>
    </g>
   </g>
   <g id="Line3DCollection_1">
    <path d="M 161.722587 250.331976 
L 170.373796 241.747914 
L 170.338138 99.351425 
" style="fill:none;stroke:#b0b0b0;stroke-width:0.8;"/>
    <path d="M 195.986909 250.338478 
L 201.24742 241.753193 
L 201.227351 99.347083 
" style="fill:none;stroke:#b0b0b0;stroke-width:0.8;"/>
    <path d="M 230.256368 250.344981 
L 232.125214 241.758472 
L 232.120739 99.342741 
" style="fill:none;stroke:#b0b0b0;stroke-width:0.8;"/>
    <path d="M 264.530965 250.351485 
L 263.00718 241.763752 
L 263.018303 99.338398 
" style="fill:none;stroke:#b0b0b0;stroke-width:0.8;"/>
    <path d="M 298.810703 250.35799 
L 293.893319 241.769033 
L 293.920044 99.334055 
" style="fill:none;stroke:#b0b0b0;stroke-width:0.8;"/>
    <path d="M 333.095581 250.364496 
L 324.783631 241.774315 
L 324.825963 99.329711 
" style="fill:none;stroke:#b0b0b0;stroke-width:0.8;"/>
   </g>
   <g id="xtick_1">
    <g id="line2d_2">
     <path d="M 161.799331 250.255827 
L 161.568694 250.484675 
" style="fill:none;stroke:#000000;stroke-linecap:square;stroke-width:0.8;"/>
    </g>
    <g id="text_2">
     <!-- 50 -->
     <defs>
      <path d="M 10.796875 72.90625 
L 49.515625 72.90625 
L 49.515625 64.59375 
L 19.828125 64.59375 
L 19.828125 46.734375 
Q 21.96875 47.46875 24.109375 47.828125 
Q 26.265625 48.1875 28.421875 48.1875 
Q 40.625 48.1875 47.75 41.5 
Q 54.890625 34.8125 54.890625 23.390625 
Q 54.890625 11.625 47.5625 5.09375 
Q 40.234375 -1.421875 26.90625 -1.421875 
Q 22.3125 -1.421875 17.546875 -0.640625 
Q 12.796875 0.140625 7.71875 1.703125 
L 7.71875 11.625 
Q 12.109375 9.234375 16.796875 8.0625 
Q 21.484375 6.890625 26.703125 6.890625 
Q 35.15625 6.890625 40.078125 11.328125 
Q 45.015625 15.765625 45.015625 23.390625 
Q 45.015625 31 40.078125 35.4375 
Q 35.15625 39.890625 26.703125 39.890625 
Q 22.75 39.890625 18.8125 39.015625 
Q 14.890625 38.140625 10.796875 36.28125 
z
" id="DejaVuSans-53"/>
      <path d="M 31.78125 66.40625 
Q 24.171875 66.40625 20.328125 58.90625 
Q 16.5 51.421875 16.5 36.375 
Q 16.5 21.390625 20.328125 13.890625 
Q 24.171875 6.390625 31.78125 6.390625 
Q 39.453125 6.390625 43.28125 13.890625 
Q 47.125 21.390625 47.125 36.375 
Q 47.125 51.421875 43.28125 58.90625 
Q 39.453125 66.40625 31.78125 66.40625 
z
M 31.78125 74.21875 
Q 44.046875 74.21875 50.515625 64.515625 
Q 56.984375 54.828125 56.984375 36.375 
Q 56.984375 17.96875 50.515625 8.265625 
Q 44.046875 -1.421875 31.78125 -1.421875 
Q 19.53125 -1.421875 13.0625 8.265625 
Q 6.59375 17.96875 6.59375 36.375 
Q 6.59375 54.828125 13.0625 64.515625 
Q 19.53125 74.21875 31.78125 74.21875 
z
" id="DejaVuSans-48"/>
     </defs>
     <g transform="translate(154.677625 269.890007)scale(0.1 -0.1)">
      <use xlink:href="#DejaVuSans-53"/>
      <use x="63.623047" xlink:href="#DejaVuSans-48"/>
     </g>
    </g>
   </g>
   <g id="xtick_2">
    <g id="line2d_3">
     <path d="M 196.033575 250.262318 
L 195.893331 250.4912 
" style="fill:none;stroke:#000000;stroke-linecap:square;stroke-width:0.8;"/>
    </g>
    <g id="text_3">
     <!-- 100 -->
     <defs>
      <path d="M 12.40625 8.296875 
L 28.515625 8.296875 
L 28.515625 63.921875 
L 10.984375 60.40625 
L 10.984375 69.390625 
L 28.421875 72.90625 
L 38.28125 72.90625 
L 38.28125 8.296875 
L 54.390625 8.296875 
L 54.390625 0 
L 12.40625 0 
z
" id="DejaVuSans-49"/>
     </defs>
     <g transform="translate(186.028045 269.897464)scale(0.1 -0.1)">
      <use xlink:href="#DejaVuSans-49"/>
      <use x="63.623047" xlink:href="#DejaVuSans-48"/>
      <use x="127.246094" xlink:href="#DejaVuSans-48"/>
     </g>
    </g>
   </g>
   <g id="xtick_3">
    <g id="line2d_4">
     <path d="M 230.272946 250.26881 
L 230.223123 250.497726 
" style="fill:none;stroke:#000000;stroke-linecap:square;stroke-width:0.8;"/>
    </g>
    <g id="text_4">
     <!-- 150 -->
     <g transform="translate(220.564933 269.904921)scale(0.1 -0.1)">
      <use xlink:href="#DejaVuSans-49"/>
      <use x="63.623047" xlink:href="#DejaVuSans-53"/>
      <use x="127.246094" xlink:href="#DejaVuSans-48"/>
     </g>
    </g>
   </g>
   <g id="xtick_4">
    <g id="line2d_5">
     <path d="M 264.517448 250.275302 
L 264.558072 250.504253 
" style="fill:none;stroke:#000000;stroke-linecap:square;stroke-width:0.8;"/>
    </g>
    <g id="text_5">
     <!-- 200 -->
     <defs>
      <path d="M 19.1875 8.296875 
L 53.609375 8.296875 
L 53.609375 0 
L 7.328125 0 
L 7.328125 8.296875 
Q 12.9375 14.109375 22.625 23.890625 
Q 32.328125 33.6875 34.8125 36.53125 
Q 39.546875 41.84375 41.421875 45.53125 
Q 43.3125 49.21875 43.3125 52.78125 
Q 43.3125 58.59375 39.234375 62.25 
Q 35.15625 65.921875 28.609375 65.921875 
Q 23.96875 65.921875 18.8125 64.3125 
Q 13.671875 62.703125 7.8125 59.421875 
L 7.8125 69.390625 
Q 13.765625 71.78125 18.9375 73 
Q 24.125 74.21875 28.421875 74.21875 
Q 39.75 74.21875 46.484375 68.546875 
Q 53.21875 62.890625 53.21875 53.421875 
Q 53.21875 48.921875 51.53125 44.890625 
Q 49.859375 40.875 45.40625 35.40625 
Q 44.1875 33.984375 37.640625 27.21875 
Q 31.109375 20.453125 19.1875 8.296875 
z
" id="DejaVuSans-50"/>
     </defs>
     <g transform="translate(255.10704 269.912379)scale(0.1 -0.1)">
      <use xlink:href="#DejaVuSans-50"/>
      <use x="63.623047" xlink:href="#DejaVuSans-48"/>
      <use x="127.246094" xlink:href="#DejaVuSans-48"/>
     </g>
    </g>
   </g>
   <g id="xtick_5">
    <g id="line2d_6">
     <path d="M 298.76708 250.281796 
L 298.898179 250.51078 
" style="fill:none;stroke:#000000;stroke-linecap:square;stroke-width:0.8;"/>
    </g>
    <g id="text_6">
     <!-- 250 -->
     <g transform="translate(289.654368 269.919839)scale(0.1 -0.1)">
      <use xlink:href="#DejaVuSans-50"/>
      <use x="63.623047" xlink:href="#DejaVuSans-53"/>
      <use x="127.246094" xlink:href="#DejaVuSans-48"/>
     </g>
    </g>
   </g>
   <g id="xtick_6">
    <g id="line2d_7">
     <path d="M 333.021844 250.28829 
L 333.243445 250.517309 
" style="fill:none;stroke:#000000;stroke-linecap:square;stroke-width:0.8;"/>
    </g>
    <g id="text_7">
     <!-- 300 -->
     <defs>
      <path d="M 40.578125 39.3125 
Q 47.65625 37.796875 51.625 33 
Q 55.609375 28.21875 55.609375 21.1875 
Q 55.609375 10.40625 48.1875 4.484375 
Q 40.765625 -1.421875 27.09375 -1.421875 
Q 22.515625 -1.421875 17.65625 -0.515625 
Q 12.796875 0.390625 7.625 2.203125 
L 7.625 11.71875 
Q 11.71875 9.328125 16.59375 8.109375 
Q 21.484375 6.890625 26.8125 6.890625 
Q 36.078125 6.890625 40.9375 10.546875 
Q 45.796875 14.203125 45.796875 21.1875 
Q 45.796875 27.640625 41.28125 31.265625 
Q 36.765625 34.90625 28.71875 34.90625 
L 20.21875 34.90625 
L 20.21875 43.015625 
L 29.109375 43.015625 
Q 36.375 43.015625 40.234375 45.921875 
Q 44.09375 48.828125 44.09375 54.296875 
Q 44.09375 59.90625 40.109375 62.90625 
Q 36.140625 65.921875 28.71875 65.921875 
Q 24.65625 65.921875 20.015625 65.03125 
Q 15.375 64.15625 9.8125 62.3125 
L 9.8125 71.09375 
Q 15.4375 72.65625 20.34375 73.4375 
Q 25.25 74.21875 29.59375 74.21875 
Q 40.828125 74.21875 47.359375 69.109375 
Q 53.90625 64.015625 53.90625 55.328125 
Q 53.90625 49.265625 50.4375 45.09375 
Q 46.96875 40.921875 40.578125 39.3125 
z
" id="DejaVuSans-51"/>
     </defs>
     <g transform="translate(324.206917 269.9273)scale(0.1 -0.1)">
      <use xlink:href="#DejaVuSans-51"/>
      <use x="63.623047" xlink:href="#DejaVuSans-48"/>
      <use x="127.246094" xlink:href="#DejaVuSans-48"/>
     </g>
    </g>
   </g>
  </g>
  <g id="axis3d_2">
   <g id="line2d_8">
    <path d="M 336.947837 241.776395 
L 346.596663 250.367058 
" style="fill:none;stroke:#000000;stroke-linecap:square;stroke-width:0.8;"/>
   </g>
   <g id="text_8">
    <!-- relative count threshold -->
    <defs>
     <path d="M 9.421875 54.6875 
L 18.40625 54.6875 
L 18.40625 0 
L 9.421875 0 
z
M 9.421875 75.984375 
L 18.40625 75.984375 
L 18.40625 64.59375 
L 9.421875 64.59375 
z
" id="DejaVuSans-105"/>
     <path d="M 2.984375 54.6875 
L 12.5 54.6875 
L 29.59375 8.796875 
L 46.6875 54.6875 
L 56.203125 54.6875 
L 35.6875 0 
L 23.484375 0 
z
" id="DejaVuSans-118"/>
    </defs>
    <g transform="translate(325.912081 231.149902)rotate(-318.320289)scale(0.1 -0.1)">
     <use xlink:href="#DejaVuSans-114"/>
     <use x="41.082031" xlink:href="#DejaVuSans-101"/>
     <use x="102.605469" xlink:href="#DejaVuSans-108"/>
     <use x="130.388672" xlink:href="#DejaVuSans-97"/>
     <use x="191.667969" xlink:href="#DejaVuSans-116"/>
     <use x="230.876953" xlink:href="#DejaVuSans-105"/>
     <use x="258.660156" xlink:href="#DejaVuSans-118"/>
     <use x="317.839844" xlink:href="#DejaVuSans-101"/>
     <use x="379.363281" xlink:href="#DejaVuSans-32"/>
     <use x="411.150391" xlink:href="#DejaVuSans-99"/>
     <use x="466.130859" xlink:href="#DejaVuSans-111"/>
     <use x="527.3125" xlink:href="#DejaVuSans-117"/>
     <use x="590.691406" xlink:href="#DejaVuSans-110"/>
     <use x="654.070312" xlink:href="#DejaVuSans-116"/>
     <use x="693.279297" xlink:href="#DejaVuSans-32"/>
     <use x="725.066406" xlink:href="#DejaVuSans-116"/>
     <use x="764.275391" xlink:href="#DejaVuSans-104"/>
     <use x="827.654297" xlink:href="#DejaVuSans-114"/>
     <use x="868.736328" xlink:href="#DejaVuSans-101"/>
     <use x="930.259766" xlink:href="#DejaVuSans-115"/>
     <use x="982.359375" xlink:href="#DejaVuSans-104"/>
     <use x="1045.738281" xlink:href="#DejaVuSans-111"/>
     <use x="1106.919922" xlink:href="#DejaVuSans-108"/>
     <use x="1134.703125" xlink:href="#DejaVuSans-100"/>
    </g>
   </g>
   <g id="Line3DCollection_2">
    <path d="M 136.458002 93.531843 
L 136.515538 248.823436 
L 344.90655 248.862295 
" style="fill:none;stroke:#b0b0b0;stroke-width:0.8;"/>
    <path d="M 138.769427 94.969087 
L 138.824537 247.076077 
L 342.942186 247.113358 
" style="fill:none;stroke:#b0b0b0;stroke-width:0.8;"/>
    <path d="M 140.987928 96.34855 
L 141.04076 245.398928 
L 341.056787 245.434726 
" style="fill:none;stroke:#b0b0b0;stroke-width:0.8;"/>
    <path d="M 143.118999 97.67365 
L 143.169686 243.787841 
L 339.245684 243.822242 
" style="fill:none;stroke:#b0b0b0;stroke-width:0.8;"/>
    <path d="M 145.167708 98.947536 
L 145.216375 242.238988 
L 337.504571 242.272073 
" style="fill:none;stroke:#b0b0b0;stroke-width:0.8;"/>
   </g>
   <g id="xtick_7">
    <g id="line2d_9">
     <path d="M 343.238668 248.861984 
L 348.24235 248.862917 
" style="fill:none;stroke:#000000;stroke-linecap:square;stroke-width:0.8;"/>
    </g>
    <g id="text_9">
     <!-- 0.1 -->
     <defs>
      <path d="M 10.6875 12.40625 
L 21 12.40625 
L 21 0 
L 10.6875 0 
z
" id="DejaVuSans-46"/>
     </defs>
     <g transform="translate(351.72341 267.465778)scale(0.1 -0.1)">
      <use xlink:href="#DejaVuSans-48"/>
      <use x="63.623047" xlink:href="#DejaVuSans-46"/>
      <use x="95.410156" xlink:href="#DejaVuSans-49"/>
     </g>
    </g>
   </g>
   <g id="xtick_8">
    <g id="line2d_10">
     <path d="M 341.308522 247.11306 
L 346.20955 247.113955 
" style="fill:none;stroke:#000000;stroke-linecap:square;stroke-width:0.8;"/>
    </g>
    <g id="text_10">
     <!-- 0.2 -->
     <g transform="translate(349.456141 265.491126)scale(0.1 -0.1)">
      <use xlink:href="#DejaVuSans-48"/>
      <use x="63.623047" xlink:href="#DejaVuSans-46"/>
      <use x="95.410156" xlink:href="#DejaVuSans-50"/>
     </g>
    </g>
   </g>
   <g id="xtick_9">
    <g id="line2d_11">
     <path d="M 339.455964 245.43444 
L 344.258466 245.435299 
" style="fill:none;stroke:#000000;stroke-linecap:square;stroke-width:0.8;"/>
    </g>
    <g id="text_11">
     <!-- 0.3 -->
     <g transform="translate(347.280011 263.59585)scale(0.1 -0.1)">
      <use xlink:href="#DejaVuSans-48"/>
      <use x="63.623047" xlink:href="#DejaVuSans-46"/>
      <use x="95.410156" xlink:href="#DejaVuSans-51"/>
     </g>
    </g>
   </g>
   <g id="xtick_10">
    <g id="line2d_12">
     <path d="M 337.676409 243.821967 
L 342.384268 243.822793 
" style="fill:none;stroke:#000000;stroke-linecap:square;stroke-width:0.8;"/>
    </g>
    <g id="text_12">
     <!-- 0.4 -->
     <defs>
      <path d="M 37.796875 64.3125 
L 12.890625 25.390625 
L 37.796875 25.390625 
z
M 35.203125 72.90625 
L 47.609375 72.90625 
L 47.609375 25.390625 
L 58.015625 25.390625 
L 58.015625 17.1875 
L 47.609375 17.1875 
L 47.609375 0 
L 37.796875 0 
L 37.796875 17.1875 
L 4.890625 17.1875 
L 4.890625 26.703125 
z
" id="DejaVuSans-52"/>
     </defs>
     <g transform="translate(345.189633 261.77526)scale(0.1 -0.1)">
      <use xlink:href="#DejaVuSans-48"/>
      <use x="63.623047" xlink:href="#DejaVuSans-46"/>
      <use x="95.410156" xlink:href="#DejaVuSans-52"/>
     </g>
    </g>
   </g>
   <g id="xtick_11">
    <g id="line2d_13">
     <path d="M 335.965624 242.271808 
L 340.582497 242.272603 
" style="fill:none;stroke:#000000;stroke-linecap:square;stroke-width:0.8;"/>
    </g>
    <g id="text_13">
     <!-- 0.5 -->
     <g transform="translate(343.180038 260.025026)scale(0.1 -0.1)">
      <use xlink:href="#DejaVuSans-48"/>
      <use x="63.623047" xlink:href="#DejaVuSans-46"/>
      <use x="95.410156" xlink:href="#DejaVuSans-53"/>
     </g>
    </g>
   </g>
  </g>
  <g id="axis3d_3">
   <g id="line2d_14">
    <path d="M 336.947837 241.776395 
L 336.996315 99.328001 
" style="fill:none;stroke:#000000;stroke-linecap:square;stroke-width:0.8;"/>
   </g>
   <g id="text_14">
    <!-- frequent wrong programs ratio -->
    <defs>
     <path d="M 37.109375 75.984375 
L 37.109375 68.5 
L 28.515625 68.5 
Q 23.6875 68.5 21.796875 66.546875 
Q 19.921875 64.59375 19.921875 59.515625 
L 19.921875 54.6875 
L 34.71875 54.6875 
L 34.71875 47.703125 
L 19.921875 47.703125 
L 19.921875 0 
L 10.890625 0 
L 10.890625 47.703125 
L 2.296875 47.703125 
L 2.296875 54.6875 
L 10.890625 54.6875 
L 10.890625 58.5 
Q 10.890625 67.625 15.140625 71.796875 
Q 19.390625 75.984375 28.609375 75.984375 
z
" id="DejaVuSans-102"/>
     <path d="M 14.796875 27.296875 
Q 14.796875 17.390625 18.875 11.75 
Q 22.953125 6.109375 30.078125 6.109375 
Q 37.203125 6.109375 41.296875 11.75 
Q 45.40625 17.390625 45.40625 27.296875 
Q 45.40625 37.203125 41.296875 42.84375 
Q 37.203125 48.484375 30.078125 48.484375 
Q 22.953125 48.484375 18.875 42.84375 
Q 14.796875 37.203125 14.796875 27.296875 
z
M 45.40625 8.203125 
Q 42.578125 3.328125 38.25 0.953125 
Q 33.9375 -1.421875 27.875 -1.421875 
Q 17.96875 -1.421875 11.734375 6.484375 
Q 5.515625 14.40625 5.515625 27.296875 
Q 5.515625 40.1875 11.734375 48.09375 
Q 17.96875 56 27.875 56 
Q 33.9375 56 38.25 53.625 
Q 42.578125 51.265625 45.40625 46.390625 
L 45.40625 54.6875 
L 54.390625 54.6875 
L 54.390625 -20.796875 
L 45.40625 -20.796875 
z
" id="DejaVuSans-113"/>
     <path d="M 4.203125 54.6875 
L 13.1875 54.6875 
L 24.421875 12.015625 
L 35.59375 54.6875 
L 46.1875 54.6875 
L 57.421875 12.015625 
L 68.609375 54.6875 
L 77.59375 54.6875 
L 63.28125 0 
L 52.6875 0 
L 40.921875 44.828125 
L 29.109375 0 
L 18.5 0 
z
" id="DejaVuSans-119"/>
     <path d="M 45.40625 27.984375 
Q 45.40625 37.75 41.375 43.109375 
Q 37.359375 48.484375 30.078125 48.484375 
Q 22.859375 48.484375 18.828125 43.109375 
Q 14.796875 37.75 14.796875 27.984375 
Q 14.796875 18.265625 18.828125 12.890625 
Q 22.859375 7.515625 30.078125 7.515625 
Q 37.359375 7.515625 41.375 12.890625 
Q 45.40625 18.265625 45.40625 27.984375 
z
M 54.390625 6.78125 
Q 54.390625 -7.171875 48.1875 -13.984375 
Q 42 -20.796875 29.203125 -20.796875 
Q 24.46875 -20.796875 20.265625 -20.09375 
Q 16.0625 -19.390625 12.109375 -17.921875 
L 12.109375 -9.1875 
Q 16.0625 -11.328125 19.921875 -12.34375 
Q 23.78125 -13.375 27.78125 -13.375 
Q 36.625 -13.375 41.015625 -8.765625 
Q 45.40625 -4.15625 45.40625 5.171875 
L 45.40625 9.625 
Q 42.625 4.78125 38.28125 2.390625 
Q 33.9375 0 27.875 0 
Q 17.828125 0 11.671875 7.65625 
Q 5.515625 15.328125 5.515625 27.984375 
Q 5.515625 40.671875 11.671875 48.328125 
Q 17.828125 56 27.875 56 
Q 33.9375 56 38.28125 53.609375 
Q 42.625 51.21875 45.40625 46.390625 
L 45.40625 54.6875 
L 54.390625 54.6875 
z
" id="DejaVuSans-103"/>
     <path d="M 18.109375 8.203125 
L 18.109375 -20.796875 
L 9.078125 -20.796875 
L 9.078125 54.6875 
L 18.109375 54.6875 
L 18.109375 46.390625 
Q 20.953125 51.265625 25.265625 53.625 
Q 29.59375 56 35.59375 56 
Q 45.5625 56 51.78125 48.09375 
Q 58.015625 40.1875 58.015625 27.296875 
Q 58.015625 14.40625 51.78125 6.484375 
Q 45.5625 -1.421875 35.59375 -1.421875 
Q 29.59375 -1.421875 25.265625 0.953125 
Q 20.953125 3.328125 18.109375 8.203125 
z
M 48.6875 27.296875 
Q 48.6875 37.203125 44.609375 42.84375 
Q 40.53125 48.484375 33.40625 48.484375 
Q 26.265625 48.484375 22.1875 42.84375 
Q 18.109375 37.203125 18.109375 27.296875 
Q 18.109375 17.390625 22.1875 11.75 
Q 26.265625 6.109375 33.40625 6.109375 
Q 40.53125 6.109375 44.609375 11.75 
Q 48.6875 17.390625 48.6875 27.296875 
z
" id="DejaVuSans-112"/>
     <path d="M 52 44.1875 
Q 55.375 50.25 60.0625 53.125 
Q 64.75 56 71.09375 56 
Q 79.640625 56 84.28125 50.015625 
Q 88.921875 44.046875 88.921875 33.015625 
L 88.921875 0 
L 79.890625 0 
L 79.890625 32.71875 
Q 79.890625 40.578125 77.09375 44.375 
Q 74.3125 48.1875 68.609375 48.1875 
Q 61.625 48.1875 57.5625 43.546875 
Q 53.515625 38.921875 53.515625 30.90625 
L 53.515625 0 
L 44.484375 0 
L 44.484375 32.71875 
Q 44.484375 40.625 41.703125 44.40625 
Q 38.921875 48.1875 33.109375 48.1875 
Q 26.21875 48.1875 22.15625 43.53125 
Q 18.109375 38.875 18.109375 30.90625 
L 18.109375 0 
L 9.078125 0 
L 9.078125 54.6875 
L 18.109375 54.6875 
L 18.109375 46.1875 
Q 21.1875 51.21875 25.484375 53.609375 
Q 29.78125 56 35.6875 56 
Q 41.65625 56 45.828125 52.96875 
Q 50 49.953125 52 44.1875 
z
" id="DejaVuSans-109"/>
    </defs>
    <g transform="translate(367.397101 247.802703)rotate(-89.980501)scale(0.1 -0.1)">
     <use xlink:href="#DejaVuSans-102"/>
     <use x="35.205078" xlink:href="#DejaVuSans-114"/>
     <use x="76.287109" xlink:href="#DejaVuSans-101"/>
     <use x="137.810547" xlink:href="#DejaVuSans-113"/>
     <use x="201.287109" xlink:href="#DejaVuSans-117"/>
     <use x="264.666016" xlink:href="#DejaVuSans-101"/>
     <use x="326.189453" xlink:href="#DejaVuSans-110"/>
     <use x="389.568359" xlink:href="#DejaVuSans-116"/>
     <use x="428.777344" xlink:href="#DejaVuSans-32"/>
     <use x="460.564453" xlink:href="#DejaVuSans-119"/>
     <use x="542.351562" xlink:href="#DejaVuSans-114"/>
     <use x="583.433594" xlink:href="#DejaVuSans-111"/>
     <use x="644.615234" xlink:href="#DejaVuSans-110"/>
     <use x="707.994141" xlink:href="#DejaVuSans-103"/>
     <use x="771.470703" xlink:href="#DejaVuSans-32"/>
     <use x="803.257812" xlink:href="#DejaVuSans-112"/>
     <use x="866.734375" xlink:href="#DejaVuSans-114"/>
     <use x="907.816406" xlink:href="#DejaVuSans-111"/>
     <use x="968.998047" xlink:href="#DejaVuSans-103"/>
     <use x="1032.474609" xlink:href="#DejaVuSans-114"/>
     <use x="1073.587891" xlink:href="#DejaVuSans-97"/>
     <use x="1134.867188" xlink:href="#DejaVuSans-109"/>
     <use x="1232.279297" xlink:href="#DejaVuSans-115"/>
     <use x="1284.378906" xlink:href="#DejaVuSans-32"/>
     <use x="1316.166016" xlink:href="#DejaVuSans-114"/>
     <use x="1357.279297" xlink:href="#DejaVuSans-97"/>
     <use x="1418.558594" xlink:href="#DejaVuSans-116"/>
     <use x="1457.767578" xlink:href="#DejaVuSans-105"/>
     <use x="1485.550781" xlink:href="#DejaVuSans-111"/>
    </g>
   </g>
   <g id="Line3DCollection_3">
    <path d="M 336.948806 238.928837 
L 145.869866 238.897356 
L 134.527746 247.167919 
" style="fill:none;stroke:#b0b0b0;stroke-width:0.8;"/>
    <path d="M 336.955452 219.401174 
L 145.863282 219.377853 
L 134.519567 225.50501 
" style="fill:none;stroke:#b0b0b0;stroke-width:0.8;"/>
    <path d="M 336.962099 199.870807 
L 145.856697 199.855646 
L 134.511387 203.838771 
" style="fill:none;stroke:#b0b0b0;stroke-width:0.8;"/>
    <path d="M 336.968746 180.337735 
L 145.850111 180.330737 
L 134.503206 182.169203 
" style="fill:none;stroke:#b0b0b0;stroke-width:0.8;"/>
    <path d="M 336.975395 160.801956 
L 145.843524 160.803124 
L 134.495023 160.496305 
" style="fill:none;stroke:#b0b0b0;stroke-width:0.8;"/>
    <path d="M 336.982044 141.263471 
L 145.836936 141.272807 
L 134.486839 138.820075 
" style="fill:none;stroke:#b0b0b0;stroke-width:0.8;"/>
    <path d="M 336.988694 121.722279 
L 145.830347 121.739784 
L 134.478654 117.140514 
" style="fill:none;stroke:#b0b0b0;stroke-width:0.8;"/>
   </g>
   <g id="xtick_12">
    <g id="line2d_15">
     <path d="M 335.419541 238.928585 
L 340.007368 238.92934 
" style="fill:none;stroke:#000000;stroke-linecap:square;stroke-width:0.8;"/>
    </g>
    <g id="text_15">
     <!-- 0.00 -->
     <g transform="translate(338.655132 246.004687)scale(0.1 -0.1)">
      <use xlink:href="#DejaVuSans-48"/>
      <use x="63.623047" xlink:href="#DejaVuSans-46"/>
      <use x="95.410156" xlink:href="#DejaVuSans-48"/>
      <use x="159.033203" xlink:href="#DejaVuSans-48"/>
     </g>
    </g>
   </g>
   <g id="xtick_13">
    <g id="line2d_16">
     <path d="M 335.426081 219.400988 
L 340.014225 219.401548 
" style="fill:none;stroke:#000000;stroke-linecap:square;stroke-width:0.8;"/>
    </g>
    <g id="text_16">
     <!-- 0.05 -->
     <g transform="translate(338.662615 226.612462)scale(0.1 -0.1)">
      <use xlink:href="#DejaVuSans-48"/>
      <use x="63.623047" xlink:href="#DejaVuSans-46"/>
      <use x="95.410156" xlink:href="#DejaVuSans-48"/>
      <use x="159.033203" xlink:href="#DejaVuSans-53"/>
     </g>
    </g>
   </g>
   <g id="xtick_14">
    <g id="line2d_17">
     <path d="M 335.432621 199.870686 
L 340.021084 199.87105 
" style="fill:none;stroke:#000000;stroke-linecap:square;stroke-width:0.8;"/>
    </g>
    <g id="text_17">
     <!-- 0.10 -->
     <g transform="translate(338.670098 207.217569)scale(0.1 -0.1)">
      <use xlink:href="#DejaVuSans-48"/>
      <use x="63.623047" xlink:href="#DejaVuSans-46"/>
      <use x="95.410156" xlink:href="#DejaVuSans-49"/>
      <use x="159.033203" xlink:href="#DejaVuSans-48"/>
     </g>
    </g>
   </g>
   <g id="xtick_15">
    <g id="line2d_18">
     <path d="M 335.439163 180.337679 
L 340.027943 180.337847 
" style="fill:none;stroke:#000000;stroke-linecap:square;stroke-width:0.8;"/>
    </g>
    <g id="text_18">
     <!-- 0.15 -->
     <g transform="translate(338.677583 187.820009)scale(0.1 -0.1)">
      <use xlink:href="#DejaVuSans-48"/>
      <use x="63.623047" xlink:href="#DejaVuSans-46"/>
      <use x="95.410156" xlink:href="#DejaVuSans-49"/>
      <use x="159.033203" xlink:href="#DejaVuSans-53"/>
     </g>
    </g>
   </g>
   <g id="xtick_16">
    <g id="line2d_19">
     <path d="M 335.445705 160.801966 
L 340.034804 160.801938 
" style="fill:none;stroke:#000000;stroke-linecap:square;stroke-width:0.8;"/>
    </g>
    <g id="text_19">
     <!-- 0.20 -->
     <g transform="translate(338.685068 168.41978)scale(0.1 -0.1)">
      <use xlink:href="#DejaVuSans-48"/>
      <use x="63.623047" xlink:href="#DejaVuSans-46"/>
      <use x="95.410156" xlink:href="#DejaVuSans-50"/>
      <use x="159.033203" xlink:href="#DejaVuSans-48"/>
     </g>
    </g>
   </g>
   <g id="xtick_17">
    <g id="line2d_20">
     <path d="M 335.452249 141.263546 
L 340.041665 141.263322 
" style="fill:none;stroke:#000000;stroke-linecap:square;stroke-width:0.8;"/>
    </g>
    <g id="text_20">
     <!-- 0.25 -->
     <g transform="translate(338.692555 149.016882)scale(0.1 -0.1)">
      <use xlink:href="#DejaVuSans-48"/>
      <use x="63.623047" xlink:href="#DejaVuSans-46"/>
      <use x="95.410156" xlink:href="#DejaVuSans-50"/>
      <use x="159.033203" xlink:href="#DejaVuSans-53"/>
     </g>
    </g>
   </g>
   <g id="xtick_18">
    <g id="line2d_21">
     <path d="M 335.458793 121.722419 
L 340.048527 121.721999 
" style="fill:none;stroke:#000000;stroke-linecap:square;stroke-width:0.8;"/>
    </g>
    <g id="text_21">
     <!-- 0.30 -->
     <g transform="translate(338.700043 129.611314)scale(0.1 -0.1)">
      <use xlink:href="#DejaVuSans-48"/>
      <use x="63.623047" xlink:href="#DejaVuSans-46"/>
      <use x="95.410156" xlink:href="#DejaVuSans-51"/>
      <use x="159.033203" xlink:href="#DejaVuSans-48"/>
     </g>
    </g>
   </g>
  </g>
  <g id="axes_1">
   <g id="Line3DCollection_4">
    <path clip-path="url(#p22d6efde35)" d="M 148.689489 155.997473 
L 169.110798 157.719232 
L 189.534177 162.153473 
L 209.958999 168.955885 
L 230.384681 176.275206 
L 250.811125 183.680904 
L 271.238594 188.546807 
L 291.666844 195.307289 
L 312.097047 197.676666 
L 332.528901 199.529558 
" style="fill:none;stroke:#0000ff;stroke-width:1.5;"/>
    <path clip-path="url(#p22d6efde35)" d="M 149.75242 191.004751 
L 169.957148 191.474467 
L 190.163657 192.284967 
L 210.371924 193.904828 
L 230.581776 196.334129 
L 250.793068 198.721006 
L 271.005788 201.278445 
L 291.219602 205.667801 
L 311.435341 206.99026 
L 331.652746 208.099817 
" style="fill:none;stroke:#0000ff;stroke-width:1.5;"/>
    <path clip-path="url(#p22d6efde35)" d="M 150.787679 208.421996 
L 170.78183 208.718971 
L 190.777688 209.015971 
L 210.775268 209.439441 
L 230.774562 210.537346 
L 250.775488 210.5394 
L 270.778058 211.553134 
L 290.782161 212.988496 
L 310.788081 213.327908 
L 330.795584 214.046772 
" style="fill:none;stroke:#0000ff;stroke-width:1.5;"/>
    <path clip-path="url(#p22d6efde35)" d="M 151.799142 217.764152 
L 171.587601 217.891627 
L 191.377771 218.102536 
L 211.169603 218.104896 
L 230.963161 218.440978 
L 250.758398 218.443353 
L 270.555266 219.238383 
L 290.35373 220.075197 
L 310.153996 220.077643 
L 329.955978 220.080089 
" style="fill:none;stroke:#0000ff;stroke-width:1.5;"/>
    <path clip-path="url(#p22d6efde35)" d="M 152.789515 225.347327 
L 172.376591 225.349974 
L 191.965381 225.55905 
L 211.5558 225.561706 
L 231.147899 225.564362 
L 250.741676 225.567018 
L 270.337082 226.065191 
L 289.934185 226.067868 
L 309.532968 226.070546 
L 329.133432 226.073224 
" style="fill:none;stroke:#0000ff;stroke-width:1.5;"/>
    <path clip-path="url(#p22d6efde35)" d="M 153.758935 229.549291 
L 173.148936 229.552089 
L 192.540583 229.554887 
L 211.933875 229.557686 
L 231.328812 229.560484 
L 250.725395 229.563283 
L 270.123599 229.811343 
L 289.523458 229.814153 
L 308.924963 229.816963 
L 328.328115 229.819773 
" style="fill:none;stroke:#0000ff;stroke-width:1.5;"/>
    <path clip-path="url(#p22d6efde35)" d="M 154.709299 234.51716 
L 173.906094 234.520139 
L 193.104502 234.523117 
L 212.304522 234.526097 
L 231.506156 234.529076 
L 250.709402 234.532056 
L 269.914262 234.535036 
L 289.120736 234.538016 
L 308.328823 234.540996 
L 327.538525 234.543977 
" style="fill:none;stroke:#0000ff;stroke-width:1.5;"/>
    <path clip-path="url(#p22d6efde35)" d="M 155.639634 235.180769 
L 174.647319 235.183746 
L 193.656584 235.186724 
L 212.667431 235.189701 
L 231.67986 235.192679 
L 250.69387 235.195656 
L 269.709461 235.198635 
L 288.726635 235.201613 
L 307.745391 235.204592 
L 326.765729 235.20757 
" style="fill:none;stroke:#0000ff;stroke-width:1.5;"/>
    <path clip-path="url(#p22d6efde35)" d="M 156.551827 235.871099 
L 175.374088 235.874075 
L 194.1979 235.877052 
L 213.023262 235.880028 
L 231.850175 235.883005 
L 250.678639 235.885983 
L 269.508654 235.88896 
L 288.34022 235.891938 
L 307.173337 235.894916 
L 326.008006 235.897894 
" style="fill:none;stroke:#0000ff;stroke-width:1.5;"/>
    <path clip-path="url(#p22d6efde35)" d="M 157.446787 237.883787 
L 176.08712 237.886817 
L 194.728973 237.889847 
L 213.372347 237.892877 
L 232.017241 237.895907 
L 250.663657 237.898938 
L 269.311593 237.901968 
L 287.961051 237.904999 
L 306.612031 237.908031 
L 325.264532 237.911062 
" style="fill:none;stroke:#0000ff;stroke-width:1.5;"/>
    <path clip-path="url(#p22d6efde35)" d="M 148.689489 155.997473 
L 149.75242 191.004751 
L 150.787679 208.421996 
L 151.799142 217.764152 
L 152.789515 225.347327 
L 153.758935 229.549291 
L 154.709299 234.51716 
L 155.639634 235.180769 
L 156.551827 235.871099 
L 157.446787 237.883787 
" style="fill:none;stroke:#0000ff;stroke-width:1.5;"/>
    <path clip-path="url(#p22d6efde35)" d="M 169.110798 157.719232 
L 169.957148 191.474467 
L 170.78183 208.718971 
L 171.587601 217.891627 
L 172.376591 225.349974 
L 173.148936 229.552089 
L 173.906094 234.520139 
L 174.647319 235.183746 
L 175.374088 235.874075 
L 176.08712 237.886817 
" style="fill:none;stroke:#0000ff;stroke-width:1.5;"/>
    <path clip-path="url(#p22d6efde35)" d="M 189.534177 162.153473 
L 190.163657 192.284967 
L 190.777688 209.015971 
L 191.377771 218.102536 
L 191.965381 225.55905 
L 192.540583 229.554887 
L 193.104502 234.523117 
L 193.656584 235.186724 
L 194.1979 235.877052 
L 194.728973 237.889847 
" style="fill:none;stroke:#0000ff;stroke-width:1.5;"/>
    <path clip-path="url(#p22d6efde35)" d="M 209.958999 168.955885 
L 210.371924 193.904828 
L 210.775268 209.439441 
L 211.169603 218.104896 
L 211.5558 225.561706 
L 211.933875 229.557686 
L 212.304522 234.526097 
L 212.667431 235.189701 
L 213.023262 235.880028 
L 213.372347 237.892877 
" style="fill:none;stroke:#0000ff;stroke-width:1.5;"/>
    <path clip-path="url(#p22d6efde35)" d="M 230.384681 176.275206 
L 230.581776 196.334129 
L 230.774562 210.537346 
L 230.963161 218.440978 
L 231.147899 225.564362 
L 231.328812 229.560484 
L 231.506156 234.529076 
L 231.67986 235.192679 
L 231.850175 235.883005 
L 232.017241 237.895907 
" style="fill:none;stroke:#0000ff;stroke-width:1.5;"/>
    <path clip-path="url(#p22d6efde35)" d="M 250.811125 183.680904 
L 250.793068 198.721006 
L 250.775488 210.5394 
L 250.758398 218.443353 
L 250.741676 225.567018 
L 250.725395 229.563283 
L 250.709402 234.532056 
L 250.69387 235.195656 
L 250.678639 235.885983 
L 250.663657 237.898938 
" style="fill:none;stroke:#0000ff;stroke-width:1.5;"/>
    <path clip-path="url(#p22d6efde35)" d="M 271.238594 188.546807 
L 271.005788 201.278445 
L 270.778058 211.553134 
L 270.555266 219.238383 
L 270.337082 226.065191 
L 270.123599 229.811343 
L 269.914262 234.535036 
L 269.709461 235.198635 
L 269.508654 235.88896 
L 269.311593 237.901968 
" style="fill:none;stroke:#0000ff;stroke-width:1.5;"/>
    <path clip-path="url(#p22d6efde35)" d="M 291.666844 195.307289 
L 291.219602 205.667801 
L 290.782161 212.988496 
L 290.35373 220.075197 
L 289.934185 226.067868 
L 289.523458 229.814153 
L 289.120736 234.538016 
L 288.726635 235.201613 
L 288.34022 235.891938 
L 287.961051 237.904999 
" style="fill:none;stroke:#0000ff;stroke-width:1.5;"/>
    <path clip-path="url(#p22d6efde35)" d="M 312.097047 197.676666 
L 311.435341 206.99026 
L 310.788081 213.327908 
L 310.153996 220.077643 
L 309.532968 226.070546 
L 308.924963 229.816963 
L 308.328823 234.540996 
L 307.745391 235.204592 
L 307.173337 235.894916 
L 306.612031 237.908031 
" style="fill:none;stroke:#0000ff;stroke-width:1.5;"/>
    <path clip-path="url(#p22d6efde35)" d="M 332.528901 199.529558 
L 331.652746 208.099817 
L 330.795584 214.046772 
L 329.955978 220.080089 
L 329.133432 226.073224 
L 328.328115 229.819773 
L 327.538525 234.543977 
L 326.765729 235.20757 
L 326.008006 235.897894 
L 325.264532 237.911062 
" style="fill:none;stroke:#0000ff;stroke-width:1.5;"/>
   </g>
  </g>
 </g>
 <defs>
  <clipPath id="p22d6efde35">
   <rect height="266.112" width="357.12" x="57.6" y="41.472"/>
  </clipPath>
 </defs>
</svg>
