<?xml version="1.0" encoding="UTF-8" standalone="no"?>
<!-- Created with matplotlib (https://matplotlib.org/) -->

<svg
   xmlns:dc="http://purl.org/dc/elements/1.1/"
   xmlns:cc="http://creativecommons.org/ns#"
   xmlns:rdf="http://www.w3.org/1999/02/22-rdf-syntax-ns#"
   xmlns:svg="http://www.w3.org/2000/svg"
   xmlns="http://www.w3.org/2000/svg"
   xmlns:xlink="http://www.w3.org/1999/xlink"
   xmlns:sodipodi="http://sodipodi.sourceforge.net/DTD/sodipodi-0.dtd"
   xmlns:inkscape="http://www.inkscape.org/namespaces/inkscape"
   height="342pt"
   version="1.1"
   viewBox="0 0 473.76 342"
   width="473.76pt"
   id="svg1617"
   sodipodi:docname="task_sessions.svg"
   inkscape:version="0.92.3 (unknown)">
  <metadata
     id="metadata1621">
    <rdf:RDF>
      <cc:Work
         rdf:about="">
        <dc:format>image/svg+xml</dc:format>
        <dc:type
           rdf:resource="http://purl.org/dc/dcmitype/StillImage" />
      </cc:Work>
    </rdf:RDF>
  </metadata>
  <sodipodi:namedview
     pagecolor="#ffffff"
     bordercolor="#666666"
     borderopacity="1"
     objecttolerance="10"
     gridtolerance="10"
     guidetolerance="10"
     inkscape:pageopacity="0"
     inkscape:pageshadow="2"
     inkscape:window-width="1920"
     inkscape:window-height="1052"
     id="namedview1619"
     showgrid="false"
     inkscape:zoom="1.4638351"
     inkscape:cx="325.58757"
     inkscape:cy="182.47744"
     inkscape:window-x="8"
     inkscape:window-y="0"
     inkscape:window-maximized="1"
     inkscape:current-layer="axes_1" />
  <defs
     id="defs4">
    <style
       type="text/css"
       id="style2">
*{stroke-linecap:butt;stroke-linejoin:round;}
  </style>
    <defs
       id="defs1389">
      <path
         style="stroke-linecap:butt;stroke-linejoin:round"
         inkscape:connector-curvature="0"
         id="DejaVuSans-116"
         d="M 18.3125,70.21875 V 54.6875 h 18.5 v -6.984375 h -18.5 v -29.6875 q 0,-6.6875 1.828125,-8.59375 1.828125,-1.90625 7.453125,-1.90625 H 36.8125 V 0 H 27.59375 Q 17.1875,0 13.234375,3.875 9.28125,7.765625 9.28125,18.015625 v 29.6875 H 2.6875 V 54.6875 h 6.59375 v 15.53125 z" />
      <path
         style="stroke-linecap:butt;stroke-linejoin:round"
         inkscape:connector-curvature="0"
         id="DejaVuSans-97"
         d="m 34.28125,27.484375 q -10.890625,0 -15.09375,-2.484375 -4.203125,-2.484375 -4.203125,-8.5 0,-4.78125 3.15625,-7.59375 3.15625,-2.796875 8.5625,-2.796875 7.484375,0 12,5.296875 4.515625,5.296875 4.515625,14.078125 v 2 z m 17.921875,3.71875 V 0 H 43.21875 v 8.296875 q -3.078125,-4.96875 -7.671875,-7.34375 -4.59375,-2.375 -11.234375,-2.375 -8.390625,0 -13.359375,4.71875 Q 6,8.015625 6,15.921875 q 0,9.21875 6.171875,13.90625 6.1875,4.6875 18.4375,4.6875 H 43.21875 v 0.890625 q 0,6.203125 -4.078125,9.59375 -4.078125,3.390625 -11.453125,3.390625 -4.6875,0 -9.140625,-1.125 -4.4375,-1.125 -8.53125,-3.375 v 8.3125 q 4.921875,1.90625 9.5625,2.84375 Q 24.21875,56 28.609375,56 q 11.875,0 17.734375,-6.15625 5.859375,-6.140625 5.859375,-18.640625 z" />
      <path
         style="stroke-linecap:butt;stroke-linejoin:round"
         inkscape:connector-curvature="0"
         id="DejaVuSans-115"
         d="m 44.28125,53.078125 v -8.5 Q 40.484375,46.53125 36.375,47.5 q -4.09375,0.984375 -8.5,0.984375 -6.6875,0 -10.03125,-2.046875 Q 14.5,44.390625 14.5,40.28125 q 0,-3.125 2.390625,-4.90625 2.390625,-1.78125 9.625,-3.390625 l 3.078125,-0.6875 Q 39.15625,29.25 43.1875,25.515625 47.21875,21.78125 47.21875,15.09375 q 0,-7.625 -6.03125,-12.078125 -6.03125,-4.4375 -16.578125,-4.4375 -4.390625,0 -9.15625,0.859375 Q 10.6875,0.296875 5.421875,2 v 9.28125 q 4.984375,-2.59375 9.8125,-3.890625 4.828125,-1.28125 9.578125,-1.28125 6.34375,0 9.75,2.171875 3.421875,2.171875 3.421875,6.125 0,3.65625 -2.46875,5.609375 -2.453125,1.953125 -10.8125,3.765625 l -3.125,0.734375 q -8.34375,1.75 -12.0625,5.390625 -3.703125,3.640625 -3.703125,9.984375 0,7.71875 5.46875,11.90625 Q 16.75,56 26.8125,56 q 4.96875,0 9.359375,-0.734375 4.40625,-0.71875 8.109375,-2.1875 z" />
      <path
         style="stroke-linecap:butt;stroke-linejoin:round"
         inkscape:connector-curvature="0"
         id="DejaVuSans-107"
         d="m 9.078125,75.984375 h 9.03125 v -44.875 l 26.8125,23.578125 h 11.46875 l -29,-25.578125 L 57.625,0 H 45.90625 L 18.109375,26.703125 V 0 h -9.03125 z" />
    </defs>
  </defs>
  <g
     id="figure_1">
    <g
       id="patch_1">
      <path
         d="M 0 342  L 473.76 342  L 473.76 0  L 0 0  z "
         style="fill:#ffffff;"
         id="path6" />
    </g>
    <g
       id="axes_1">
      <g
         id="patch_2">
        <path
           d="M 59.22 304.38  L 426.384 304.38  L 426.384 41.04  L 59.22 41.04  z "
           style="fill:#ffffff;"
           id="path9" />
      </g>
      <g
         id="patch_3">
        <path
           clip-path="url(#p701cc33809)"
           d="M 60.299894 304.38  L 62.459682 304.38  L 62.459682 53.58  L 60.299894 53.58  z "
           style="fill:#1f77b4;"
           id="path12" />
      </g>
      <g
         id="patch_4">
        <path
           clip-path="url(#p701cc33809)"
           d="M 64.619471 304.38  L 66.779259 304.38  L 66.779259 113.794272  L 64.619471 113.794272  z "
           style="fill:#1f77b4;"
           id="path15" />
      </g>
      <g
         id="patch_5">
        <path
           clip-path="url(#p701cc33809)"
           d="M 68.939047 304.38  L 71.098835 304.38  L 71.098835 116.339657  L 68.939047 116.339657  z "
           style="fill:#1f77b4;"
           id="path18" />
      </g>
      <g
         id="patch_6">
        <path
           clip-path="url(#p701cc33809)"
           d="M 73.258624 304.38  L 75.418412 304.38  L 75.418412 121.112255  L 73.258624 121.112255  z "
           style="fill:#1f77b4;"
           id="path21" />
      </g>
      <g
         id="patch_7">
        <path
           clip-path="url(#p701cc33809)"
           d="M 77.5782 304.38  L 79.737988 304.38  L 79.737988 122.305404  L 77.5782 122.305404  z "
           style="fill:#1f77b4;"
           id="path24" />
      </g>
      <g
         id="patch_8">
        <path
           clip-path="url(#p701cc33809)"
           d="M 81.897776 304.38  L 84.057565 304.38  L 84.057565 143.94118  L 81.897776 143.94118  z "
           style="fill:#1f77b4;"
           id="path27" />
      </g>
      <g
         id="patch_9">
        <path
           clip-path="url(#p701cc33809)"
           d="M 86.217353 304.38  L 88.377141 304.38  L 88.377141 143.94118  L 86.217353 143.94118  z "
           style="fill:#1f77b4;"
           id="path30" />
      </g>
      <g
         id="patch_10">
        <path
           clip-path="url(#p701cc33809)"
           d="M 90.536929 304.38  L 92.696718 304.38  L 92.696718 149.429667  L 90.536929 149.429667  z "
           style="fill:#1f77b4;"
           id="path33" />
      </g>
      <g
         id="patch_11">
        <path
           clip-path="url(#p701cc33809)"
           d="M 94.856506 304.38  L 97.016294 304.38  L 97.016294 153.804548  L 94.856506 153.804548  z "
           style="fill:#1f77b4;"
           id="path36" />
      </g>
      <g
         id="patch_12">
        <path
           clip-path="url(#p701cc33809)"
           d="M 99.176082 304.38  L 101.335871 304.38  L 101.335871 154.838611  L 99.176082 154.838611  z "
           style="fill:#1f77b4;"
           id="path39" />
      </g>
      <g
         id="patch_13">
        <path
           clip-path="url(#p701cc33809)"
           d="M 103.495659 304.38  L 105.655447 304.38  L 105.655447 162.156594  L 103.495659 162.156594  z "
           style="fill:#1f77b4;"
           id="path42" />
      </g>
      <g
         id="patch_14">
        <path
           clip-path="url(#p701cc33809)"
           d="M 107.815235 304.38  L 109.975024 304.38  L 109.975024 169.235947  L 107.815235 169.235947  z "
           style="fill:#1f77b4;"
           id="path45" />
      </g>
      <g
         id="patch_15">
        <path
           clip-path="url(#p701cc33809)"
           d="M 112.134812 304.38  L 114.2946 304.38  L 114.2946 169.633663  L 112.134812 169.633663  z "
           style="fill:#1f77b4;"
           id="path48" />
      </g>
      <g
         id="patch_16">
        <path
           clip-path="url(#p701cc33809)"
           d="M 116.454388 304.38  L 118.614176 304.38  L 118.614176 171.065442  L 116.454388 171.065442  z "
           style="fill:#1f77b4;"
           id="path51" />
      </g>
      <g
         id="patch_17">
        <path
           clip-path="url(#p701cc33809)"
           d="M 120.773965 304.38  L 122.933753 304.38  L 122.933753 171.940419  L 120.773965 171.940419  z "
           style="fill:#1f77b4;"
           id="path54" />
      </g>
      <g
         id="patch_18">
        <path
           clip-path="url(#p701cc33809)"
           d="M 125.093541 304.38  L 127.253329 304.38  L 127.253329 174.485804  L 125.093541 174.485804  z "
           style="fill:#1f77b4;"
           id="path57" />
      </g>
      <g
         id="patch_19">
        <path
           clip-path="url(#p701cc33809)"
           d="M 129.413118 304.38  L 131.572906 304.38  L 131.572906 176.474386  L 129.413118 176.474386  z "
           style="fill:#1f77b4;"
           id="path60" />
      </g>
      <g
         id="patch_20">
        <path
           clip-path="url(#p701cc33809)"
           d="M 133.732694 304.38  L 135.892482 304.38  L 135.892482 183.394653  L 133.732694 183.394653  z "
           style="fill:#1f77b4;"
           id="path63" />
      </g>
      <g
         id="patch_21">
        <path
           clip-path="url(#p701cc33809)"
           d="M 138.052271 304.38  L 140.212059 304.38  L 140.212059 188.64451  L 138.052271 188.64451  z "
           style="fill:#1f77b4;"
           id="path66" />
      </g>
      <g
         id="patch_22">
        <path
           clip-path="url(#p701cc33809)"
           d="M 142.371847 304.38  L 144.531635 304.38  L 144.531635 214.575623  L 142.371847 214.575623  z "
           style="fill:#1f77b4;"
           id="path69" />
      </g>
      <g
         id="patch_23">
        <path
           clip-path="url(#p701cc33809)"
           d="M 146.691424 304.38  L 148.851212 304.38  L 148.851212 214.893796  L 146.691424 214.893796  z "
           style="fill:#1f77b4;"
           id="path72" />
      </g>
      <g
         id="patch_24">
        <path
           clip-path="url(#p701cc33809)"
           d="M 151.011 304.38  L 153.170788 304.38  L 153.170788 218.950504  L 151.011 218.950504  z "
           style="fill:#1f77b4;"
           id="path75" />
      </g>
      <g
         id="patch_25">
        <path
           clip-path="url(#p701cc33809)"
           d="M 155.330576 304.38  L 157.490365 304.38  L 157.490365 221.49589  L 155.330576 221.49589  z "
           style="fill:#1f77b4;"
           id="path78" />
      </g>
      <g
         id="patch_26">
        <path
           clip-path="url(#p701cc33809)"
           d="M 159.650153 304.38  L 161.809941 304.38  L 161.809941 224.518535  L 159.650153 224.518535  z "
           style="fill:#1f77b4;"
           id="path81" />
      </g>
      <g
         id="patch_27">
        <path
           clip-path="url(#p701cc33809)"
           d="M 163.969729 304.38  L 166.129518 304.38  L 166.129518 226.904833  L 163.969729 226.904833  z "
           style="fill:#1f77b4;"
           id="path84" />
      </g>
      <g
         id="patch_28">
        <path
           clip-path="url(#p701cc33809)"
           d="M 168.289306 304.38  L 170.449094 304.38  L 170.449094 229.052502  L 168.289306 229.052502  z "
           style="fill:#1f77b4;"
           id="path87" />
      </g>
      <g
         id="patch_29">
        <path
           clip-path="url(#p701cc33809)"
           d="M 172.608882 304.38  L 174.768671 304.38  L 174.768671 230.245652  L 172.608882 230.245652  z "
           style="fill:#1f77b4;"
           id="path90" />
      </g>
      <g
         id="patch_30">
        <path
           clip-path="url(#p701cc33809)"
           d="M 176.928459 304.38  L 179.088247 304.38  L 179.088247 231.518344  L 176.928459 231.518344  z "
           style="fill:#1f77b4;"
           id="path93" />
      </g>
      <g
         id="patch_31">
        <path
           clip-path="url(#p701cc33809)"
           d="M 181.248035 304.38  L 183.407824 304.38  L 183.407824 231.836518  L 181.248035 231.836518  z "
           style="fill:#1f77b4;"
           id="path96" />
      </g>
      <g
         id="patch_32">
        <path
           clip-path="url(#p701cc33809)"
           d="M 185.567612 304.38  L 187.7274 304.38  L 187.7274 232.87058  L 185.567612 232.87058  z "
           style="fill:#1f77b4;"
           id="path99" />
      </g>
      <g
         id="patch_33">
        <path
           clip-path="url(#p701cc33809)"
           d="M 189.887188 304.38  L 192.046976 304.38  L 192.046976 235.177336  L 189.887188 235.177336  z "
           style="fill:#1f77b4;"
           id="path102" />
      </g>
      <g
         id="patch_34">
        <path
           clip-path="url(#p701cc33809)"
           d="M 194.206765 304.38  L 196.366553 304.38  L 196.366553 244.802074  L 194.206765 244.802074  z "
           style="fill:#1f77b4;"
           id="path105" />
      </g>
      <g
         id="patch_35">
        <path
           clip-path="url(#p701cc33809)"
           d="M 198.526341 304.38  L 200.686129 304.38  L 200.686129 245.517964  L 198.526341 245.517964  z "
           style="fill:#1f77b4;"
           id="path108" />
      </g>
      <g
         id="patch_36">
        <path
           clip-path="url(#p701cc33809)"
           d="M 202.845918 304.38  L 205.005706 304.38  L 205.005706 248.461066  L 202.845918 248.461066  z "
           style="fill:#1f77b4;"
           id="path111" />
      </g>
      <g
         id="patch_37">
        <path
           clip-path="url(#p701cc33809)"
           d="M 207.165494 304.38  L 209.325282 304.38  L 209.325282 251.960971  L 207.165494 251.960971  z "
           style="fill:#1f77b4;"
           id="path114" />
      </g>
      <g
         id="patch_38">
        <path
           clip-path="url(#p701cc33809)"
           d="M 211.485071 304.38  L 213.644859 304.38  L 213.644859 255.779049  L 211.485071 255.779049  z "
           style="fill:#1f77b4;"
           id="path117" />
      </g>
      <g
         id="patch_39">
        <path
           clip-path="url(#p701cc33809)"
           d="M 215.804647 304.38  L 217.964435 304.38  L 217.964435 256.256308  L 215.804647 256.256308  z "
           style="fill:#1f77b4;"
           id="path120" />
      </g>
      <g
         id="patch_40">
        <path
           clip-path="url(#p701cc33809)"
           d="M 220.124224 304.38  L 222.284012 304.38  L 222.284012 258.085804  L 220.124224 258.085804  z "
           style="fill:#1f77b4;"
           id="path123" />
      </g>
      <g
         id="patch_41">
        <path
           clip-path="url(#p701cc33809)"
           d="M 224.4438 304.38  L 226.603588 304.38  L 226.603588 259.19941  L 224.4438 259.19941  z "
           style="fill:#1f77b4;"
           id="path126" />
      </g>
      <g
         id="patch_42">
        <path
           clip-path="url(#p701cc33809)"
           d="M 228.763376 304.38  L 230.923165 304.38  L 230.923165 261.187992  L 228.763376 261.187992  z "
           style="fill:#1f77b4;"
           id="path129" />
      </g>
      <g
         id="patch_43">
        <path
           clip-path="url(#p701cc33809)"
           d="M 233.082953 304.38  L 235.242741 304.38  L 235.242741 261.187992  L 233.082953 261.187992  z "
           style="fill:#1f77b4;"
           id="path132" />
      </g>
      <g
         id="patch_44">
        <path
           clip-path="url(#p701cc33809)"
           d="M 237.402529 304.38  L 239.562318 304.38  L 239.562318 268.346889  L 237.402529 268.346889  z "
           style="fill:#1f77b4;"
           id="path135" />
      </g>
      <g
         id="patch_45">
        <path
           clip-path="url(#p701cc33809)"
           d="M 241.722106 304.38  L 243.881894 304.38  L 243.881894 268.744605  L 241.722106 268.744605  z "
           style="fill:#1f77b4;"
           id="path138" />
      </g>
      <g
         id="patch_46">
        <path
           clip-path="url(#p701cc33809)"
           d="M 246.041682 304.38  L 248.201471 304.38  L 248.201471 268.983235  L 246.041682 268.983235  z "
           style="fill:#1f77b4;"
           id="path141" />
      </g>
      <g
         id="patch_47">
        <path
           clip-path="url(#p701cc33809)"
           d="M 250.361259 304.38  L 252.521047 304.38  L 252.521047 269.699125  L 250.361259 269.699125  z "
           style="fill:#1f77b4;"
           id="path144" />
      </g>
      <g
         id="patch_48">
        <path
           clip-path="url(#p701cc33809)"
           d="M 254.680835 304.38  L 256.840624 304.38  L 256.840624 271.210447  L 254.680835 271.210447  z "
           style="fill:#1f77b4;"
           id="path147" />
      </g>
      <g
         id="patch_49">
        <path
           clip-path="url(#p701cc33809)"
           d="M 259.000412 304.38  L 261.1602 304.38  L 261.1602 273.755833  L 259.000412 273.755833  z "
           style="fill:#1f77b4;"
           id="path150" />
      </g>
      <g
         id="patch_50">
        <path
           clip-path="url(#p701cc33809)"
           d="M 263.319988 304.38  L 265.479776 304.38  L 265.479776 274.074006  L 263.319988 274.074006  z "
           style="fill:#1f77b4;"
           id="path153" />
      </g>
      <g
         id="patch_51">
        <path
           clip-path="url(#p701cc33809)"
           d="M 267.639565 304.38  L 269.799353 304.38  L 269.799353 276.062588  L 267.639565 276.062588  z "
           style="fill:#1f77b4;"
           id="path156" />
      </g>
      <g
         id="patch_52">
        <path
           clip-path="url(#p701cc33809)"
           d="M 271.959141 304.38  L 274.118929 304.38  L 274.118929 276.778478  L 271.959141 276.778478  z "
           style="fill:#1f77b4;"
           id="path159" />
      </g>
      <g
         id="patch_53">
        <path
           clip-path="url(#p701cc33809)"
           d="M 276.278718 304.38  L 278.438506 304.38  L 278.438506 279.48295  L 276.278718 279.48295  z "
           style="fill:#1f77b4;"
           id="path162" />
      </g>
      <g
         id="patch_54">
        <path
           clip-path="url(#p701cc33809)"
           d="M 280.598294 304.38  L 282.758082 304.38  L 282.758082 280.596556  L 280.598294 280.596556  z "
           style="fill:#1f77b4;"
           id="path165" />
      </g>
      <g
         id="patch_55">
        <path
           clip-path="url(#p701cc33809)"
           d="M 284.917871 304.38  L 287.077659 304.38  L 287.077659 282.982854  L 284.917871 282.982854  z "
           style="fill:#1f77b4;"
           id="path168" />
      </g>
      <g
         id="patch_56">
        <path
           clip-path="url(#p701cc33809)"
           d="M 289.237447 304.38  L 291.397235 304.38  L 291.397235 282.982854  L 289.237447 282.982854  z "
           style="fill:#1f77b4;"
           id="path171" />
      </g>
      <g
         id="patch_57">
        <path
           clip-path="url(#p701cc33809)"
           d="M 293.557024 304.38  L 295.716812 304.38  L 295.716812 283.141941  L 293.557024 283.141941  z "
           style="fill:#1f77b4;"
           id="path174" />
      </g>
      <g
         id="patch_58">
        <path
           clip-path="url(#p701cc33809)"
           d="M 297.8766 304.38  L 300.036388 304.38  L 300.036388 287.675909  L 297.8766 287.675909  z "
           style="fill:#1f77b4;"
           id="path177" />
      </g>
      <g
         id="patch_59">
        <path
           clip-path="url(#p701cc33809)"
           d="M 302.196176 304.38  L 304.355965 304.38  L 304.355965 289.744034  L 302.196176 289.744034  z "
           style="fill:#1f77b4;"
           id="path180" />
      </g>
      <g
         id="patch_60">
        <path
           clip-path="url(#p701cc33809)"
           d="M 306.515753 304.38  L 308.675541 304.38  L 308.675541 290.380381  L 306.515753 290.380381  z "
           style="fill:#1f77b4;"
           id="path183" />
      </g>
      <g
         id="patch_61">
        <path
           clip-path="url(#p701cc33809)"
           d="M 310.835329 304.38  L 312.995118 304.38  L 312.995118 290.539467  L 310.835329 290.539467  z "
           style="fill:#1f77b4;"
           id="path186" />
      </g>
      <g
         id="patch_62">
        <path
           clip-path="url(#p701cc33809)"
           d="M 315.154906 304.38  L 317.314694 304.38  L 317.314694 291.09627  L 315.154906 291.09627  z "
           style="fill:#1f77b4;"
           id="path189" />
      </g>
      <g
         id="patch_63">
        <path
           clip-path="url(#p701cc33809)"
           d="M 319.474482 304.38  L 321.634271 304.38  L 321.634271 292.05079  L 319.474482 292.05079  z "
           style="fill:#1f77b4;"
           id="path192" />
      </g>
      <g
         id="patch_64">
        <path
           clip-path="url(#p701cc33809)"
           d="M 323.794059 304.38  L 325.953847 304.38  L 325.953847 292.209876  L 323.794059 292.209876  z "
           style="fill:#1f77b4;"
           id="path195" />
      </g>
      <g
         id="patch_65">
        <path
           clip-path="url(#p701cc33809)"
           d="M 328.113635 304.38  L 330.273424 304.38  L 330.273424 292.528049  L 328.113635 292.528049  z "
           style="fill:#1f77b4;"
           id="path198" />
      </g>
      <g
         id="patch_66">
        <path
           clip-path="url(#p701cc33809)"
           d="M 332.433212 304.38  L 334.593 304.38  L 334.593 292.607593  L 332.433212 292.607593  z "
           style="fill:#1f77b4;"
           id="path201" />
      </g>
      <g
         id="patch_67">
        <path
           clip-path="url(#p701cc33809)"
           d="M 336.752788 304.38  L 338.912576 304.38  L 338.912576 292.925766  L 336.752788 292.925766  z "
           style="fill:#1f77b4;"
           id="path204" />
      </g>
      <g
         id="patch_68">
        <path
           clip-path="url(#p701cc33809)"
           d="M 341.072365 304.38  L 343.232153 304.38  L 343.232153 293.800742  L 341.072365 293.800742  z "
           style="fill:#1f77b4;"
           id="path207" />
      </g>
      <g
         id="patch_69">
        <path
           clip-path="url(#p701cc33809)"
           d="M 345.391941 304.38  L 347.551729 304.38  L 347.551729 294.278002  L 345.391941 294.278002  z "
           style="fill:#1f77b4;"
           id="path210" />
      </g>
      <g
         id="patch_70">
        <path
           clip-path="url(#p701cc33809)"
           d="M 349.711518 304.38  L 351.871306 304.38  L 351.871306 296.664301  L 349.711518 296.664301  z "
           style="fill:#1f77b4;"
           id="path213" />
      </g>
      <g
         id="patch_71">
        <path
           clip-path="url(#p701cc33809)"
           d="M 354.031094 304.38  L 356.190882 304.38  L 356.190882 296.743844  L 354.031094 296.743844  z "
           style="fill:#1f77b4;"
           id="path216" />
      </g>
      <g
         id="patch_72">
        <path
           clip-path="url(#p701cc33809)"
           d="M 358.350671 304.38  L 360.510459 304.38  L 360.510459 297.539277  L 358.350671 297.539277  z "
           style="fill:#1f77b4;"
           id="path219" />
      </g>
      <g
         id="patch_73">
        <path
           clip-path="url(#p701cc33809)"
           d="M 362.670247 304.38  L 364.830035 304.38  L 364.830035 297.61882  L 362.670247 297.61882  z "
           style="fill:#1f77b4;"
           id="path222" />
      </g>
      <g
         id="patch_74">
        <path
           clip-path="url(#p701cc33809)"
           d="M 366.989824 304.38  L 369.149612 304.38  L 369.149612 297.85745  L 366.989824 297.85745  z "
           style="fill:#1f77b4;"
           id="path225" />
      </g>
      <g
         id="patch_75">
        <path
           clip-path="url(#p701cc33809)"
           d="M 371.3094 304.38  L 373.469188 304.38  L 373.469188 298.016537  L 371.3094 298.016537  z "
           style="fill:#1f77b4;"
           id="path228" />
      </g>
      <g
         id="patch_76">
        <path
           clip-path="url(#p701cc33809)"
           d="M 375.628976 304.38  L 377.788765 304.38  L 377.788765 298.971056  L 375.628976 298.971056  z "
           style="fill:#1f77b4;"
           id="path231" />
      </g>
      <g
         id="patch_77">
        <path
           clip-path="url(#p701cc33809)"
           d="M 379.948553 304.38  L 382.108341 304.38  L 382.108341 299.050599  L 379.948553 299.050599  z "
           style="fill:#1f77b4;"
           id="path234" />
      </g>
      <g
         id="patch_78">
        <path
           clip-path="url(#p701cc33809)"
           d="M 384.268129 304.38  L 386.427918 304.38  L 386.427918 299.607402  L 384.268129 299.607402  z "
           style="fill:#1f77b4;"
           id="path237" />
      </g>
      <g
         id="patch_79">
        <path
           clip-path="url(#p701cc33809)"
           d="M 388.587706 304.38  L 390.747494 304.38  L 390.747494 299.846032  L 388.587706 299.846032  z "
           style="fill:#1f77b4;"
           id="path240" />
      </g>
      <g
         id="patch_80">
        <path
           clip-path="url(#p701cc33809)"
           d="M 392.907282 304.38  L 395.067071 304.38  L 395.067071 299.846032  L 392.907282 299.846032  z "
           style="fill:#1f77b4;"
           id="path243" />
      </g>
      <g
         id="patch_81">
        <path
           clip-path="url(#p701cc33809)"
           d="M 397.226859 304.38  L 399.386647 304.38  L 399.386647 299.846032  L 397.226859 299.846032  z "
           style="fill:#1f77b4;"
           id="path246" />
      </g>
      <g
         id="patch_82">
        <path
           clip-path="url(#p701cc33809)"
           d="M 401.546435 304.38  L 403.706224 304.38  L 403.706224 299.925576  L 401.546435 299.925576  z "
           style="fill:#1f77b4;"
           id="path249" />
      </g>
      <g
         id="patch_83">
        <path
           clip-path="url(#p701cc33809)"
           d="M 405.866012 304.38  L 408.0258 304.38  L 408.0258 299.925576  L 405.866012 299.925576  z "
           style="fill:#1f77b4;"
           id="path252" />
      </g>
      <g
         id="patch_84">
        <path
           clip-path="url(#p701cc33809)"
           d="M 410.185588 304.38  L 412.345376 304.38  L 412.345376 300.243749  L 410.185588 300.243749  z "
           style="fill:#1f77b4;"
           id="path255" />
      </g>
      <g
         id="patch_85">
        <path
           clip-path="url(#p701cc33809)"
           d="M 414.505165 304.38  L 416.664953 304.38  L 416.664953 300.561922  L 414.505165 300.561922  z "
           style="fill:#1f77b4;"
           id="path258" />
      </g>
      <g
         id="patch_86">
        <path
           clip-path="url(#p701cc33809)"
           d="M 418.824741 304.38  L 420.984529 304.38  L 420.984529 300.721009  L 418.824741 300.721009  z "
           style="fill:#1f77b4;"
           id="path261" />
      </g>
      <g
         id="patch_87">
        <path
           clip-path="url(#p701cc33809)"
           d="M 423.144318 304.38  L 425.304106 304.38  L 425.304106 301.595985  L 423.144318 301.595985  z "
           style="fill:#1f77b4;"
           id="path264" />
      </g>
      <g
         transform="matrix(0.1,0,0,-0.1,229.67309,322.20344)"
         id="g1401"
         style="stroke-linecap:butt;stroke-linejoin:round">
        <use
           xlink:href="#DejaVuSans-116"
           id="use1391"
           style="stroke-linecap:butt;stroke-linejoin:round"
           x="0"
           y="0"
           width="100%"
           height="100%" />
        <use
           x="39.208984"
           xlink:href="#DejaVuSans-97"
           id="use1393"
           style="stroke-linecap:butt;stroke-linejoin:round"
           y="0"
           width="100%"
           height="100%" />
        <use
           x="100.48828"
           xlink:href="#DejaVuSans-115"
           id="use1395"
           style="stroke-linecap:butt;stroke-linejoin:round"
           y="0"
           width="100%"
           height="100%" />
        <use
           x="152.58789"
           xlink:href="#DejaVuSans-107"
           id="use1397"
           style="stroke-linecap:butt;stroke-linejoin:round"
           y="0"
           width="100%"
           height="100%" />
        <use
           x="210.49805"
           xlink:href="#DejaVuSans-115"
           id="use1399"
           style="stroke-linecap:butt;stroke-linejoin:round"
           y="0"
           width="100%"
           height="100%" />
      </g>
      <g
         id="matplotlib.axis_2">
        <g
           id="ytick_1">
          <g
             id="line2d_86">
            <defs
               id="defs1406">
              <path
                 d="M 0 0  L -3.5 0  "
                 id="m7fdf3adcb1"
                 style="stroke:#000000;stroke-width:0.8;" />
            </defs>
            <g
               id="g1410">
              <use
                 style="stroke:#000000;stroke-width:0.8;"
                 x="59.22"
                 xlink:href="#m7fdf3adcb1"
                 y="304.38"
                 id="use1408" />
            </g>
          </g>
          <g
             id="text_87">
            <!-- 0 -->
            <g
               transform="translate(45.8575 308.179219)scale(0.1 -0.1)"
               id="g1415">
              <path
                 d="m 31.78125,66.40625 q -7.609375,0 -11.453125,-7.5 Q 16.5,51.421875 16.5,36.375 q 0,-14.984375 3.828125,-22.484375 3.84375,-7.5 11.453125,-7.5 7.671875,0 11.5,7.5 3.84375,7.5 3.84375,22.484375 0,15.046875 -3.84375,22.53125 -3.828125,7.5 -11.5,7.5 z m 0,7.8125 q 12.265625,0 18.734375,-9.703125 6.46875,-9.6875 6.46875,-28.140625 0,-18.40625 -6.46875,-28.109375 -6.46875,-9.6875 -18.734375,-9.6875 -12.25,0 -18.71875,9.6875 Q 6.59375,17.96875 6.59375,36.375 q 0,18.453125 6.46875,28.140625 6.46875,9.703125 18.71875,9.703125 z"
                 id="use1413"
                 inkscape:connector-curvature="0"
                 style="stroke-linecap:butt;stroke-linejoin:round" />
            </g>
          </g>
        </g>
        <g
           id="ytick_2">
          <g
             id="line2d_87">
            <g
               id="g1421">
              <use
                 style="stroke:#000000;stroke-width:0.8;"
                 x="59.22"
                 xlink:href="#m7fdf3adcb1"
                 y="264.608354"
                 id="use1419" />
            </g>
          </g>
          <g
             id="text_88">
            <!-- 500 -->
            <g
               transform="translate(33.1325 268.407573)scale(0.1 -0.1)"
               id="g1430">
              <path
                 d="m 10.796875,72.90625 h 38.71875 v -8.3125 h -29.6875 V 46.734375 q 2.140625,0.734375 4.28125,1.09375 2.15625,0.359375 4.3125,0.359375 Q 40.625,48.1875 47.75,41.5 54.890625,34.8125 54.890625,23.390625 54.890625,11.625 47.5625,5.09375 40.234375,-1.421875 26.90625,-1.421875 q -4.59375,0 -9.359375,0.78125 -4.75,0.78125 -9.828125,2.34375 V 11.625 q 4.390625,-2.390625 9.078125,-3.5625 4.6875,-1.171875 9.90625,-1.171875 8.453125,0 13.375,4.4375 4.9375,4.4375 4.9375,12.0625 0,7.609375 -4.9375,12.046875 -4.921875,4.453125 -13.375,4.453125 -3.953125,0 -7.890625,-0.875 -3.921875,-0.875 -8.015625,-2.734375 z"
                 id="use1424"
                 inkscape:connector-curvature="0"
                 style="stroke-linecap:butt;stroke-linejoin:round" />
              <path
                 d="m 95.404297,66.40625 q -7.609375,0 -11.453125,-7.5 -3.828125,-7.484375 -3.828125,-22.53125 0,-14.984375 3.828125,-22.484375 3.84375,-7.5 11.453125,-7.5 7.671873,0 11.500003,7.5 3.84375,7.5 3.84375,22.484375 0,15.046875 -3.84375,22.53125 -3.82813,7.5 -11.500003,7.5 z m 0,7.8125 q 12.265623,0 18.734373,-9.703125 6.46875,-9.6875 6.46875,-28.140625 0,-18.40625 -6.46875,-28.109375 -6.46875,-9.6875 -18.734373,-9.6875 -12.25,0 -18.71875,9.6875 -6.46875,9.703125 -6.46875,28.109375 0,18.453125 6.46875,28.140625 6.46875,9.703125 18.71875,9.703125 z"
                 id="use1426"
                 inkscape:connector-curvature="0"
                 style="stroke-linecap:butt;stroke-linejoin:round" />
              <path
                 d="m 159.02734,66.40625 q -7.60937,0 -11.45312,-7.5 -3.82813,-7.484375 -3.82813,-22.53125 0,-14.984375 3.82813,-22.484375 3.84375,-7.5 11.45312,-7.5 7.67188,0 11.5,7.5 3.84375,7.5 3.84375,22.484375 0,15.046875 -3.84375,22.53125 -3.82812,7.5 -11.5,7.5 z m 0,7.8125 q 12.26563,0 18.73438,-9.703125 6.46875,-9.6875 6.46875,-28.140625 0,-18.40625 -6.46875,-28.109375 -6.46875,-9.6875 -18.73438,-9.6875 -12.25,0 -18.71875,9.6875 -6.46875,9.703125 -6.46875,28.109375 0,18.453125 6.46875,28.140625 6.46875,9.703125 18.71875,9.703125 z"
                 id="use1428"
                 inkscape:connector-curvature="0"
                 style="stroke-linecap:butt;stroke-linejoin:round" />
            </g>
          </g>
        </g>
        <g
           id="ytick_3">
          <g
             id="line2d_88">
            <g
               id="g1436">
              <use
                 style="stroke:#000000;stroke-width:0.8;"
                 x="59.22"
                 xlink:href="#m7fdf3adcb1"
                 y="224.836708"
                 id="use1434" />
            </g>
          </g>
          <g
             id="text_89">
            <!-- 1000 -->
            <g
               transform="translate(26.77 228.635927)scale(0.1 -0.1)"
               id="g1447">
              <path
                 d="m 12.40625,8.296875 h 16.109375 v 55.625 L 10.984375,60.40625 v 8.984375 l 17.4375,3.515625 H 38.28125 V 8.296875 H 54.390625 V 0 H 12.40625 Z"
                 id="use1439"
                 inkscape:connector-curvature="0"
                 style="stroke-linecap:butt;stroke-linejoin:round" />
              <path
                 d="m 95.404297,66.40625 q -7.609375,0 -11.453125,-7.5 -3.828125,-7.484375 -3.828125,-22.53125 0,-14.984375 3.828125,-22.484375 3.84375,-7.5 11.453125,-7.5 7.671873,0 11.500003,7.5 3.84375,7.5 3.84375,22.484375 0,15.046875 -3.84375,22.53125 -3.82813,7.5 -11.500003,7.5 z m 0,7.8125 q 12.265623,0 18.734373,-9.703125 6.46875,-9.6875 6.46875,-28.140625 0,-18.40625 -6.46875,-28.109375 -6.46875,-9.6875 -18.734373,-9.6875 -12.25,0 -18.71875,9.6875 -6.46875,9.703125 -6.46875,28.109375 0,18.453125 6.46875,28.140625 6.46875,9.703125 18.71875,9.703125 z"
                 id="use1441"
                 inkscape:connector-curvature="0"
                 style="stroke-linecap:butt;stroke-linejoin:round" />
              <path
                 d="m 159.02734,66.40625 q -7.60937,0 -11.45312,-7.5 -3.82813,-7.484375 -3.82813,-22.53125 0,-14.984375 3.82813,-22.484375 3.84375,-7.5 11.45312,-7.5 7.67188,0 11.5,7.5 3.84375,7.5 3.84375,22.484375 0,15.046875 -3.84375,22.53125 -3.82812,7.5 -11.5,7.5 z m 0,7.8125 q 12.26563,0 18.73438,-9.703125 6.46875,-9.6875 6.46875,-28.140625 0,-18.40625 -6.46875,-28.109375 -6.46875,-9.6875 -18.73438,-9.6875 -12.25,0 -18.71875,9.6875 -6.46875,9.703125 -6.46875,28.109375 0,18.453125 6.46875,28.140625 6.46875,9.703125 18.71875,9.703125 z"
                 id="use1443"
                 inkscape:connector-curvature="0"
                 style="stroke-linecap:butt;stroke-linejoin:round" />
              <path
                 d="m 222.65039,66.40625 q -7.60937,0 -11.45312,-7.5 -3.82813,-7.484375 -3.82813,-22.53125 0,-14.984375 3.82813,-22.484375 3.84375,-7.5 11.45312,-7.5 7.67188,0 11.5,7.5 3.84375,7.5 3.84375,22.484375 0,15.046875 -3.84375,22.53125 -3.82812,7.5 -11.5,7.5 z m 0,7.8125 q 12.26563,0 18.73438,-9.703125 6.46875,-9.6875 6.46875,-28.140625 0,-18.40625 -6.46875,-28.109375 -6.46875,-9.6875 -18.73438,-9.6875 -12.25,0 -18.71875,9.6875 -6.46875,9.703125 -6.46875,28.109375 0,18.453125 6.46875,28.140625 6.46875,9.703125 18.71875,9.703125 z"
                 id="use1445"
                 inkscape:connector-curvature="0"
                 style="stroke-linecap:butt;stroke-linejoin:round" />
            </g>
          </g>
        </g>
        <g
           id="ytick_4">
          <g
             id="line2d_89">
            <g
               id="g1453">
              <use
                 style="stroke:#000000;stroke-width:0.8;"
                 x="59.22"
                 xlink:href="#m7fdf3adcb1"
                 y="185.065062"
                 id="use1451" />
            </g>
          </g>
          <g
             id="text_90">
            <!-- 1500 -->
            <g
               transform="translate(26.77 188.864281)scale(0.1 -0.1)"
               id="g1464">
              <path
                 d="m 12.40625,8.296875 h 16.109375 v 55.625 L 10.984375,60.40625 v 8.984375 l 17.4375,3.515625 H 38.28125 V 8.296875 H 54.390625 V 0 H 12.40625 Z"
                 id="use1456"
                 inkscape:connector-curvature="0"
                 style="stroke-linecap:butt;stroke-linejoin:round" />
              <path
                 d="m 74.419922,72.90625 h 38.718748 v -8.3125 H 83.451172 V 46.734375 q 2.140625,0.734375 4.28125,1.09375 2.15625,0.359375 4.3125,0.359375 12.203128,0 19.328128,-6.6875 7.14062,-6.6875 7.14062,-18.109375 0,-11.765625 -7.32812,-18.296875 -7.32813,-6.515625 -20.656253,-6.515625 -4.59375,0 -9.359375,0.78125 -4.75,0.78125 -9.828125,2.34375 V 11.625 q 4.390625,-2.390625 9.078125,-3.5625 4.6875,-1.171875 9.90625,-1.171875 8.453125,0 13.374998,4.4375 4.9375,4.4375 4.9375,12.0625 0,7.609375 -4.9375,12.046875 -4.921873,4.453125 -13.374998,4.453125 -3.953125,0 -7.890625,-0.875 -3.921875,-0.875 -8.015625,-2.734375 z"
                 id="use1458"
                 inkscape:connector-curvature="0"
                 style="stroke-linecap:butt;stroke-linejoin:round" />
              <path
                 d="m 159.02734,66.40625 q -7.60937,0 -11.45312,-7.5 -3.82813,-7.484375 -3.82813,-22.53125 0,-14.984375 3.82813,-22.484375 3.84375,-7.5 11.45312,-7.5 7.67188,0 11.5,7.5 3.84375,7.5 3.84375,22.484375 0,15.046875 -3.84375,22.53125 -3.82812,7.5 -11.5,7.5 z m 0,7.8125 q 12.26563,0 18.73438,-9.703125 6.46875,-9.6875 6.46875,-28.140625 0,-18.40625 -6.46875,-28.109375 -6.46875,-9.6875 -18.73438,-9.6875 -12.25,0 -18.71875,9.6875 -6.46875,9.703125 -6.46875,28.109375 0,18.453125 6.46875,28.140625 6.46875,9.703125 18.71875,9.703125 z"
                 id="use1460"
                 inkscape:connector-curvature="0"
                 style="stroke-linecap:butt;stroke-linejoin:round" />
              <path
                 d="m 222.65039,66.40625 q -7.60937,0 -11.45312,-7.5 -3.82813,-7.484375 -3.82813,-22.53125 0,-14.984375 3.82813,-22.484375 3.84375,-7.5 11.45312,-7.5 7.67188,0 11.5,7.5 3.84375,7.5 3.84375,22.484375 0,15.046875 -3.84375,22.53125 -3.82812,7.5 -11.5,7.5 z m 0,7.8125 q 12.26563,0 18.73438,-9.703125 6.46875,-9.6875 6.46875,-28.140625 0,-18.40625 -6.46875,-28.109375 -6.46875,-9.6875 -18.73438,-9.6875 -12.25,0 -18.71875,9.6875 -6.46875,9.703125 -6.46875,28.109375 0,18.453125 6.46875,28.140625 6.46875,9.703125 18.71875,9.703125 z"
                 id="use1462"
                 inkscape:connector-curvature="0"
                 style="stroke-linecap:butt;stroke-linejoin:round" />
            </g>
          </g>
        </g>
        <g
           id="ytick_5">
          <g
             id="line2d_90">
            <g
               id="g1470">
              <use
                 style="stroke:#000000;stroke-width:0.8;"
                 x="59.22"
                 xlink:href="#m7fdf3adcb1"
                 y="145.293416"
                 id="use1468" />
            </g>
          </g>
          <g
             id="text_91">
            <!-- 2000 -->
            <g
               transform="translate(26.77 149.092635)scale(0.1 -0.1)"
               id="g1481">
              <path
                 d="M 19.1875,8.296875 H 53.609375 V 0 H 7.328125 v 8.296875 q 5.609375,5.8125 15.296875,15.59375 9.703125,9.796875 12.1875,12.640625 4.734375,5.3125 6.609375,9 1.890625,3.6875 1.890625,7.25 0,5.8125 -4.078125,9.46875 -4.078125,3.671875 -10.625,3.671875 -4.640625,0 -9.796875,-1.609375 -5.140625,-1.609375 -11,-4.890625 v 9.96875 Q 13.765625,71.78125 18.9375,73 q 5.1875,1.21875 9.484375,1.21875 11.328125,0 18.0625,-5.671875 6.734375,-5.65625 6.734375,-15.125 0,-4.5 -1.6875,-8.53125 Q 49.859375,40.875 45.40625,35.40625 44.1875,33.984375 37.640625,27.21875 31.109375,20.453125 19.1875,8.296875 Z"
                 id="use1473"
                 inkscape:connector-curvature="0"
                 style="stroke-linecap:butt;stroke-linejoin:round" />
              <path
                 d="m 95.404297,66.40625 q -7.609375,0 -11.453125,-7.5 -3.828125,-7.484375 -3.828125,-22.53125 0,-14.984375 3.828125,-22.484375 3.84375,-7.5 11.453125,-7.5 7.671873,0 11.500003,7.5 3.84375,7.5 3.84375,22.484375 0,15.046875 -3.84375,22.53125 -3.82813,7.5 -11.500003,7.5 z m 0,7.8125 q 12.265623,0 18.734373,-9.703125 6.46875,-9.6875 6.46875,-28.140625 0,-18.40625 -6.46875,-28.109375 -6.46875,-9.6875 -18.734373,-9.6875 -12.25,0 -18.71875,9.6875 -6.46875,9.703125 -6.46875,28.109375 0,18.453125 6.46875,28.140625 6.46875,9.703125 18.71875,9.703125 z"
                 id="use1475"
                 inkscape:connector-curvature="0"
                 style="stroke-linecap:butt;stroke-linejoin:round" />
              <path
                 d="m 159.02734,66.40625 q -7.60937,0 -11.45312,-7.5 -3.82813,-7.484375 -3.82813,-22.53125 0,-14.984375 3.82813,-22.484375 3.84375,-7.5 11.45312,-7.5 7.67188,0 11.5,7.5 3.84375,7.5 3.84375,22.484375 0,15.046875 -3.84375,22.53125 -3.82812,7.5 -11.5,7.5 z m 0,7.8125 q 12.26563,0 18.73438,-9.703125 6.46875,-9.6875 6.46875,-28.140625 0,-18.40625 -6.46875,-28.109375 -6.46875,-9.6875 -18.73438,-9.6875 -12.25,0 -18.71875,9.6875 -6.46875,9.703125 -6.46875,28.109375 0,18.453125 6.46875,28.140625 6.46875,9.703125 18.71875,9.703125 z"
                 id="use1477"
                 inkscape:connector-curvature="0"
                 style="stroke-linecap:butt;stroke-linejoin:round" />
              <path
                 d="m 222.65039,66.40625 q -7.60937,0 -11.45312,-7.5 -3.82813,-7.484375 -3.82813,-22.53125 0,-14.984375 3.82813,-22.484375 3.84375,-7.5 11.45312,-7.5 7.67188,0 11.5,7.5 3.84375,7.5 3.84375,22.484375 0,15.046875 -3.84375,22.53125 -3.82812,7.5 -11.5,7.5 z m 0,7.8125 q 12.26563,0 18.73438,-9.703125 6.46875,-9.6875 6.46875,-28.140625 0,-18.40625 -6.46875,-28.109375 -6.46875,-9.6875 -18.73438,-9.6875 -12.25,0 -18.71875,9.6875 -6.46875,9.703125 -6.46875,28.109375 0,18.453125 6.46875,28.140625 6.46875,9.703125 18.71875,9.703125 z"
                 id="use1479"
                 inkscape:connector-curvature="0"
                 style="stroke-linecap:butt;stroke-linejoin:round" />
            </g>
          </g>
        </g>
        <g
           id="ytick_6">
          <g
             id="line2d_91">
            <g
               id="g1487">
              <use
                 style="stroke:#000000;stroke-width:0.8;"
                 x="59.22"
                 xlink:href="#m7fdf3adcb1"
                 y="105.52177"
                 id="use1485" />
            </g>
          </g>
          <g
             id="text_92">
            <!-- 2500 -->
            <g
               transform="translate(26.77 109.320988)scale(0.1 -0.1)"
               id="g1498">
              <path
                 d="M 19.1875,8.296875 H 53.609375 V 0 H 7.328125 v 8.296875 q 5.609375,5.8125 15.296875,15.59375 9.703125,9.796875 12.1875,12.640625 4.734375,5.3125 6.609375,9 1.890625,3.6875 1.890625,7.25 0,5.8125 -4.078125,9.46875 -4.078125,3.671875 -10.625,3.671875 -4.640625,0 -9.796875,-1.609375 -5.140625,-1.609375 -11,-4.890625 v 9.96875 Q 13.765625,71.78125 18.9375,73 q 5.1875,1.21875 9.484375,1.21875 11.328125,0 18.0625,-5.671875 6.734375,-5.65625 6.734375,-15.125 0,-4.5 -1.6875,-8.53125 Q 49.859375,40.875 45.40625,35.40625 44.1875,33.984375 37.640625,27.21875 31.109375,20.453125 19.1875,8.296875 Z"
                 id="use1490"
                 inkscape:connector-curvature="0"
                 style="stroke-linecap:butt;stroke-linejoin:round" />
              <path
                 d="m 74.419922,72.90625 h 38.718748 v -8.3125 H 83.451172 V 46.734375 q 2.140625,0.734375 4.28125,1.09375 2.15625,0.359375 4.3125,0.359375 12.203128,0 19.328128,-6.6875 7.14062,-6.6875 7.14062,-18.109375 0,-11.765625 -7.32812,-18.296875 -7.32813,-6.515625 -20.656253,-6.515625 -4.59375,0 -9.359375,0.78125 -4.75,0.78125 -9.828125,2.34375 V 11.625 q 4.390625,-2.390625 9.078125,-3.5625 4.6875,-1.171875 9.90625,-1.171875 8.453125,0 13.374998,4.4375 4.9375,4.4375 4.9375,12.0625 0,7.609375 -4.9375,12.046875 -4.921873,4.453125 -13.374998,4.453125 -3.953125,0 -7.890625,-0.875 -3.921875,-0.875 -8.015625,-2.734375 z"
                 id="use1492"
                 inkscape:connector-curvature="0"
                 style="stroke-linecap:butt;stroke-linejoin:round" />
              <path
                 d="m 159.02734,66.40625 q -7.60937,0 -11.45312,-7.5 -3.82813,-7.484375 -3.82813,-22.53125 0,-14.984375 3.82813,-22.484375 3.84375,-7.5 11.45312,-7.5 7.67188,0 11.5,7.5 3.84375,7.5 3.84375,22.484375 0,15.046875 -3.84375,22.53125 -3.82812,7.5 -11.5,7.5 z m 0,7.8125 q 12.26563,0 18.73438,-9.703125 6.46875,-9.6875 6.46875,-28.140625 0,-18.40625 -6.46875,-28.109375 -6.46875,-9.6875 -18.73438,-9.6875 -12.25,0 -18.71875,9.6875 -6.46875,9.703125 -6.46875,28.109375 0,18.453125 6.46875,28.140625 6.46875,9.703125 18.71875,9.703125 z"
                 id="use1494"
                 inkscape:connector-curvature="0"
                 style="stroke-linecap:butt;stroke-linejoin:round" />
              <path
                 d="m 222.65039,66.40625 q -7.60937,0 -11.45312,-7.5 -3.82813,-7.484375 -3.82813,-22.53125 0,-14.984375 3.82813,-22.484375 3.84375,-7.5 11.45312,-7.5 7.67188,0 11.5,7.5 3.84375,7.5 3.84375,22.484375 0,15.046875 -3.84375,22.53125 -3.82812,7.5 -11.5,7.5 z m 0,7.8125 q 12.26563,0 18.73438,-9.703125 6.46875,-9.6875 6.46875,-28.140625 0,-18.40625 -6.46875,-28.109375 -6.46875,-9.6875 -18.73438,-9.6875 -12.25,0 -18.71875,9.6875 -6.46875,9.703125 -6.46875,28.109375 0,18.453125 6.46875,28.140625 6.46875,9.703125 18.71875,9.703125 z"
                 id="use1496"
                 inkscape:connector-curvature="0"
                 style="stroke-linecap:butt;stroke-linejoin:round" />
            </g>
          </g>
        </g>
        <g
           id="ytick_7">
          <g
             id="line2d_92">
            <g
               id="g1504">
              <use
                 style="stroke:#000000;stroke-width:0.8;"
                 x="59.22"
                 xlink:href="#m7fdf3adcb1"
                 y="65.750124"
                 id="use1502" />
            </g>
          </g>
          <g
             id="text_93">
            <!-- 3000 -->
            <g
               transform="translate(26.77 69.549342)scale(0.1 -0.1)"
               id="g1515">
              <path
                 d="M 40.578125,39.3125 Q 47.65625,37.796875 51.625,33 q 3.984375,-4.78125 3.984375,-11.8125 0,-10.78125 -7.421875,-16.703125 -7.421875,-5.90625 -21.09375,-5.90625 -4.578125,0 -9.4375,0.90625 -4.859375,0.90625 -10.03125,2.71875 v 9.515625 q 4.09375,-2.390625 8.96875,-3.609375 4.890625,-1.21875 10.21875,-1.21875 9.265625,0 14.125,3.65625 4.859375,3.65625 4.859375,10.640625 0,6.453125 -4.515625,10.078125 -4.515625,3.640625 -12.5625,3.640625 h -8.5 v 8.109375 h 8.890625 q 7.265625,0 11.125,2.90625 3.859375,2.90625 3.859375,8.375 0,5.609375 -3.984375,8.609375 -3.96875,3.015625 -11.390625,3.015625 -4.0625,0 -8.703125,-0.890625 Q 15.375,64.15625 9.8125,62.3125 v 8.78125 q 5.625,1.5625 10.53125,2.34375 4.90625,0.78125 9.25,0.78125 11.234375,0 17.765625,-5.109375 6.546875,-5.09375 6.546875,-13.78125 0,-6.0625 -3.46875,-10.234375 -3.46875,-4.171875 -9.859375,-5.78125 z"
                 id="use1507"
                 inkscape:connector-curvature="0"
                 style="stroke-linecap:butt;stroke-linejoin:round" />
              <path
                 d="m 95.404297,66.40625 q -7.609375,0 -11.453125,-7.5 -3.828125,-7.484375 -3.828125,-22.53125 0,-14.984375 3.828125,-22.484375 3.84375,-7.5 11.453125,-7.5 7.671873,0 11.500003,7.5 3.84375,7.5 3.84375,22.484375 0,15.046875 -3.84375,22.53125 -3.82813,7.5 -11.500003,7.5 z m 0,7.8125 q 12.265623,0 18.734373,-9.703125 6.46875,-9.6875 6.46875,-28.140625 0,-18.40625 -6.46875,-28.109375 -6.46875,-9.6875 -18.734373,-9.6875 -12.25,0 -18.71875,9.6875 -6.46875,9.703125 -6.46875,28.109375 0,18.453125 6.46875,28.140625 6.46875,9.703125 18.71875,9.703125 z"
                 id="use1509"
                 inkscape:connector-curvature="0"
                 style="stroke-linecap:butt;stroke-linejoin:round" />
              <path
                 d="m 159.02734,66.40625 q -7.60937,0 -11.45312,-7.5 -3.82813,-7.484375 -3.82813,-22.53125 0,-14.984375 3.82813,-22.484375 3.84375,-7.5 11.45312,-7.5 7.67188,0 11.5,7.5 3.84375,7.5 3.84375,22.484375 0,15.046875 -3.84375,22.53125 -3.82812,7.5 -11.5,7.5 z m 0,7.8125 q 12.26563,0 18.73438,-9.703125 6.46875,-9.6875 6.46875,-28.140625 0,-18.40625 -6.46875,-28.109375 -6.46875,-9.6875 -18.73438,-9.6875 -12.25,0 -18.71875,9.6875 -6.46875,9.703125 -6.46875,28.109375 0,18.453125 6.46875,28.140625 6.46875,9.703125 18.71875,9.703125 z"
                 id="use1511"
                 inkscape:connector-curvature="0"
                 style="stroke-linecap:butt;stroke-linejoin:round" />
              <path
                 d="m 222.65039,66.40625 q -7.60937,0 -11.45312,-7.5 -3.82813,-7.484375 -3.82813,-22.53125 0,-14.984375 3.82813,-22.484375 3.84375,-7.5 11.45312,-7.5 7.67188,0 11.5,7.5 3.84375,7.5 3.84375,22.484375 0,15.046875 -3.84375,22.53125 -3.82812,7.5 -11.5,7.5 z m 0,7.8125 q 12.26563,0 18.73438,-9.703125 6.46875,-9.6875 6.46875,-28.140625 0,-18.40625 -6.46875,-28.109375 -6.46875,-9.6875 -18.73438,-9.6875 -12.25,0 -18.71875,9.6875 -6.46875,9.703125 -6.46875,28.109375 0,18.453125 6.46875,28.140625 6.46875,9.703125 18.71875,9.703125 z"
                 id="use1513"
                 inkscape:connector-curvature="0"
                 style="stroke-linecap:butt;stroke-linejoin:round" />
            </g>
          </g>
        </g>
        <g
           id="text_94">
          <!-- number_of_task_sessions -->
          <defs
             id="defs1529">
            <path
               d="M 54.890625 33.015625  L 54.890625 0  L 45.90625 0  L 45.90625 32.71875  Q 45.90625 40.484375 42.875 44.328125  Q 39.84375 48.1875 33.796875 48.1875  Q 26.515625 48.1875 22.3125 43.546875  Q 18.109375 38.921875 18.109375 30.90625  L 18.109375 0  L 9.078125 0  L 9.078125 54.6875  L 18.109375 54.6875  L 18.109375 46.1875  Q 21.34375 51.125 25.703125 53.5625  Q 30.078125 56 35.796875 56  Q 45.21875 56 50.046875 50.171875  Q 54.890625 44.34375 54.890625 33.015625  z "
               id="DejaVuSans-110" />
            <path
               d="M 8.5 21.578125  L 8.5 54.6875  L 17.484375 54.6875  L 17.484375 21.921875  Q 17.484375 14.15625 20.5 10.265625  Q 23.53125 6.390625 29.59375 6.390625  Q 36.859375 6.390625 41.078125 11.03125  Q 45.3125 15.671875 45.3125 23.6875  L 45.3125 54.6875  L 54.296875 54.6875  L 54.296875 0  L 45.3125 0  L 45.3125 8.40625  Q 42.046875 3.421875 37.71875 1  Q 33.40625 -1.421875 27.6875 -1.421875  Q 18.265625 -1.421875 13.375 4.4375  Q 8.5 10.296875 8.5 21.578125  z M 31.109375 56  z "
               id="DejaVuSans-117" />
            <path
               d="M 52 44.1875  Q 55.375 50.25 60.0625 53.125  Q 64.75 56 71.09375 56  Q 79.640625 56 84.28125 50.015625  Q 88.921875 44.046875 88.921875 33.015625  L 88.921875 0  L 79.890625 0  L 79.890625 32.71875  Q 79.890625 40.578125 77.09375 44.375  Q 74.3125 48.1875 68.609375 48.1875  Q 61.625 48.1875 57.5625 43.546875  Q 53.515625 38.921875 53.515625 30.90625  L 53.515625 0  L 44.484375 0  L 44.484375 32.71875  Q 44.484375 40.625 41.703125 44.40625  Q 38.921875 48.1875 33.109375 48.1875  Q 26.21875 48.1875 22.15625 43.53125  Q 18.109375 38.875 18.109375 30.90625  L 18.109375 0  L 9.078125 0  L 9.078125 54.6875  L 18.109375 54.6875  L 18.109375 46.1875  Q 21.1875 51.21875 25.484375 53.609375  Q 29.78125 56 35.6875 56  Q 41.65625 56 45.828125 52.96875  Q 50 49.953125 52 44.1875  z "
               id="DejaVuSans-109" />
            <path
               d="M 48.6875 27.296875  Q 48.6875 37.203125 44.609375 42.84375  Q 40.53125 48.484375 33.40625 48.484375  Q 26.265625 48.484375 22.1875 42.84375  Q 18.109375 37.203125 18.109375 27.296875  Q 18.109375 17.390625 22.1875 11.75  Q 26.265625 6.109375 33.40625 6.109375  Q 40.53125 6.109375 44.609375 11.75  Q 48.6875 17.390625 48.6875 27.296875  z M 18.109375 46.390625  Q 20.953125 51.265625 25.265625 53.625  Q 29.59375 56 35.59375 56  Q 45.5625 56 51.78125 48.09375  Q 58.015625 40.1875 58.015625 27.296875  Q 58.015625 14.40625 51.78125 6.484375  Q 45.5625 -1.421875 35.59375 -1.421875  Q 29.59375 -1.421875 25.265625 0.953125  Q 20.953125 3.328125 18.109375 8.203125  L 18.109375 0  L 9.078125 0  L 9.078125 75.984375  L 18.109375 75.984375  z "
               id="DejaVuSans-98" />
            <path
               d="M 56.203125 29.59375  L 56.203125 25.203125  L 14.890625 25.203125  Q 15.484375 15.921875 20.484375 11.0625  Q 25.484375 6.203125 34.421875 6.203125  Q 39.59375 6.203125 44.453125 7.46875  Q 49.3125 8.734375 54.109375 11.28125  L 54.109375 2.78125  Q 49.265625 0.734375 44.1875 -0.34375  Q 39.109375 -1.421875 33.890625 -1.421875  Q 20.796875 -1.421875 13.15625 6.1875  Q 5.515625 13.8125 5.515625 26.8125  Q 5.515625 40.234375 12.765625 48.109375  Q 20.015625 56 32.328125 56  Q 43.359375 56 49.78125 48.890625  Q 56.203125 41.796875 56.203125 29.59375  z M 47.21875 32.234375  Q 47.125 39.59375 43.09375 43.984375  Q 39.0625 48.390625 32.421875 48.390625  Q 24.90625 48.390625 20.390625 44.140625  Q 15.875 39.890625 15.1875 32.171875  z "
               id="DejaVuSans-101" />
            <path
               d="M 41.109375 46.296875  Q 39.59375 47.171875 37.8125 47.578125  Q 36.03125 48 33.890625 48  Q 26.265625 48 22.1875 43.046875  Q 18.109375 38.09375 18.109375 28.8125  L 18.109375 0  L 9.078125 0  L 9.078125 54.6875  L 18.109375 54.6875  L 18.109375 46.1875  Q 20.953125 51.171875 25.484375 53.578125  Q 30.03125 56 36.53125 56  Q 37.453125 56 38.578125 55.875  Q 39.703125 55.765625 41.0625 55.515625  z "
               id="DejaVuSans-114" />
            <path
               d="M 50.984375 -16.609375  L 50.984375 -23.578125  L -0.984375 -23.578125  L -0.984375 -16.609375  z "
               id="DejaVuSans-95" />
            <path
               d="M 30.609375 48.390625  Q 23.390625 48.390625 19.1875 42.75  Q 14.984375 37.109375 14.984375 27.296875  Q 14.984375 17.484375 19.15625 11.84375  Q 23.34375 6.203125 30.609375 6.203125  Q 37.796875 6.203125 41.984375 11.859375  Q 46.1875 17.53125 46.1875 27.296875  Q 46.1875 37.015625 41.984375 42.703125  Q 37.796875 48.390625 30.609375 48.390625  z M 30.609375 56  Q 42.328125 56 49.015625 48.375  Q 55.71875 40.765625 55.71875 27.296875  Q 55.71875 13.875 49.015625 6.21875  Q 42.328125 -1.421875 30.609375 -1.421875  Q 18.84375 -1.421875 12.171875 6.21875  Q 5.515625 13.875 5.515625 27.296875  Q 5.515625 40.765625 12.171875 48.375  Q 18.84375 56 30.609375 56  z "
               id="DejaVuSans-111" />
            <path
               d="M 37.109375 75.984375  L 37.109375 68.5  L 28.515625 68.5  Q 23.6875 68.5 21.796875 66.546875  Q 19.921875 64.59375 19.921875 59.515625  L 19.921875 54.6875  L 34.71875 54.6875  L 34.71875 47.703125  L 19.921875 47.703125  L 19.921875 0  L 10.890625 0  L 10.890625 47.703125  L 2.296875 47.703125  L 2.296875 54.6875  L 10.890625 54.6875  L 10.890625 58.5  Q 10.890625 67.625 15.140625 71.796875  Q 19.390625 75.984375 28.609375 75.984375  z "
               id="DejaVuSans-102" />
            <path
               d="M 9.421875 54.6875  L 18.40625 54.6875  L 18.40625 0  L 9.421875 0  z M 9.421875 75.984375  L 18.40625 75.984375  L 18.40625 64.59375  L 9.421875 64.59375  z "
               id="DejaVuSans-105" />
          </defs>
          <g
             transform="translate(20.412187 236.180313)rotate(-90)scale(0.1 -0.1)"
             id="g1577">
            <use
               xlink:href="#DejaVuSans-110"
               id="use1531" />
            <use
               x="63.378906"
               xlink:href="#DejaVuSans-117"
               id="use1533" />
            <use
               x="126.757812"
               xlink:href="#DejaVuSans-109"
               id="use1535" />
            <use
               x="224.169922"
               xlink:href="#DejaVuSans-98"
               id="use1537" />
            <use
               x="287.646484"
               xlink:href="#DejaVuSans-101"
               id="use1539" />
            <use
               x="349.169922"
               xlink:href="#DejaVuSans-114"
               id="use1541" />
            <use
               x="390.283203"
               xlink:href="#DejaVuSans-95"
               id="use1543" />
            <use
               x="440.283203"
               xlink:href="#DejaVuSans-111"
               id="use1545" />
            <use
               x="501.464844"
               xlink:href="#DejaVuSans-102"
               id="use1547" />
            <use
               x="536.669922"
               xlink:href="#DejaVuSans-95"
               id="use1549" />
            <use
               x="586.669922"
               xlink:href="#DejaVuSans-116"
               id="use1551" />
            <use
               x="625.878906"
               xlink:href="#DejaVuSans-97"
               id="use1553" />
            <use
               x="687.158203"
               xlink:href="#DejaVuSans-115"
               id="use1555" />
            <use
               x="739.257812"
               xlink:href="#DejaVuSans-107"
               id="use1557" />
            <use
               x="797.167969"
               xlink:href="#DejaVuSans-95"
               id="use1559" />
            <use
               x="847.167969"
               xlink:href="#DejaVuSans-115"
               id="use1561" />
            <use
               x="899.267578"
               xlink:href="#DejaVuSans-101"
               id="use1563" />
            <use
               x="960.791016"
               xlink:href="#DejaVuSans-115"
               id="use1565" />
            <use
               x="1012.890625"
               xlink:href="#DejaVuSans-115"
               id="use1567" />
            <use
               x="1064.990234"
               xlink:href="#DejaVuSans-105"
               id="use1569" />
            <use
               x="1092.773438"
               xlink:href="#DejaVuSans-111"
               id="use1571" />
            <use
               x="1153.955078"
               xlink:href="#DejaVuSans-110"
               id="use1573" />
            <use
               x="1217.333984"
               xlink:href="#DejaVuSans-115"
               id="use1575" />
          </g>
        </g>
      </g>
      <g
         id="patch_88">
        <path
           d="M 59.22 304.38  L 59.22 41.04  "
           style="fill:none;stroke:#000000;stroke-linecap:square;stroke-linejoin:miter;stroke-width:0.8;"
           id="path1581" />
      </g>
      <g
         id="patch_89">
        <path
           d="M 426.384 304.38  L 426.384 41.04  "
           style="fill:none;stroke:#000000;stroke-linecap:square;stroke-linejoin:miter;stroke-width:0.8;"
           id="path1584" />
      </g>
      <g
         id="patch_90">
        <path
           d="M 59.22 304.38  L 426.384 304.38  "
           style="fill:none;stroke:#000000;stroke-linecap:square;stroke-linejoin:miter;stroke-width:0.8;"
           id="path1587" />
      </g>
      <g
         id="patch_91">
        <path
           d="M 59.22 41.04  L 426.384 41.04  "
           style="fill:none;stroke:#000000;stroke-linecap:square;stroke-linejoin:miter;stroke-width:0.8;"
           id="path1590" />
      </g>
    </g>
  </g>
  <defs
     id="defs1615">
    <clipPath
       id="p701cc33809">
      <rect
         height="263.34"
         width="367.164"
         x="59.22"
         y="41.04"
         id="rect1612" />
    </clipPath>
  </defs>
</svg>
